<svg xmlns="http://www.w3.org/2000/svg" viewBox="0 0 749.38 560.91">
  <defs>
    <style>
      .cls-1{fill:#fff877;stroke:#2f2f7f;stroke-width:0.5px;}
    </style>
  </defs>
  <title>
    blobs
  </title>
  <g id="Layer_2" data-name="Layer 2">
    <g id="BlobsOnly">
      <path class="cls-1" 
        d="M215.13,173.56a3.14,3.14,0,1,0,3.14-3.14,3.22,3.22,0,0,0-3.14,3.14m-119.3,3.14c-3.35,8-1.47,12.58,4.81,12.58,9,0,10.46-4.61,3.77-12.16l-6.07-6.5Zm556.94-4.19c-2.72,2.31-4.19,4.19-3.35,4.19s.63,1.26-.63,2.52c-3.35,4.4-.63,16.35,4,16.35,4.81,0,7.12-3.56,4.19-7.13-2.51-3.14-1-9,3.35-13.42,2.72-2.73,1.88-6.71-1-6.71-.84.21-3.77,2.1-6.49,4.19m-255.55-.21c0,2.52,1.26,4.4,3.35,4.4,1.88,0,2.93-1.47,2.51-3.56-1-5.24-5.86-5.87-5.86-.84m-44.58-2.52c-.84.63-1.47,4.4-1.47,8.17s-1,7.13-2.09,7.55c-1.26.42-2.72,3.77-3.14,7.55-.63,5.66-.21,6.71,3.35,6.71,7.53,0,12.77-4,11.3-8.59a8.65,8.65,0,0,1,1.88-8c6.28-7.13-3.35-20.12-9.84-13.42m-158,1.47c.21,2.1,1.67,3.56,2.72,3.56,3.14-.21,2.51-5-.63-6.08-1.88-.63-2.72.42-2.09,2.52m276.69-1.89a5.25,5.25,0,0,1-1.26,4.82c-1.67,1.68-.63,2.1,3.77,1.89,8-.63,9.42-6.92,1.88-8.17-3.77-.84-5.23-.42-4.4,1.47M309.1,172.52c1,0,2.3-1.47,3.14-3.14.84-2.52-.56-3.91-4.19-2.7-1.67,2.37-.56,5.84,1.05,5.84m-172-6.92c-2.93,2.72-1.26,6.92,2.72,6.92,4.6,0,4.81-.21,2.93-5q-2.2-5.34-5.65-1.89m272.09-2.31c-1.88,2.1-1.88,9.22.21,9.22.84,0,2.93-1,4.6-2.1,2.72-1.68,2.72-2.31-.21-5.24-1.67-1.68-3.77-2.52-4.6-1.89m-32.86,4.19c-2.93,7.55-2.51,11.32,1.26,12.79,5.23,1.89,7.74-2.52,6.28-10.69-1.67-8.8-4.81-9.64-7.53-2.1m-174.56-3.77a2.69,2.69,0,0,0,1,3.56c3.14,2.1,5.23-.63,2.51-3.35-1.47-1.47-2.72-1.47-3.56-.21m-41,1.68c0,1.68,1,2.52,2.09,1.89a4,4,0,0,0,2.09-3.35A1.93,1.93,0,0,0,162.8,162c-1,0-2.09,1.47-2.09,3.35M36.38,163.92c-2.09,3.35,1,8.59,5.44,8.59,2.93,0,4-1.26,3.35-4.61-.63-5-6.7-7.55-8.79-4m573.48-1.47c-3.14,8.8-3.14,10.27,0,11.53,4.6,1.68,5.44-.21,3.35-8-1.46-5.45-2.3-6.29-3.35-3.56m17-1.68c-1.46,3.35.21,5.45,4.19,5.45,1.47,0,2.72-1.89,2.72-4.19,0-4.82-5.23-5.66-6.91-1.26m86,1.12c5.38.45,6.94-.08,5.9-3.21a32.82,32.82,0,0,1-1.26-4.19c0-.42-1.47-.84-3.14-.84-2.62,0-4.73,4.63-1.5,8.24m-217-5.31c-2.51,2.93-1,5.45,3.35,5.45,3.14,0,3.77-5.45.84-7.13-1-.63-2.93,0-4.19,1.68m-166.39-1a2.27,2.27,0,1,0,3.14-.63,2.14,2.14,0,0,0-3.14.63m-12.35-.42c-3.14,3.14-1.26,9,2.72,9,2.3,0,4.19-1.26,4.19-2.93,0-3.56-5-8-6.91-6.08m-68.44,2.52c0,2.31,1,4.82,2.3,5.66,3.35,1.89,6.28-3.77,3.56-6.92-3.14-4-5.86-3.35-5.86,1.26m337.15,4.22c9,.39,10.7.59,9.87-4.64A5.81,5.81,0,0,0,590.4,152c-5.23-.83-5,.88-4.64,9.88m-201.1-8.21c0,1,1.46,2.1,3.14,2.1s3.14-1,3.14-2.1c0-1.26-1.46-2.1-3.14-2.1s-3.14.84-3.14,2.1m-213.9.21c-7.33,4.19-3.35,13.62,5.65,13.42,5.44,0,6.28-5.66,1.67-11.11-2.93-3.56-4.6-4-7.33-2.31m-96.07.42c-5.86,4.61-6.07,11.32-.63,15.09,10.46,6.71,15.28,1.89,10-10.48-3.35-8-4.4-8.59-9.42-4.61M345.1,153c-2.09,2.31-2.09,3.77-.42,5.45,3.35,3.35,7.53-1.26,5.23-5.45-1.67-2.73-2.3-2.73-4.81,0M279,151.55c.84,1.26.21,3.56-1,5.24-3.77,4.61-.84,9.43,5.86,9.43,5.44,0,5.86-.42,5-7.34-.42-4-1.67-6.71-2.72-6.08a1.15,1.15,0,0,1-1.88-1c0-1.26-1.46-2.31-3.35-2.31-1.67,0-2.51,1-1.88,2.1m-57.35,1.26c0,2.31.63,2.93,1.26,1.26.63-1.47.42-3.35-.21-4-.63-.84-1.26.42-1,2.73m-12.77-.21c0,1.89,1,3.14,2.3,2.72a2.76,2.76,0,0,0,0-5.45c-1.26-.42-2.3.84-2.3,2.73m432.62-2.31c-1.47,3.35.21,5.45,4.19,5.45,1.47,0,2.72-1.89,2.72-4.19,0-4.82-5.23-5.66-6.91-1.26m-596.92-.63c-2.09,3.14.63,5.24,3.35,2.52,1.47-1.47,1.47-2.73.21-3.56a2.68,2.68,0,0,0-3.56,1m692.78-2.31c-.63,1-.21,2.1.84,2.1a2.29,2.29,0,0,0,2.3-2.1c0-1.26-.42-2.1-.84-2.1-.63,0-1.67.84-2.3,2.1m-574.11,3.77c4.55-1.52,4.52-7.94-1.95-5.19-1.35,3.47-.11,5.78,1.95,5.19m-50.44-1.89c-5.44,4.19-3.56,6.92,5.44,7.76,5.23.63,6.07-2.52,2.09-8-2.51-3.14-3.14-3.14-7.53.21m298.46-4.61c-2.09,1.89-1.67,9,.42,9,1,0,2.93-1.47,4.4-3.14,3.56-4.4-.84-10.06-4.81-5.87M16.29,146.1c-3.35,4.19-1.88,12.58,2.51,13.42,5,1,8.79-6.71,5.86-12.16-2.72-5-4.81-5.24-8.37-1.26m434.09,0c-2.3,9.64-.21,14.88,6.28,15.51,9.63,1.26,13.4-10.06,5.86-17-5.44-5-10.67-4.4-12.14,1.47M144,145.26c0,2.73,1,4.19,2.72,3.56a4.19,4.19,0,0,0,2.51-3.56,4.82,4.82,0,0,0-2.51-3.77c-1.67-.42-2.72,1-2.72,3.77m-55.46-2.1c-.84,1.26,1,2.1,4.19,2.1s5-.84,4.19-2.1c-.63-1.26-2.51-2.1-4.19-2.1s-3.56.84-4.19,2.1M65.69,143c-.63.84.63,3.35,2.93,5.45,4.19,3.77,5.23,2.31,2.93-4-1.47-3.77-4.19-4.4-5.86-1.47m584.78.21c0,2.73,1,4.19,2.72,3.56a4.19,4.19,0,0,0,2.51-3.56,4.82,4.82,0,0,0-2.51-3.77c-1.67-.42-2.72,1-2.72,3.77m-85.39-3.77c-3.14,3.14-3.14,5.87,0,5.87,1.26,0,1.67-.63,1-1.47-.84-.63-.42-2.52.84-4.19,2.93-3.35,1.47-3.56-1.88-.21m-30.35,1.89c-3.56,4-3.14,9.43.63,7.13.84-.63,2.72.42,4.19,2.1s3.35,2.52,4.4,1.89c3.14-1.89,2.09-8.38-1.88-11.95-3.56-3.14-4-3.14-7.33.84m-214.53-3.14c-3.14,3.35-1.67,7.13,2.93,7.13,1.67,0,2.93-2.1,2.93-5.24,0-5.87-1.88-6.5-5.86-1.89m23.65-3.35c-.84,1.26-.21,3.56,1,5.45,2.09,2.31,3.35,2.52,5.44.63,2.3-1.89,2.3-3.14.63-5.24-2.93-3.56-5.23-3.77-7.12-.84M190,136.67c0,5,2.3,6.71,5.86,4.61,3.35-2.1,1-8.59-2.93-8.59-1.67,0-2.93,1.89-2.93,4m182.3-2.73c0,2.31.63,2.93,1.26,1.26.63-1.47.42-3.35-.21-4-.63-.84-1.26.42-1,2.72M204,133.11c-3.77,1.89-3.77,2.31-.21,6.08,3.56,4,9.21,5.45,9.21,2.31a30.46,30.46,0,0,0-2.72-6.08c-2.09-3.56-3.35-4.19-6.28-2.31m-102.56,1.68c-.63,2.31-.42,4.61.63,5.24,2.3,1.47,6.91-4.61,5.23-7.34-2.09-3.35-4.6-2.52-5.86,2.1M45,132.06c-.84.63-1.46,4-1.46,7.34,0,4.61,1,5.87,4.19,5.87,3.56,0,4-.84,2.51-3.35a12.65,12.65,0,0,1-1-7.34c1-4-1.46-5.45-4.19-2.52m693.41-1.68c0,1,1.46,2.93,3.14,4.4,2.72,2.1,3.14,1.89,3.14-1.89,0-2.52-1.26-4.4-3.14-4.4-1.67,0-3.14.84-3.14,1.89M672.86,130c-4.6,4.4,0,13.21,6.91,13.21,3.77,0,6.7-8.38,4-11.74-2.51-3.14-8.58-4-10.88-1.47m-40.6-.21c-1.47,4,.42,5.87,4.6,4.4,4-1.68,4-4.82,0-6.5a3.64,3.64,0,0,0-4.6,2.1M33,129.54c-2.09,2.52-1.88,3.35,1,4.4,4,1.68,8.37-1.89,6.49-5.24-2.09-3.14-4.4-2.93-7.53.84m560.08.63c-2.72,5.45-2.72,6.5.21,9.43s3.56,2.93,7.53-.84c3.56-3.35,4-4.61,1.88-9.22-3.14-6.92-5.86-6.71-9.63.63m-411.48-2.93a6,6,0,0,0,1.67,4.19c2.72,1.68,7.33-2.31,5.86-4.82-2.09-3.35-7.53-2.93-7.53.63m256-1.68c-1.47,4,2.3,8.18,5.44,6.29a4.71,4.71,0,0,0-.84-8.39,3.64,3.64,0,0,0-4.6,2.1M482,122.84c-4,5-7.33,11.95-7.33,14.67,0,3.14,8.58,7.76,14.65,7.76,2.09,0,4.6.84,5.23,2.1,2.3,3.56,5.23,2.31,5.23-2.31,0-3.14-1-4-3.14-3.14-2.51.84-3.14-.63-3.14-6.08,0-4-1.67-9.22-3.56-11.53-4.19-4.82-5-5-8-1.47m-190-1.26c-.63,1-.42,3.14.63,4.61,2.09,3.56,9,1.26,8-2.52-1.26-3.14-7.12-4.61-8.58-2.1m171-2.1c.47,8.73,9.43,7.9,7.17-2.8-4.88-1.84-7.46-.13-7.17,2.8m283.81-5.66a2.1,2.1,0,0,0-2.09,2.1,2.25,2.25,0,0,0,2.09,2.1m-496-2.73c0,4.4,5.86,9.64,9.21,8.38,5.65-2.1,3.14-8.8-3.56-9.43-3.14-.42-5.65.21-5.65,1m463.6-1.47c-1.47,2.52.42,6.29,3.35,6.29,2.51,0,2.51-5.66,0-7.34a2.54,2.54,0,0,0-3.35,1M378.8,115.29c.42,2.1,2.09,3.77,3.77,3.77s3.35-1.68,3.77-3.77c.42-2.52-.63-3.56-3.77-3.56s-4.19,1-3.77,3.56M301.36,114a2.81,2.81,0,0,0,5.44,0c.42-1.26-.84-2.31-2.72-2.31s-3.14,1-2.72,2.31m-140.86-.84a8,8,0,0,0,0,3.14c0,1-1.67,1.68-4,1.68-2.72,0-4.6,1.89-5.44,5.45-1.47,6.08,1.46,9.22,9.21,9.22,2.51,0,4.6.84,4.6,2.1,0,1,1.46,2.1,3.14,2.1,4.81,0,3.77-2.93-3.35-8.18-6.07-4.4-6.28-5-3.14-9.64,2.09-3.14,2.51-5.45,1.26-6.29-1.26-.63-2.3-.63-2.3.42m-36,0c-3.65,3.4-.15,9.08,6.06,6.06,3-6.21-2.66-9.72-6.06-6.06m-32.86,1.68c0,3.14,5.44,6.71,7.53,4.82.42-.63.42-2.72-.42-4.61-1.67-4.19-7.12-4.4-7.12-.21m449.78-3.77c-1.47,10.48,2.93,15.3,13.6,14.67,6.7-.42,8.79-1.47,9.21-4.61a12.1,12.1,0,0,0-1.47-6.92c-1.88-3.14-20.93-5.87-21.35-3.14M312.24,113a23.93,23.93,0,0,1,1.26,6.29c0,3.56,4.4,4,7.74.63,3.77-3.77.63-10.27-5-10.27-4,0-5,.84-4,3.35m-124.32-1.26a2.25,2.25,0,0,0,2.09,2.1,2.1,2.1,0,0,0,2.09-2.1,2,2,0,0,0-2.09-2.1,2.1,2.1,0,0,0-2.09,2.1m172.46-1.47a20.63,20.63,0,0,0-.42,8.17c.42,3.56,1.88,4.82,5.86,4.82,4.4,0,5.44-1,5.86-6.92.42-3.56-.21-6.71-1.47-6.71a22.88,22.88,0,0,1-5.23-1.26,3.38,3.38,0,0,0-4.6,1.89m-4.81.63c0,2.31.63,2.93,1.26,1.26.63-1.47.42-3.35-.21-4-.63-.84-1.26.42-1,2.73m-248.86,3.56c-3.35,9,.42,11.95,4.6,3.35,4-8.18,4-7.55.63-8.8-1.67-.63-3.77,1.47-5.23,5.45m184.6-6.71c-2.09,3.56,2.72,7.55,5.65,4.61,2.51-2.52.84-6.92-2.3-6.92a5,5,0,0,0-3.35,2.31m-208,1.68c0,2.52,1.26,4.4,3.35,4.4,1.88,0,2.93-1.47,2.51-3.56-1-5.24-5.86-5.87-5.86-.84m598.6-.63c-2.72,6.92-2.72,6.71,2.09,9.22,3.14,1.68,4.4,1.26,6.28-1.89,2.51-4.82,1-9.85-3.35-11.53-1.88-.84-3.77.84-5,4.19M14.62,105.86c-4.19,4.19-2.93,9.43,2.3,10.48,6.07,1.26,9.84-2.73,8.37-8.59-1.26-4.82-6.7-5.87-10.67-1.89m600.27-1.47c-3.14,3.77-.42,19.07,2.72,15.93a9.8,9.8,0,0,1,6.07-2.31c2.09,0,4.6-2.1,5.65-4.82,2.09-5.45.84-8-1.88-3.56-1.88,2.73-2.09,2.73-2.09,0,0-1.68-1.88-4.4-4-5.66-3.14-2.1-4.6-1.89-6.49.42m-119.3.42c0,5.45,3.35,9.85,6.07,8.17,3.56-2.31,2.72-7.13-1.88-9.64-3.56-1.89-4.19-1.68-4.19,1.47m150.28-3.14c-4,7.55-3.14,15.09,1.67,15.93,2.09.42,5.65,2.93,7.53,5.24,3.56,4.61,3.77,4.4,3.77-5.87,0-10.06-4.19-19.91-8.37-19.91-1,0-3.14,2.1-4.6,4.61M319.15,99.78c-.63,1.47-.21,4.19.63,5.87,1.46,2.31,2.09,2.1,3.35-.84.84-2.1.42-4.82-.63-5.87-1.47-1.47-2.51-1.26-3.35.84m357.06-2.31a4.05,4.05,0,0,0,3.56,2.73,4.6,4.6,0,0,0,3.77-2.73c.42-1.47-1-2.52-3.77-2.52s-4.19,1-3.56,2.52m-335.93.42c-2.09,1.47-3.77,3.77-3.77,5.24,0,1.26-1.47,2.31-3.14,2.31s-3.14.84-3.14,1.89,1.47,2.93,3.14,4.4a10.08,10.08,0,0,1,3.14,6.5c0,4.61,6.07,5.45,6.7.84a51.66,51.66,0,0,1,.42-5.87,7.38,7.38,0,0,1,2.09-4c1.26-.84,1.26-3.77,0-7.76-1.67-5.45-2.3-5.87-5.44-3.56M120.94,99.15c0,4.82,5.23,5.66,6.91,1.26,1.46-3.35-.21-5.45-4.19-5.45-1.47,0-2.72,1.89-2.72,4.19m147.56-4.4a2.55,2.55,0,0,0,1,3.35c1,.63,2.09-.21,2.09-1.89,0-3.77-1.26-4.4-3.14-1.47M96.45,96c-.63,1.89-.63,4,.21,4.61,1.67,1.89,7.74-3.77,6.28-5.87-1.67-2.93-5-2.31-6.49,1.26M731,93.91c-.63,1.68-1.46,4.4-1.88,6.08-1.47,4.61,2.93,7.76,7.53,5.24s5-11.53.42-13.21-5-1.68-6.07,1.89M595.21,92.44a2.69,2.69,0,0,0,1,3.56c3.14,2.1,5.23-.63,2.51-3.35-1.47-1.47-2.72-1.47-3.56-.21m-465.9.42a2.25,2.25,0,0,0,2.09,2.1,2.1,2.1,0,0,0,2.09-2.1,2,2,0,0,0-2.09-2.1,2.1,2.1,0,0,0-2.09,2.1M358.7,90.14c-2.3,2.31-1.26,4.82,1.88,4.82,1.67,0,3.14-.84,3.14-1.89,0-2.72-3.35-4.61-5-2.93M213.45,91a2.81,2.81,0,0,0,5.44,0c.42-1.26-.84-2.31-2.72-2.31s-3.14,1-2.72,2.31m-65.3,3.77c0,3.35-1.26,6.5-3.14,7.34-3.56,1.26-4.19,5.45-1,5.45,1.26,0,3.35-1,4.81-2.1,1.46-1.26,4.19-3.35,6.07-4.82,4.81-3.35,2.72-11.95-2.72-11.95-2.93,0-4,1.47-4,6.08m187.53-6.5a2.69,2.69,0,0,0,1,3.56c3.14,2.1,5.23-.63,2.51-3.35-1.47-1.47-2.72-1.47-3.56-.21m240.69,2.52c-.84,5-2.3,6.29-6.49,6.29-3.35,0-5.23,1.26-5.23,3.35s1.26,2.93,2.93,2.31,3.35-.42,3.77.63,3.14,2.52,6.49,3.14c5.23,1.47,5.65,1,5.65-4.82,0-3.56-1-7.13-2.3-7.76a3.74,3.74,0,0,1-1-4.4,3.69,3.69,0,0,0-.63-4c-1-.42-2.3,1.89-3.14,5.24m-31.81-4a4.39,4.39,0,0,0,1,4.61c1.88,1.89,2.93,1.68,4.4-.63,1.88-3.14.84-6.29-2.09-6.29a5,5,0,0,0-3.35,2.31m-90,.84a6.46,6.46,0,0,0,.21,5.24c2.3,3.77,5.23,2.31,5.23-3.14,0-5.66-3.56-7.13-5.44-2.1m-64.67-1c-1.67,2.93.63,6.29,4.4,6.29,3.35,0,3.35-.42,1.67-5-1.47-3.77-4.19-4.4-6.07-1.26m-199.46.21c-4.81,1.89-5.86,8.18-1.46,9.64,3.77,1.26,9-4.4,7.53-8-.84-2.73-2.51-2.93-6.07-1.68m509.23-2.31c.63,1,1.67,2.1,2.3,2.1.42,0,.84-1,.84-2.1a2.15,2.15,0,0,0-2.3-2.1c-1,0-1.47.84-.84,2.1M372.66,88c6.47,2.75,6.5-3.67,1.95-5.19-2.06-.59-3.29,1.72-1.95,5.19M252.8,84.27a4.5,4.5,0,0,0,2.09,3.35c1.26.63,2.09-.21,2.09-1.89,0-1.89-.84-3.35-2.09-3.35a2.07,2.07,0,0,0-2.09,1.89M730,82.38a2.25,2.25,0,0,0,2.09,2.1,2.1,2.1,0,0,0,2.09-2.1,2,2,0,0,0-2.09-2.1,2.1,2.1,0,0,0-2.09,2.1m-325.46-.21c-1.47,2.51,2.51,5,5.23,3.35,2.3-1.47.84-5.24-2.09-5.24a4.61,4.61,0,0,0-3.14,1.89m-123.07.63c-1.67,5.45,1,10.06,6.07,10.06,4.19,0,5-1,5-6.29s-.84-6.29-5-6.29c-2.72,0-5.44,1.26-6.07,2.52m136.88-1.68c-3.14,3.77-5.44,23.48-3.14,24.73,1,.63,5.44.63,9.84.21,6.07-.84,8-2.1,9-6.08,1.67-6.71-.63-15.51-4.19-15.51-1.67,0-3.35-1.47-4.19-3.14-1.46-4-4.19-4-7.33-.21m-261,2.1c2.28-5.59,1.49-5-4.62-5-1.8,6.88,2.88,9.49,4.62,5m504.83-3.77c-2.09,5.45-1.46,7.13,2.72,7.13s7.33-5.24,5.23-8.59c-1.88-2.93-6.49-2.1-8,1.47m-56.72-1.26a4.49,4.49,0,0,0,3.35,2.1,2.07,2.07,0,0,0,1.88-2.1c0-1.26-1.47-2.1-3.35-2.1-1.67,0-2.51.84-1.88,2.1m-102.14-.63c-2.72,2.52-1.47,4.82,2.72,4.82,2.3,0,4.19-1.47,4.19-3.14,0-3.14-4.39-4.4-6.91-1.68m-141.7,1.89c0,1.68,1,2.52,2.09,1.89A4,4,0,0,0,365.82,78a1.93,1.93,0,0,0-2.09-1.89c-1,0-2.09,1.47-2.09,3.35m-158-1c-.84,1.26.21,3.56,2.3,5,7.12,5.45,9.42,3.14,4.19-3.77-3.14-4.19-4.6-4.4-6.49-1.26M684,75.88A4.5,4.5,0,0,0,686,79.24c1.26.63,2.09-.21,2.09-1.89,0-1.89-.84-3.35-2.09-3.35A2.07,2.07,0,0,0,684,75.88m-56.51.21a2.07,2.07,0,0,0,1.88,2.1,4.49,4.49,0,0,0,3.35-2.1c.63-1.26-.21-2.1-1.88-2.1-1.88,0-3.35.84-3.35,2.1M521.54,77.77c-2.3,1.89-5.23,6.29-6.7,9.43-2.72,6.5-.42,8.59,8.37,7.34,4.19-.63,4.81-1.89,5.44-10.69.63-10.69-.42-11.74-7.12-6.08M465,77.14c-1.88,4.61,2.72,9.22,7.53,8s5.44-4.82,1.67-8.59c-3.56-3.56-7.74-3.14-9.21.63m-333.62,1c0,4.82,5.23,5.66,6.91,1.26,1.46-3.35-.21-5.45-4.19-5.45-1.47,0-2.72,1.89-2.72,4.19m589-4a4.39,4.39,0,0,0,1,4.61c1.67,1.68,2.3,1,2.3-2.31,0-5-1-5.87-3.35-2.31m-161.16,0a4.39,4.39,0,0,0,1,4.61c1.88,1.89,2.93,1.68,4.4-.63,1.88-3.14.84-6.29-2.09-6.29a5,5,0,0,0-3.35,2.31m-467.16.42c-2.09,2.31-1.88,3.56.42,5.45,3.77,3.14,6.49-.42,3.77-5.24-1.46-2.73-2.09-2.73-4.19-.21m-44,1.89C46.64,79.24,45.38,86.57,45,92.86c-.42,11.53-.42,11.53,5.86,11.53,5.86,0,6.28-.63,7.74-10.48,2.3-15.72-5-27.88-10.47-17.4m541.67-4c0,4,2.09,5.66,5.44,4.19,4.4-1.68,3.56-6.92-1.26-6.92-2.3,0-4.19,1.26-4.19,2.72m-414.41.21c0,1.89,1,3.35,2.09,3.35a1.93,1.93,0,0,0,2.09-1.89,4,4,0,0,0-2.09-3.35c-1-.63-2.09.21-2.09,1.89M605.89,69c-2.72,2.73-1.46,5,2.93,5,2.3,0,4-1,3.56-2.52-1-2.93-4.61-4.4-6.49-2.52M310.77,72.32c-1.47,5.45-.21,8,4,8,1.88,0,2.93-2.31,2.93-6.29,0-7.34-5.23-8.59-6.91-1.68M83.27,70.85c0,1.68,1,3.14,2.09,3.14,1.26,0,2.09-1.47,2.09-3.14s-.84-3.14-2.09-3.14c-1,0-2.09,1.47-2.09,3.14m48.14-3.14a2.29,2.29,0,0,0,2.3,2.1c1,0,1.47-1,.84-2.1-.63-1.26-1.67-2.1-2.3-2.1-.42,0-.84.84-.84,2.1m590.22-4.19a2.25,2.25,0,0,0,2.09,2.1,2.1,2.1,0,0,0,2.09-2.1,2,2,0,0,0-2.09-2.1,2.1,2.1,0,0,0-2.09,2.1m-460.46,2.1c0,7.34,3.56,8.38,6.07,1.47,2.09-5.45,1.26-7.76-3.14-7.76-1.88,0-2.93,2.31-2.93,6.29m-19.46-5c-1.67,1.68.63,7.13,2.93,7.13s2.51-5.66,0-7.13a2.51,2.51,0,0,0-2.93,0m-59,.63a2.55,2.55,0,0,0,1,3.35c1,.63,2.09-.21,2.09-1.89,0-3.77-1.26-4.4-3.14-1.47m-23-1.89c-1.67,2.93,2.72,10.48,6.28,10.48,4.4,0,5.65-3.56,2.72-8.38-2.93-4.4-6.91-5.45-9-2.1M670.77,56.6c-3.09,2.84-1.11,6,4.38,4.39,1.6-5.5-1.55-7.48-4.38-4.39m-545.64.63a2.25,2.25,0,0,0,2.09,2.1,2.1,2.1,0,0,0,2.09-2.1,2,2,0,0,0-2.09-2.1,2.1,2.1,0,0,0-2.09,2.1m597.76-1c.84,1.68,2.09,2.52,3.14,1.89,2.93-1.68,2.09-5-1.26-5-1.88,0-2.51,1.26-1.88,3.14M564.65,59.53c0,6.92,5.44,10.69,8.58,5.87,2.93-4.82,2.09-6.92-3.35-9.64-5-2.1-5.23-1.89-5.23,3.77M408.52,55.34c-2.09,3.56,2.72,7.55,5.65,4.61,2.51-2.52.84-6.92-2.3-6.92a5,5,0,0,0-3.35,2.31m-182.3,4c.42,5,1.67,7.55,4.19,8,4.81,1,4.39-3.56-.63-10.06L225.59,52Zm-167-4.4c-1.46,2.52,2.51,5,5.23,3.35,2.3-1.47.84-5.24-2.09-5.24a4.61,4.61,0,0,0-3.14,1.89M545,52.61a2.69,2.69,0,0,0,1,3.56c3.14,2.1,5.23-.63,2.51-3.35-1.47-1.47-2.72-1.47-3.56-.21M432.8,53a2.29,2.29,0,0,0,2.3,2.1c1,0,1.47-1,.84-2.1-.63-1.26-1.67-2.1-2.3-2.1-.42,0-.84.84-.84,2.1m-188.37,1c0,1.89,1,3.14,2.3,2.73a3.35,3.35,0,0,0,2.3-2.73,3.35,3.35,0,0,0-2.3-2.73c-1.26-.42-2.3.84-2.3,2.73m355.81-2.31c0,1.89,1,3.35,2.09,3.35a1.93,1.93,0,0,0,2.09-1.89,4,4,0,0,0-2.09-3.35c-1-.63-2.09.21-2.09,1.89m-73.25-1c0,2.1,6.28,5,7.74,3.56.63-.63.42-1.89-.42-3.14C532.63,48.42,527,48,527,50.73m-148.6,1a3.27,3.27,0,0,1-3.14,3.35c-4.81,0-3.77,3.77,1.47,5.45a22,22,0,0,1,7.54,4.19,8.79,8.79,0,0,0,5.65,2.93c3.77,0,5.65-5.66,2.09-7.13-1.46-.42-3.14-3.14-3.56-5.87-.84-5.66-10-8.38-10-2.93m-19.67.42c-1.88,4.82-1.67,5,2.93,5,2.3,0,4.19-1.26,4.19-2.93,0-4.19-5.65-5.87-7.12-2.1m355.6-3.35c.63,1,1.67,2.1,2.3,2.1.42,0,.84-1,.84-2.1a2.15,2.15,0,0,0-2.3-2.1c-1,0-1.47.84-.84,2.1m-29.09-2.73c-1.67,1.68-1.67,10.06,0,11.74,2.09,2.1,7.12-.84,7.12-4.19,0-3.77-5.23-9.22-7.12-7.55M437,46.74a2.25,2.25,0,0,0,2.09,2.1,2.1,2.1,0,0,0,2.09-2.1,2,2,0,0,0-2.09-2.1,2.1,2.1,0,0,0-2.09,2.1m-109.67-.84c-5.23,5.24-4.19,9.85,1.88,8.8,4.19-.84,5.44,0,7.33,5.24,1.67,5.24,2.72,5.87,4.81,3.77,1.88-2.1,1.67-3.14-1.26-5.45a8.43,8.43,0,0,1-3.35-6.71c.84-4.19-1.46-9-4.39-9-1,0-3.35,1.47-5,3.35M183.73,44.65a2.25,2.25,0,0,0,2.09,2.1,2.1,2.1,0,0,0,2.09-2.1,2,2,0,0,0-2.09-2.1,2.1,2.1,0,0,0-2.09,2.1m483.48-2.1c-1.67,1-2.3,2.52-1.67,3.35.84.63,2.93-.21,4.81-2.1,3.77-3.56,1.88-4.4-3.14-1.26m-430.95-.63a3.4,3.4,0,0,1-3.35,2.72c-4,0-4,2.31-.21,7.55,3.14,4,3.14,4,6.28-.21,1.67-2.31,2.3-4.61,1.46-5.24a9.35,9.35,0,0,1-2.93-4.19c-.63-1.89-1.26-2.1-1.26-.63m-140.44,0A1.94,1.94,0,0,1,93.31,44c-2.93-.42-6.07,14.88-3.56,16.56,2.51,1.47,9.63-2.52,10.88-6.29.84-1.89,0-5.87-1.67-9s-3.14-4.61-3.14-3.35M371.26,40c-.42.84-.21,2.93.84,4.61,1.47,2.31,2.51,2.52,4.4.63a4.39,4.39,0,0,0,1-4.61c-1.67-2.72-4.81-2.93-6.28-.63M104.82,41.71c-1.67,4.4,2.72,8.8,5.86,5.66,2.72-2.73,1-9-2.3-9-1.26,0-2.72,1.47-3.56,3.35M213,39.41c-3.35,4-1,9.85,3.56,9,4.81-.84,6.49-12.16,2.09-12.16-1.67,0-4.19,1.47-5.65,3.14m-52.32-1c0,1.26,1.46,2.73,3.14,3.35,1.67.84,3.14,2.52,3.14,4,0,3.35,5.65,5.87,7.33,3.14.63-1-.63-3.14-3.14-4.61C168.87,42.76,167,40.46,167,39a3,3,0,0,0-3.14-2.73c-1.67,0-3.14,1-3.14,2.1m-32.65.84c-2.09,5.66.21,12.79,4.4,13.63a11.08,11.08,0,0,1,6.49,4c1.26,1.68,2.93,2.31,3.56,1,1.88-2.93-2.09-17.82-5.23-19.7-4.19-2.73-8-2.31-9.21,1m336.34.42c-2.3,2.73-5.23,5-6.28,5-3.35,0-4.81,8.38-2.3,11.53,3.56,4.4,8,4,9.42-1,1-3.35,2.51-4,8.79-2.93,6.91,1,7.12.84,5.86-3.56-.84-2.52-3.77-6.71-6.28-9.43l-4.81-4.82ZM197.75,36.89a7.37,7.37,0,0,0,.84,5.87c2.3,4,7.12-.63,5.44-5.24-1.67-4.19-4.81-4.4-6.28-.63m427.18-3.35c-5,1.26-6.49,10.27-2.51,16.35,2.51,3.77,5,5,10.26,4.82,6.49-.21,6.91-.84,8-8.8.63-4.82.63-9.22-.21-10.06-2.09-2.1-11.3-3.56-15.49-2.31m-223,2c6.47,2.75,6.5-3.67,1.95-5.19-2.06-.59-3.29,1.72-1.95,5.19M223.5,31.23c0,1.68,1,2.52,2.09,1.89a4,4,0,0,0,2.09-3.35,1.93,1.93,0,0,0-2.09-1.89c-1,0-2.09,1.47-2.09,3.35m421.32-4c-4.4,1.47-3.14,6.92,1.47,6.92,2.3,0,4.19-.63,4.19-1.68,0-3.14-3.14-6.08-5.65-5.24m-61.32,1.68c-1.47,1.89-2.09,3.77-1.47,4.4,1.88,1.89,10-3.35,8.79-5.66-1.88-2.73-4.4-2.31-7.33,1.26m127-3.77c-2.72,2.52-1.47,6.92,1.67,6.92,1.67,0,3.14-1.89,3.14-4.19,0-4.19-2.3-5.45-4.81-2.72m-156.35,2.1c-5.65,4-6.28,10.06-1.26,16.35,4.6,5.66,11.72,5.66,11.72-.21,0-1.68.84-2.93,1.88-2.93,2.72,0,4-6.92,2.09-11.95s-8.16-5.66-14.44-1.26M498.1,28.93c-5.23,11.32-2.09,17.61,8,16.14,6.28-.84,7.53-3.35,6.28-14-.84-8.59-10.67-10.06-14.23-2.1M346.15,27c-2.09,5.24-1.67,5.87,5.23,9,4.81,2.1,7.12,2.1,8.79.42,3.77-3.77-1.67-8-5.86-4.4-2.72,2.1-3.14,1.89-3.14-1.68,0-5.45-3.35-7.76-5-3.35M182.68,25.78c-1.47,2.52.42,6.29,3.35,6.29,1,0,1.88-1.89,1.88-4.19,0-4.4-3.14-5.66-5.23-2.1M78,25.57c-.84,1.47-3.35,2.1-5.65,1.68-2.3-.63-3.56-.63-2.93,0,.63.84.21,2.52-1,4-2.72,3.35-.84,7.13,3.56,7.13,1.67,0,2.93-2.1,2.93-4.82.21-4.19.42-4.19,2.3-1,2.51,4.4,8.16,5,8.16,1,0-1.47-1.26-4.4-2.72-6.71-2.3-2.73-3.35-3.14-4.6-1.26m659.5-2.1c-1.88,2.93,1,8.8,3.77,8,3.77-1.26,4.19-9.85.42-9.85a5.3,5.3,0,0,0-4.19,1.89m-343.46,0a2.55,2.55,0,0,0,1,3.35c1,.63,2.09-.21,2.09-1.89,0-3.77-1.26-4.4-3.14-1.47m96.7-1c-1.26,3.14.21,5.45,3.14,5.45,2.3,0,2.09-5.66-.21-7.13-1-.63-2.3,0-2.93,1.68m-72.42.63a20.74,20.74,0,0,1-1.26,7.76c-2.72,6.08,1.67,10.69,10,10.9,9.84.21,11.72-4.4,4.6-10.9-2.93-2.73-6.28-5-7.53-5-1,0-1.88-1.47-1.88-3.14s-1-3.14-2.3-3.14c-1,0-1.88,1.68-1.67,3.56m-118-2.1c-2.09.63-3.35,2.1-2.93,3.35.42,1.47-1,5.24-3.14,8.38-3.35,4.61-3.56,6.5-1.67,8.8,3.35,4.19,7.74,4,10.26-.42,1.26-2.31,4.6-3.56,9.42-3.56,7.33,0,9.63-1.89,5.44-4.4-1.26-.84-1.67-3.14-1-5,.84-2.52-.63-4.4-4.19-6.08-5.65-2.52-6.07-2.72-12.14-1M210.94,26.2c0,6.29.21,6.5,3.35,3.35,1.88-1.89,2.93-5,2.3-6.71-2.3-5.66-5.65-3.56-5.65,3.35m471.34-6.5a2.81,2.81,0,0,0,5.44,0c.42-1.26-.84-2.31-2.72-2.31s-3.14,1-2.72,2.31M106.5,16.14c-3.35,4-2.09,10.69,1.67,10.69,1.67,0,4-1.68,5.23-3.56,1.67-2.93,1.46-4.4-1-6.92-2.93-2.93-3.56-2.93-5.86-.21m-42.07,0a6,6,0,0,0,1.67,4.19C68.82,22,73.43,18,72,15.51c-2.09-3.35-7.53-2.93-7.53.63m-24.7-.42C37,17.19,35.34,19.28,36,21c.63,1.47,0,2.73-1.26,2.73-1.47,0-1.67,2.93-.84,8.38.84,5.24.42,8.38-.84,8.38-1,0-2.09,1.89-2.09,4.4,0,5.45,4.6,4.19,7.33-2.1,1.26-2.93,3.35-4.19,5.86-3.56s3.56-.42,3.56-3.35c0-2.1.84-3.56,1.88-2.93,1,.84,2.3,0,2.93-1.26,1-3.77-.63-10.06-2.93-10.06-1,0-1.88-1.89-1.88-4.19,0-4.61-1-4.82-8-1.68m392-2.52a3.86,3.86,0,0,0,.63,4.61c2.72,2.73,4.81-.84,2.72-4.4-1.47-2.1-2.09-2.1-3.35-.21m-42.91,1c0,1.89,1,3.14,2.3,2.73a3.35,3.35,0,0,0,2.3-2.73,3.35,3.35,0,0,0-2.3-2.72c-1.26-.42-2.3.84-2.3,2.72m-11.93-1.47c-3.14,1.89-1,13,2.93,14.46,5.23,2.1,7.12-2.1,4.4-9.43-2.72-7.13-3.35-7.55-7.33-5M652.56,9c-.84,0-2.09,1.47-2.72,3.14-1.67,4,2.72,6.5,4.81,2.93,1.88-2.93.84-6.08-2.09-6.08M346.15,12.37c-1.88,5,.63,7.34,5.23,4.82,3.35-1.68,3.77-2.73,1.67-5.24-3.14-3.77-5.23-3.77-6.91.42m-13-1c-1,1.89,4.4,12.37,6.49,12.37.63,0,1-2.73,1-6.08,0-6.08-5-10.27-7.53-6.29M288.38,9c-1,0-2.09,1.47-2.09,3.35,0,1.68,1,2.52,2.09,1.89a4,4,0,0,0,2.09-3.35A1.93,1.93,0,0,0,288.38,9M132.24,11.32c-1.88,3.35,2.51,6.92,6.49,5.24,2.93-1,3.14-1.89,1-4.4-3.14-3.77-5.44-4-7.53-.84M577.63,9.43c-3.35,3.35-3.14,5.87.63,5.87,1.67,0,3.14-1.89,3.14-4.19,0-4.82-.42-5-3.77-1.68M53.34,8.17c-2.72,2.73-1.46,5,2.93,5,2.3,0,4-1,3.56-2.52-1-2.93-4.6-4.4-6.49-2.52M36.17,9C33.66,6.92,33,6.92,33,9.64A5.61,5.61,0,0,0,36.17,14c1.67.63,3.14.42,3.14-.63S37.85,10.48,36.17,9M543.31,6.71c-4.81-3.14-5.86-2.1-5.86,5.66,0,5.87.63,7.34,3.77,6.71,4.4-.84,6.07-9.85,2.09-12.37M84.52,6.5a2.69,2.69,0,0,0,1,3.56c3.14,2.1,5.23-.63,2.51-3.35M309.73,9c-1.26,3.35-1.47,6.29-.42,6.29a25.69,25.69,0,0,1,5.23,1.26c2.93,1.26,3.35.21,2.72-5.45-.84-9.22-4.81-10.27-7.54-2.1M610.91,4.82c-3.14,0-4.19,11.11-1.88,20.33,1.26,5,2.93,8.38,4,7.76s1.88-.21,1.88.84c0,3.77,10-2.52,13.4-8.17,3.56-5.87,4.6-14.46,1.67-14.46-.84,0-2.51-2.1-3.56-4.82M413.12,0c-2.51,2.72-1.26,11.11,1.88,11.11,1.88,0,3.14-1.89,3.14-5m-150.49.84c1.47,0,3.77,1.68,5.23,3.56,2.72,3.56,2.72,3.56,2.93-.21,0-3.14.63-3.35,2.93-1.47M149.82,4.19c4.6,1,5.65,4.82,4.81,14.67-.21,3.14.84,4.82,2.93,4.82,1.67,0,3.14-1.89,3.14-4s1.46-4.61,3.35-5.24c5-1.89,2.93-10.48-2.93-11.32"
      />
        <path class="cls-1" 
          d="M229.87,352.45a2.25,2.25,0,0,0,2.09,2.1,2.1,2.1,0,0,0,2.09-2.1,2,2,0,0,0-2.09-2.1,2.1,2.1,0,0,0-2.09,2.1M278,350.57c0,1,1,1.47,2.09.84,1.26-.63,2.09-1.68,2.09-2.31,0-.42-.84-.84-2.09-.84a2.3,2.3,0,0,0-2.09,2.31m-68.67,1.26c.42,2.1,2.09,3.77,3.77,3.77s3.35-1.68,3.77-3.77c.42-2.52-.63-3.56-3.77-3.56s-4.19,1-3.77,3.56m486.11-2.1a45.53,45.53,0,0,1-3.14,7.34c-2.51,4.82-2.51,5,1.67,9a15.59,15.59,0,0,1,3.77,8c.42,5.66,5.23,7.34,5.23,1.89,0-2.31,1.88-5.45,4.4-6.92,3.56-2.52,4.19-4.19,2.93-10.9-1-5.66-2.51-7.76-5.44-7.76-2.3,0-4-1-4-2.1,0-3.56-4.19-2.31-5.44,1.47M81.65,351c.63,5,4.4,5.66,5.44.84.42-1.68-.84-3.56-2.72-4.4-2.72-.84-3.35-.21-2.72,3.56m376-5.45c-2.09.42-3.77,1.89-3.77,3.14s.63,1.68,1.47,1c.63-.84,2.51-.42,4,.84,3.35,2.73,7.12.84,7.12-3.56,0-2.94-2.09-3.35-8.79-1.47m288.06-3.15c-2.09-.63-3.14.21-2.51,2.1,1,3.15,5.86,3.77,6.07.63m-574.46-1.68c-1.67,1.47-2.09,15.31-.42,15.31,3.35,0,11.51-5.24,11.51-7.55,0-7.55-6.7-12.37-11.1-7.76m-21.35,4.82c-2.3,3.35-5.65,6.29-7.75,6.29-2.51,0-3.14,1.26-2.09,4.61,1,4,1.47,4.19,2.09,1,.84-4.4,5.23-4.61,8.58-.63,1.88,2.31,1.88,3.14,0,3.77-1.67.63-2.09,2.31-1.26,4.61,1.47,3.56,2.09,3.35,6.7-1.89,7.12-8.6,8.16-14.89,3.14-19.92a37.68,37.68,0,0,0-4.61-4.19c-.42,0-2.51,2.94-4.82,6.29m398.18-6.92c-.84.63-1.47,4-1.47,7.13,0,5.45,4.61,9.44,8.58,6.92,3.14-1.89,2.09-12.79-1.47-14.26-4-1.47-4-1.47-5.65.21m-183.18,2.73c0,2.94.42,4,1,2.52a11.08,11.08,0,0,0,0-5.24c-.63-1.26-1-.21-1,2.73m-51.29-2.73c-3.56,6.08-4.82,17-2.3,20.34,3.35,4.82,10.26,3.56,9.84-1.89-.42-11.74-5-22.64-7.54-18.45m-205.37-1c.84,1.26-.21,3.56-2.3,5-3.35,2.52-3.35,3.56-1,9.23,4.61,10.9,18.84,10.48,18.84-.84,0-5.66-5.86-14.26-8.58-12.79-1,.84-1.88.21-1.88-.84,0-1.26-1.47-2.31-3.35-2.31s-2.51,1-1.67,2.52m383.32-3.35c-.84.84-1.47,3.77-1.47,6.5,0,3.56,1.26,4.82,4.4,4.82,3.35,0,4.19-1,3.56-5.66-.63-5.45-3.77-8.18-6.49-5.66m-26,1.89c-.63,1.89-.63,3.77,0,4.4,1.88,1.89,5.65-1.26,5.65-4.61,0-4-4-3.77-5.65.21m-126.24-.21c0,5.24.84,6.5,3.77,6.29a2.3,2.3,0,0,1,2.51,2.52c0,1.68,1,2.94,2.09,2.94,3.56,0,2.3-3.77-3.14-9.64-4-4.19-5.23-4.82-5.23-2.1m-91.07-.84c-.84,2.31-2.51,3.56-4.4,2.73-2.09-.84-2.93.63-2.93,5.66,0,5.24.84,6.5,3.77,5.87,1.88-.42,3.77-2.94,4.19-5.45.42-2.73,2.09-5.45,3.77-6.08,3.77-1.47,3.77-4,0-5.45-1.88-.84-3.56.42-4.4,2.73m-39.57-1c.84,1.68,1.67,3.14,2.09,3.14s.84-1.47.84-3.14-.84-3.15-2.09-3.15c-1,0-1.47,1.47-.84,3.15M507.46,333c-1.88,1.89-1.47,6.92.63,6.92,2.51,0,4.61-5.87,2.51-7.13a2.51,2.51,0,0,0-3.14.21M3.14,342.6c7.33,1.47,9,.42,9-6.08,0-4.4-1-5-7.33-5m658.4.21c0,1.47-1.67,4-3.77,5.87-5.65,5-7.12,10.48-3.77,14,4.4,4.4,9,3.56,13-2.31,2.72-4.19,2.93-6.29.84-12.58-2.3-6.92-6.28-10.06-6.28-5m-244.94,2.94c-3.14,5.87-1.47,12,2.93,10.27,4.61-1.89,6.28-8.81,2.72-12.16-2.51-2.73-3.35-2.52-5.65,1.89M447,328.76c-2.72,2.52-1.47,4.82,2.72,4.82,2.3,0,4.19-1.47,4.19-3.14,0-3.14-4.4-4.4-6.91-1.68m149.68-1a8.31,8.31,0,0,0-2.51,4.82c0,3.56,7.33,9.64,9.21,8a8.43,8.43,0,0,1,5-1.68c2.09,0,3.77-1.89,4.19-4.82.63-3.35-.42-4.61-3.56-4.61-2.3,0-4.81-1-5.44-2.1-1.67-2.73-3.77-2.73-6.91.42m-280.95.63a7.36,7.36,0,0,0-1.26,6.5c1.26,3.15,1.88,2.94,5.44-1.26,3.77-4.4,4-8.39.21-8.39-1,0-2.93,1.47-4.4,3.15m-177.11,0c-1.47,3.77.63,7.34,4.61,7.34,3.14,0,3.56-1.89,1.67-7.13-1.67-4.19-4.82-4.4-6.28-.21m-131.89,1c1.88,0,3.35-1,3.35-2.1a1.94,1.94,0,0,0-1.88-2.1,4,4,0,0,0-3.35,2.1M614,325.2c-.63,1,.21,2.1,2.09,2.1s2.72-1,2.09-2.1c-.63-1.26-1.67-2.1-2.09-2.1s-1.47.84-2.09,2.1m-98-.63c-2.93,2.73-1.26,8.39,3.35,12.79,5.44,5,7.75,4.19,7.75-2.52-.21-7.76-7.33-14.26-11.1-10.27m-42.71,0c-4.19,1.68-3.14,4.82,1.47,4.82,2.3,0,4.19-1.47,4.19-3.14,0-3.15-1.26-3.56-5.65-1.68m-98,5.45c-2.51,5.87-2.3,7.13,1.88,12.16,4,4.82,4.81,5,8.79,2.52a14,14,0,0,0,5.44-8.6c.63-4.82-.42-6.29-6.28-9.23l-7.12-3.35ZM63.43,325.2a4.46,4.46,0,0,0-.21,4c.84,1,0,2.31-1.26,2.94-2.09.63-2.09,1.47.21,4.19,3.14,4,8.16,4.61,12.77,1.47,2.51-1.68,2.51-2.52.42-3.77-1.47-1-2.51-2.73-2.3-3.77.84-4.82-.63-7.13-4.19-7.13-2.3,0-4.81.84-5.44,2.1m344.17-3.77c-3.14,5.87,2.09,9.64,6.07,4.4,3.35-4.61,3.14-6.29-.63-7.76-1.88-.63-4,.63-5.44,3.36m-80.81-2.94c-1.67,1-1.88,2.73-.63,4.61,1.47,2.52,2.51,2.52,4.61.42,2.93-2.94-.21-7.34-4-5m-105.93-.21a5.06,5.06,0,0,0-1.47,3.56c0,1.26,1,1,2.51-.42,1.26-1.26,1.88-2.94,1.47-3.56a1.76,1.76,0,0,0-2.51.42m125.4-.42c-1.67,4.4.21,7.34,4.19,7.34,2.09,0,2.93-1.68,2.51-4.61-.84-5.66-4.82-7.13-6.7-2.73m-164.34,2.52c-2.72,6.08-.42,10.27,4.61,8.39,2.09-.84,2.72-2.94,2.09-6.5-1.47-7.76-3.77-8.39-6.7-1.89m26.17-4.4c-.63,1.68-2.09,2.73-3.14,2.1s-2.93.21-4.19,1.68c-1.67,1.89-1.67,3.35-.42,4.19a2.13,2.13,0,0,0,3.14-.63c.63-1,2.93-1.47,5-.84a7.62,7.62,0,0,0,6.7-2.52c2.51-2.94,2.51-3.77-.21-5.45-4.19-2.52-5.44-2.31-6.91,1.47m-82.9-2.52c0,.42,1.47,1.89,3.14,3.35,2.51,2.1,3.14,2.1,3.14-.84a3.27,3.27,0,0,0-3.14-3.35c-1.67,0-3.14.42-3.14.84M732.93,312c-3.35,1.26-3.56,6.92-.63,6.92,2.3,0,5.44-5.87,4-7.13-.42-.42-2.09-.21-3.35.21m-240.75.21c-1.26.84-3.56,4.19-4.82,7.55-2.93,7.76.21,10.27,12.14,9.64,2.51-.21-.63-18.87-3.35-18.87a11.57,11.57,0,0,0-4,1.68m20.52-.84c-2.3,2.73-2.3,4.19-.63,5.87,3.14,3.15,5,1,4.19-4.82-.63-4.4-.84-4.4-3.56-1m179.2-2.73c-1.88,1.26-3.14,2.94-2.51,4.19,1.88,2.94,4,2.31,6.91-2.31,2.72-4.61,1.47-5.24-4.4-1.89M263.78,312.2c4.56-1.52,4.52-7.94-1.95-5.19-1.35,3.47-.11,5.79,1.95,5.19M706.14,304c-.63,1.26.63,2.94,2.51,4.19,3.56,1.89,3.35,2.31-1.47,7.55-2.72,2.94-6.28,4.82-7.54,4.4-3.14-1.26-6.07,2.1-8,8.6-2.78,8.36,3.68,3.35,21.67,3.19-11.91-10.5-9-11.42-3.45-8,5.65,3.77,9,2.1,10.89-5.45,1.26-4.61.21-6.71-4.19-11.11-6.28-5.66-8.58-6.29-10.47-3.35m-129.8.21c-1.67,2.73.84,6.71,3.35,5.24,2.51-1.68,2.51-7.34,0-7.34a4,4,0,0,0-3.35,2.1M32.45,303.6c-.84.63-1.47,4.19-1.47,8,0,5.66.84,6.5,6.07,6.92,6.49.42,9.21-4.19,7.12-12.16-1-4-8.79-5.87-11.72-2.73m208.3-.21c-3.56,3.77-3.14,5.87,1.47,10.06,3.35,2.94,4.19,3.15,6.28.42,5.23-6.29-2.3-16.35-7.75-10.48m199.51-1.26c-3.77,4.19-3.77,4.19,2.93,4.19,5.23,0,6.7-.84,6.07-3.56-1-5.24-4.61-5.45-9-.63m247.24-4.61a2.69,2.69,0,0,0,1,3.56c3.14,2.1,5.23-.63,2.51-3.36-1.47-1.47-2.72-1.47-3.56-.21m-479.62.42c-2.09,3.56.84,13,3.77,12,3.14-1,3.35-12.37,0-13.42a3.5,3.5,0,0,0-3.77,1.47m-15.7.84c0,1.89,1,3.35,2.09,3.35a1.93,1.93,0,0,0,2.09-1.89,4,4,0,0,0-2.09-3.35c-1-.63-2.09.21-2.09,1.89m-102.58-1a4.5,4.5,0,0,0,2.09,3.36c1.26.63,2.09-.21,2.09-1.89,0-1.89-.84-3.35-2.09-3.35a2.07,2.07,0,0,0-2.09,1.89m-6.28,2.52c0,2.31,1,3.56,2.09,2.94,1.26-.63,2.09-2.73,2.09-4.4s-.84-2.94-2.09-2.94c-1,0-2.09,1.89-2.09,4.4m618.26-.77c3.46,1.35,5.78.11,5.19-2-1.52-4.56-7.93-4.53-5.19,2m-200.19-2.58c-1.67,3.77,2.3,6.5,5.23,3.56,2.3-2.31.63-6.71-2.51-6.71-.84,0-2.09,1.47-2.72,3.14m96.93-1.26c0,5.24,2.3,6.92,5.65,4.19,4-3.56,3.35-7.34-1.47-7.55-2.72-.21-4.19.84-4.19,3.35m-60.5-.63c-5,3.77-5.23,4.82-1.26,9.85,2.51,3.56,3.56,3.56,10.26,1.26,9.21-3.35,10-9,1.47-12-4.61-1.68-7.12-1.47-10.47.84m-60.5,4.4c-4.4,6.71-4.61,8-1.67,10.69,4.19,4.19,6.07,2.1,6.07-6.5,0-3.56.84-8,2.09-9.44,1-1.26,1.26-2.52.21-2.52-1,.21-4,3.56-6.7,7.76m-54.22-6.29c-4.19,1.47-3.14,7.76,1.47,10.69,3.56,2.1,4.4,2.1,5.44-.42,2.72-7.13-1-12.79-6.91-10.27m-71.81,2.31c0,3.77,1.26,6.71,3.35,7.55,4.4,1.68,4.4,1.68,5.44-6.08.42-5.24-.21-6.5-4-6.92-4-.63-4.82.21-4.82,5.45m-51.5-4.61c-3.56,1.47-.84,11.11,4,14.47,5,3.56,10.68,4.19,8.79,1a2.54,2.54,0,0,0-3.35-1c-1,.84-1.88.42-1.88-.84a4.9,4.9,0,0,1,2.09-3.35c2.93-1.89,2.51-4.4-1.26-8.18-3.35-3.35-4.4-3.77-8.37-2.1m414.72-1.26c-1.47,2.52.42,6.29,3.35,6.29,2.51,0,2.51-5.66,0-7.34a2.54,2.54,0,0,0-3.35,1m-537.82-.21c-.63,1,.21,2.94,1.67,4.19,3.35,2.73,6.7-.42,4.4-4-1.67-2.52-4.61-2.73-6.07-.21m-16.33.21c-3.56,2.1-3.14,9,1,14.26,3.56,4.61,9.84-2.73,8-9.44-1.67-6.5-4-7.55-9-4.82m79.13-2.73c-2.51,2.52-1,4.82,2.93,4.82,2.3,0,4.19-.84,4.19-1.89,0-2.31-5.44-4.61-7.12-2.94m-184.44.84c-.84,1.26-.84,2.73-.21,3.35,1.67,1.68,7.54-1,7.54-3.56,0-2.73-5.65-2.73-7.33.21m579.48-3.15a5.68,5.68,0,0,0,1,5.45c1.88,1.89,1.88,3.14,0,5.24-1.67,2.1-1.67,4.19,0,7.55a68.72,68.72,0,0,1,3.77,9.85c1.67,6.29,4.19,8.18,9.42,6.92,4.82-1.26,5.23-7.55.84-11.11-2.09-1.89-2.51-3.56-1.26-4.82,2.09-2.1,1.47-4.82-3.35-15.73-3.14-7.13-8.37-8.81-10.47-3.36m-73.48-2.1a5.81,5.81,0,0,0,4.61,4.61c2.72.63,3.56-.21,2.93-2.94a5.81,5.81,0,0,0-4.61-4.61c-2.72-.63-3.56.21-2.93,2.94m-246.61-1c-.63,1.26,0,3.14,1.47,4.19,4.61,2.94,6.07,2.31,6.07-2.31,0-4.4-5-5.66-7.54-1.89m-167.69,1a10.68,10.68,0,0,0-2.72,6.5c.21,4,4.61,11.11,7.12,11.11,1.67,0,1.47-12.58-.42-17-1.26-2.94-1.88-3.15-4-.63M464.34,278c0,1.47,1.67,4,3.77,5,2.93,1.89,3.14,2.52.63,4.19-1.67,1-2.3,3.35-1.47,5.66,1.26,3.36,1.88,3.15,6.91-1.68,5.65-5.66,5.44-13.63-.21-11.53a3.25,3.25,0,0,1-4.19-1.89c-1.47-3.77-5.44-3.77-5.44.21m-278.23-1c-2.93,1.68-1.47,6.29,1.88,6.29,2.3,0,4.4-5.87,2.51-7.13-1-.63-2.93-.21-4.4.84M3.77,291.65c4.61,0,6.7-8.6,3.14-13.42-3.35-4.4-3.77-4.19-6.91,1m709.69-3.56c.21,2.1,1.67,3.56,2.72,3.56,3.14-.21,2.51-5-.63-6.08-1.88-.63-2.72.42-2.09,2.52m-319-1.26c-2.09.42-3.77,1.89-3.77,3.56,0,1.47-1.47,3.35-3.35,4-4.19,1.68-1.88,5.45,3.56,5.45,2.09,0,4,1.26,4,2.73s1.26,4.61,2.93,6.71c2.51,3.35,3.77,3.56,8.16,1.68,4.4-2.1,5-3.56,4.61-12-.21-5.24-.84-10.27-1.47-10.9-1.67-1.47-10-2.31-14.65-1.26m-285.34.42c-1.67,2.73.84,6.71,3.35,5.24,2.51-1.68,2.51-7.34,0-7.34a4,4,0,0,0-3.35,2.1m428.12,1.26c0,2.94,1,5,2.3,4.61a2.86,2.86,0,0,0,2.09-2.31,28.27,28.27,0,0,1-.21-4.61c0-1.68-.84-3.14-2.09-3.14-1,0-2.09,2.52-2.09,5.45m-275.5-2.94c-1.47,2.1,4.19,8,8,8,3.14,0,1.67-8-1.67-9.23-4.4-1.68-4.61-1.68-6.28,1.26M725,270.47a2.59,2.59,0,0,0,1.26,3.35c1.26.84,1.67,3.56,1,6.29-1.26,5.24,4.61,9.44,7.12,5,1.88-2.94.21-10.27-2.3-10.27-1,0-1.88-1.47-1.88-3.14,0-3.56-3.35-4.19-5.23-1.26m-218.35.63a8.23,8.23,0,0,0-2.51,5,4.48,4.48,0,0,1-2.51,3.56c-4.4,1.47-.84,3.56,4,2.31,5.23-1.47,7.54-6.29,5.23-10.48-1.26-2.31-2.3-2.31-4.19-.42M93.79,268.58c0,2.31,1.47,4.19,3.14,4.19s3.14-1.89,3.14-4.19-1.47-4.19-3.14-4.19-3.14,1.89-3.14,4.19m-71.18-1.26c0,1.89,1,3.35,2.09,3.35a1.93,1.93,0,0,0,2.09-1.89,4,4,0,0,0-2.09-3.35c-1-.63-2.09.21-2.09,1.89m560-3.36c-2.93,2.1-2.51,12.37.63,15.52,3.77,3.77,12.14-5.66,8.79-9.85-2.09-2.52-2.09-3.15.21-3.15s2.3-.42-.21-2.1c-3.77-2.52-6.49-2.52-9.42-.42m-367.41,3.56c0,3.35,1.26,5.24,3.14,5.24s3.14-1.89,3.14-5.24-1.26-5.24-3.14-5.24-3.14,1.89-3.14,5.24m86.25-3.77c1.27,6.6,11.12,6.13,6.92-3.26-5.48-.82-7.47,0-6.92,3.26m-27.63,1.47c0,5.66,2.93,8.39,7.12,6.92,4.4-1.68,1.67-12-3.14-12-2.72,0-4,1.47-4,5M37.68,262.71c1.52,4.56,7.93,4.53,5.19-2-3.46-1.35-5.78-.11-5.19,2m248.71-2.52c0,2.73,1,4.19,2.72,3.56a4.19,4.19,0,0,0,2.51-3.56,4.82,4.82,0,0,0-2.51-3.77c-1.67-.42-2.72,1-2.72,3.77m431.26-2.94c0,1.68,1,2.52,2.09,1.89a4,4,0,0,0,2.09-3.35,1.93,1.93,0,0,0-2.09-1.89c-1,0-2.09,1.47-2.09,3.35M228.82,256a3.87,3.87,0,0,0,.63,4.61c1.26,1.26,2.51,1.26,3.56-.42a3.87,3.87,0,0,0-.63-4.61c-1.26-1.26-2.51-1.26-3.56.42m111.79-.84c-4.19,5.24-4.19,10.27.21,13,8.37,5.24,17-6.92,10-13.84-3.35-3.35-6.91-3.14-10.26.84m-29.73-.42c-.63,1.68-.63,3.35,0,4,1.88,2.1,6.91-1,6.91-4,0-3.77-5.44-3.77-6.91,0m-125.61,1.68c-1.47,5,1.67,10.06,6.07,10.06,4,0,5-2.73,3.35-8.6-1.88-6.5-8-7.55-9.42-1.47m-127.91.63c-5,7.55-4.19,10.27,3.77,14l7.12,3.56,1-6.08c1.47-6.5-2.51-16.77-6.07-16.77-1.47,0-4,2.31-5.86,5.24M10,254.12c0,1,1,1.47,2.09.84,1.26-.63,2.09-1.68,2.09-2.31,0-.42-.84-.84-2.09-.84A2.3,2.3,0,0,0,10,254.12m543.26-2.31c-.63,1-.21,2.1.84,2.1a2.29,2.29,0,0,0,2.3-2.1c0-1.26-.42-2.1-.84-2.1-.63,0-1.67.84-2.3,2.1m-22-2.1a2.29,2.29,0,0,0,2.3,2.1c1,0,1.47-1,.84-2.1-.63-1.26-1.67-2.1-2.3-2.1-.42,0-.84.84-.84,2.1m170.62-2.1c-1.47,2.52.42,6.29,3.35,6.29,1,0,1.88-1.89,1.88-4.19,0-4.4-3.14-5.66-5.23-2.1m-29.52,3.14c-2.93,4.4-3.14,6.5-1.26,10.48,1.47,2.94,3.77,5.24,5.65,5.24,3.77,0,4,2.52.84,5.66-1.67,1.68-1.67,3.56.21,6.71,1.26,2.52,1.67,5.45,1,6.5-1.47,2.52,2.51,4.82,5.44,2.94,1.67-.84,1.47-1.89-.42-2.94-2.09-1.47-2.09-2.31.21-5.24,2.09-2.73,2.3-4.4.21-9-1.47-3.15-2.09-5-1.26-4.19,2.72,2.52,7.12-3.77,6.28-9-1.67-13.42-10.47-17-17-7.13m-89.81-3.14a3.87,3.87,0,0,0,.63,4.61c1.26,1.26,2.51,1.26,3.56-.42a3.87,3.87,0,0,0-.63-4.61c-1.26-1.26-2.51-1.26-3.56.42m-429.17,0c-2.09,3.35,3.35,9,5.86,6.5,2.3-2.31.42-8.6-2.51-8.6a4.89,4.89,0,0,0-3.35,2.1M480,246.36c-2.3,1.68-5,2.52-6.49,1.89-2.51-.84-5.23,6.71-3.77,10.69,1.26,3.14,12.77,8.18,15.28,6.71a7,7,0,0,0,2.09-5,60.14,60.14,0,0,1,1.26-10.48c1.47-7.55-1.47-8.81-8.37-3.77m-352.75.21a5,5,0,0,1-3.14,4.4c-4.61,1.89-3.77,7.76,1.67,13.21,4.19,3.77,5.86,4.19,10.47,2.52,6.7-2.52,6.91-4.61,2.09-13.42-5.44-9.64-11.1-13.21-11.1-6.71m-101.53-1c-1.67,2.52,4.19,5,7.33,3.14a4.5,4.5,0,0,0,2.09-3.35c0-2.52-7.75-2.52-9.42.21m540.54-2.73c-3.09,2.84-1.11,6,4.38,4.39,1.6-5.5-1.55-7.48-4.38-4.39m-298.74,1.68a3.14,3.14,0,1,0,3.14-3.15,3.22,3.22,0,0,0-3.14,3.15m-94.67,5.1c5.38.45,6.95-.08,5.9-3.21a32.86,32.86,0,0,1-1.26-4.19c0-.42-1.47-.84-3.14-.84-2.62,0-4.73,4.63-1.5,8.25m474.84-7.2c-1.88,5.45-1.47,7.34,1.67,7.34,4.81,0,6.28-4.19,2.93-7.76-2.93-2.73-3.35-2.73-4.61.42m-311.09-.84c0,1,1,1.47,2.09.84,1.26-.63,2.09-1.68,2.09-2.31,0-.42-.84-.84-2.09-.84a2.3,2.3,0,0,0-2.09,2.31m-98.39,4c0,5.24.84,6.5,3.77,5.87,2.3-.42,3.56-2.52,3.56-5.87s-1.26-5.45-3.56-5.87c-2.93-.63-3.77.63-3.77,5.87m-22.82-1.26c3.14,6.71,6.7,7.13,5.65.84-.42-2.73-2.3-5-4.4-5.45-3.14-.63-3.35,0-1.26,4.61m297.7-3.77c-4.19,4.4-3.14,7.13,2.3,7.13,4,0,4.82-.84,4-4.19-1.47-5.66-3.14-6.5-6.28-2.94m-61.34-1c-3.35,6.08-1.67,13,3.56,15.73,2.72,1.26,4.19,3.14,3.14,4-.84,1,.84.42,3.77-1.47,6.7-4.19,6.28-13.63-.42-18.87-6.28-4.82-7.33-4.61-10,.63M304.18,239c-1.67,5.66,2.3,11.32,4.4,5.87a10,10,0,0,0-.84-6.92c-1.88-3.35-2.09-3.14-3.56,1m-110.54-1.47c-1.67,5.66,1,9,5.86,7.13,4.4-1.68,3.35-10.48-1.26-11.32-2.09-.42-4,1.26-4.61,4.19M739,233.36c-3.35,3.35-3.14,5.87.63,5.87,1.67,0,3.14-1.89,3.14-4.19,0-4.82-.42-5-3.77-1.68m-626,0c1.52,4.56,7.93,4.53,5.19-2-3.46-1.35-5.78-.11-5.19,2m-13.61-1c-2.72,2.73-1.47,6.5,2.51,7.55,4.19,1,6.49-1.89,5-6.5-1-2.73-5.23-3.36-7.54-1m-26.17-.63c.84,1,.63,3.15-.63,4.82C71,238.39,71,240.07,72.44,242c1.26,1.47,2.51,6.71,2.93,11.74.84,10.9,3.77,12.79,9.84,6.29,5.86-6.29,5.65-8.18-1.67-10.9-5.23-1.89-6.07-3.15-5-7.76.63-3.77-.21-6.29-2.93-8.39-2.09-1.68-3.14-2.1-2.3-1.26m512.91-1c-2.3,1.26-2.09,2.1.84,3.15,4.19,1.68,6.7,0,3.77-2.94-1-1-3.14-1-4.61-.21M283.67,230c-2.2,2.45,1.31,6,5.85,4.77,3.53-5.09-2.67-8-5.85-4.77m126.24.84c0,5.27,1.1,4.3,4.76,0-3.66-4.3-4.76-5.27-4.76,0m213.75-2.73c-2.51,5,.21,9.64,5.23,8.6,2.72-.42,4-2.52,4-5.87,0-6.29-6.28-8.18-9.21-2.73M275.29,226c-3.09,2.84-1.11,6,4.38,4.39,1.6-5.5-1.55-7.48-4.38-4.39m44-2.1c-2.72,2.52-1.47,8.6,1.88,9.85,2.09.84,5.23-.21,7.54-2.31,3.77-3.35,3.77-3.77.42-6.29-4.19-2.94-7.75-3.56-9.84-1.26m-70.55,1.68c0,1.89,1,3.15,2.3,2.73a2.76,2.76,0,0,0,0-5.45c-1.26-.42-2.3.84-2.3,2.73m-93.79-1.68c-2.09.84-2.09,1.68-.21,4,3.56,4.19,8.16,3.56,8.16-1.26,0-4.19-2.51-5-8-2.73M47.73,225.81c0,1.68,1,2.52,2.09,1.89a2.55,2.55,0,0,0,1-3.36c-1.88-2.94-3.14-2.31-3.14,1.47m643.75-3.35c-1.47,2.52.42,6.29,3.35,6.29,2.51,0,2.51-5.66,0-7.34a2.54,2.54,0,0,0-3.35,1m-269,2.1c-1.88,3.35-1.67,4.61,1,5.45,4.4,1.89,7.75-1.68,6.07-6.08-1.67-4.82-4.4-4.4-7.12.63m-74.32-2.1c-.63,1,.21,2.1,2.09,2.1s2.72-1,2.09-2.1c-.63-1.26-1.67-2.1-2.09-2.1s-1.47.84-2.09,2.1m-109.91,1.89a10.08,10.08,0,0,0,3.14,6.5c2.51,2.1,3.35,1.89,4.4-.84.63-1.89.84-4.82,0-6.5-1.67-4.4-7.54-4-7.54.84M532,219.73c-7.33,1.47-9.63,5.87-8,15.31,1.26,8,5.44,11.11,8.37,6.29.63-1,2.51-1.47,4.19-.63,1.67.63,3.14,0,3.14-1.26a2.3,2.3,0,0,1,2.09-2.31c1.26,0,2.09,1.89,2.09,4.19s1,4.19,2.09,4.19c2.51,0,2.72-5.66.21-7.13-1-.63-1.47-3.15-.84-5.66,1.26-4.82-3.14-14.68-6.49-14.26-1.26.21-4.4.84-6.91,1.26M2.51,229.38c1.67,6.71,3.56,7.13,8.37,1.68,3.35-3.56,3.35-4.61.84-8.39-2.72-3.77-3.56-4-6.91-1.47M704,218.26c-.63,1.26.21,2.73,1.88,3.35,2.09.84,3.35,3.77,3.35,8.18,0,8.6,4.81,10.9,8.16,4,3.14-6.92,2.93-9.23-.84-9.23-1.67,0-4-1.89-5.23-4.19-2.51-4.61-5.23-5.45-7.33-2.1m-96.93.84c.21,2.1,1.67,3.56,2.72,3.56,3.14-.21,2.51-5-.63-6.08-1.88-.63-2.72.42-2.09,2.52m-247.45.42c0,1.68,1,2.52,2.09,1.89a2.55,2.55,0,0,0,1-3.35c-1.88-2.94-3.14-2.31-3.14,1.47m-217.51,0c0,2.31.63,2.94,1.26,1.26.63-1.47.42-3.35-.21-4-.63-.84-1.26.42-1,2.73m575.5-2.31c0,1.68,1,3.15,2.09,3.15,1.26,0,2.09-1.47,2.09-3.15s-.84-3.14-2.09-3.14c-1,0-2.09,1.47-2.09,3.14M489.46,217a5.91,5.91,0,0,0,2.09,4.4c1.26.63,2.09-.63,2.09-2.94,0-2.52-.84-4.4-2.09-4.4-1,0-2.09,1.26-2.09,2.94M100.91,221.2c5.93-2.33,3.6-9.74-5-6.17.1,7.69-.73,8.43,5,6.17m-73.06-5c-1.47,2.52.42,6.29,3.35,6.29,1,0,1.88-1.89,1.88-4.19,0-4.4-3.14-5.66-5.23-2.1m349.82,1.47c-5.44,5.45-5.23,9.23,1,15.94,2.51,2.73,5,3.56,8,2.52,3.14-1,4.4-.42,4.4,1.89a15.4,15.4,0,0,0,2.51,7.34c2.09,3.56,2.72,3.56,5.86.42,4-3.56,3.56-17-.42-17-1,0-1.47.84-.84,1.89s-.21,2.31-1.67,2.94c-2.51,1-2.72-.42-1.88-6.08,2.09-12.79-8.16-18.66-17-9.85m-133.77-2.73c-.63,1.68-.42,3.77.63,4.4,2.72,1.68,5-3.15,2.51-5.66q-1.88-1.89-3.14,1.26m-37.68-.42c-1.47,5.45-.21,8,4,8s6.07-5.66,2.93-9.44c-3.56-4.4-5.65-4-6.91,1.47m340-3.36c0,2.31.63,2.94,1.26,1.26.63-1.47.42-3.35-.21-4-.63-.84-1.26.42-1,2.73M262.73,209c-3.35,3.35-1.47,9.23,2.93,9.23,3.14,0,4.19-1,3.56-4.61-.63-4.61-4-6.92-6.49-4.61m364.06,2.1c-1,4-.42,6.29,2.3,8.18,5.65,4.19,9.21,1.47,8.37-6.08-.84-8.81-8.58-10.48-10.68-2.1m-158.27-2.52a5.91,5.91,0,0,0,2.09,4.4c1.26.63,2.09-.63,2.09-2.94,0-2.52-.84-4.4-2.09-4.4-1,0-2.09,1.26-2.09,2.94m-19.47-1.47c-.84.63-1.47,4-1.47,7.13,0,4,1.26,6.29,4.19,7.13,5.86,1.89,10.26-2.31,9.84-9.23-.42-4.4-1.47-5.87-5.86-6.08-2.93-.21-6.07.21-6.7,1m-144.87.63a4.49,4.49,0,0,0,3.35,2.1,2.07,2.07,0,0,0,1.88-2.1c0-1.26-1.47-2.1-3.35-2.1-1.67,0-2.51.84-1.88,2.1m-114.1,1a3.14,3.14,0,1,0,3.14-3.14,3.22,3.22,0,0,0-3.14,3.14m-146.54,0c0,1.68,1,3.15,2.09,3.15,1.26,0,2.09-1.47,2.09-3.15s-.84-3.14-2.09-3.14c-1,0-2.09,1.47-2.09,3.14m549.54-5.45c-1.47,2.52,2.51,5,5.23,3.35,2.3-1.47.84-5.24-2.09-5.24a4.61,4.61,0,0,0-3.14,1.89m-348.57,1.26c0,2.1,1.47,3.14,3.77,2.73,4.4-.84,4-4.61-.42-5.45-2.09-.42-3.35.63-3.35,2.73m-161.83-.21a13.66,13.66,0,0,0,0,7.13c.84,3.77,1.67,4,5,1.89,4.82-2.94,5.23-9,.63-10.69-4.4-1.68-4.4-1.68-5.65,1.68m206.42-2.52c-4.4,5.87-4.61,12-.21,13.42,4.82,1.47,8.58-2.52,6.91-7.13a19.28,19.28,0,0,1-1-5.87c0-3.56-2.93-3.77-5.65-.42m288.69-2.1c1.52,4.56,7.93,4.53,5.19-2-3.46-1.35-5.78-.11-5.19,2m-312.35-.63a4.5,4.5,0,0,0,2.09,3.35c1.26.63,2.09-.21,2.09-1.89,0-1.89-.84-3.35-2.09-3.35a2.07,2.07,0,0,0-2.09,1.89M171.67,204c.42,3.56,1.67,6.92,3.14,7.34,3.56,1.26,5.65-7.34,2.72-10.9-4.19-5-6.49-3.56-5.86,3.56m-22.82-3.14c-8,5.45-5.86,16.35,3.35,16.77,3.77.42,4.61-.42,3.77-3.56a6.2,6.2,0,0,1,1.88-6.29c2.09-1.89,2.3-3.35.21-6.5-2.93-4.61-3.14-4.82-9.21-.42m600.41,1c-1.88-6.5-8.58-9.23-8.58-3.14.21,5,5.44,12,8,10.27m-263.57-8.39c-3.14,8.6-.84,12.58,7.54,12.79,6.28.21,7.33-.42,7.33-4.4,0-5.24-6.49-13.84-10.26-13.84-1.26,0-3.35,2.52-4.61,5.45m-82.06-4c-3.65,3.4-.15,9.08,6.06,6.07,3-6.21-2.66-9.73-6.06-6.07m329.31-.21c0,1.68,1,2.52,2.09,1.89a2.55,2.55,0,0,0,1-3.35c-1.88-2.94-3.14-2.31-3.14,1.47m-280.53-.21a3.14,3.14,0,1,0,3.14-3.15,3.22,3.22,0,0,0-3.14,3.15m275.29-3.15c.63,1,1.67,2.1,2.3,2.1.42,0,.84-1,.84-2.1a2.15,2.15,0,0,0-2.3-2.1c-1,0-1.47.84-.84,2.1m-179,1.47c0,2.73,1,4.82,2.09,4.82,2.72,0,2.72-2.31,0-6.29-1.67-2.52-2.09-2.31-2.09,1.47m-384.78-1c1.52,4.56,7.93,4.53,5.19-2-3.46-1.35-5.78-.11-5.19,2M461.2,191c-2.09,3.56,2.51,7.76,5.23,5,1.67-1.68,1.26-3.14-.84-4.82-2.09-1.89-3.35-1.89-4.4-.21m-326.59,0c-1.47,2.52.42,6.29,3.35,6.29,2.51,0,2.51-5.66,0-7.34a2.54,2.54,0,0,0-3.35,1m-26,1.26c0,2.31.63,2.94,1.26,1.26.63-1.47.42-3.35-.21-4-.63-.84-1.26.42-1,2.73m569.64,1.26c.63,3.77,1.67,8.6,2.72,10.69,1,2.73.84,3.35-1.88,2.31-4.19-1.68-4.19,1,0,6.5,2.51,3.35,3.35,3.56,4.82,1.26a7.38,7.38,0,0,0,.84-5.87c-.63-1.47.21-2.73,2.09-2.73,1.67,0,4.19-1.47,5.65-3.15,2.09-2.73,2.09-4-.84-6.92-1.88-2.1-3.35-5-3.35-6.29,0-1.47-2.51-2.52-5.44-2.52-5,0-5.44.63-4.61,6.71m-158.69-3.77c-3.77,2.94-3.77,3.15-.21,4.61,4.61,1.68,9.63-2.31,6.49-5.45-1.47-1.47-3.56-1-6.28.84M278,188.91a2.25,2.25,0,0,0,2.09,2.1,2.1,2.1,0,0,0,2.09-2.1,2,2,0,0,0-2.09-2.1,2.1,2.1,0,0,0-2.09,2.1m-17.79-.21c-1.47,2.52,2.51,5,5.23,3.35,2.3-1.47.84-5.24-2.09-5.24a4.61,4.61,0,0,0-3.14,1.89m-77.46.21c-1.67,2.52,4.19,5,7.33,3.14a2.5,2.5,0,0,0,1-3.35c-1.67-2.52-6.7-2.52-8.37.21m-125.19,4c-2.09,9.85.42,15.31,6.7,14.47,6.49-.84,8.37-7.76,3.56-12.79-1.88-1.89-3.35-4.19-3.35-5.45,0-5-5.86-1.89-6.91,3.77m-22.4-4c0,1,1.47,2.1,3.35,2.1,1.67,0,2.51-1,1.88-2.1a4,4,0,0,0-3.35-2.1,1.93,1.93,0,0,0-1.88,2.1M700.9,187c0,1,1,1.47,2.09.84,1.26-.63,2.09-1.68,2.09-2.31,0-.42-.84-.84-2.09-.84A2.29,2.29,0,0,0,700.9,187m17.17.21c1,6.71,5.86,7.34,5.86.84,0-3.56-1-5.45-3.35-5.45-2.09,0-2.93,1.47-2.51,4.61m-297.7-1.68a6.69,6.69,0,0,1-3.35,5c-2.72,1.47-2.09,2.73,3.56,8.39,6.49,6.29,6.91,6.5,9.63,2.73,3.35-5,.63-13.63-5.65-17-3.35-1.89-4.19-1.68-4.19.84M295,186c0,2.31.63,2.94,1.26,1.26.63-1.47.42-3.35-.21-4-.63-.84-1.26.42-1,2.73m-59.25-2.1a5.23,5.23,0,0,1,2.51,4.19c0,1.68,1,2.94,2.3,2.94,4,0,.84-7.34-3.35-7.76-2.3-.42-2.93,0-1.47.63m-27.63.21c-1.67,1.68-1.67,10.06,0,11.74,2.72,2.73,8.79-2.73,7.75-6.71-1-4.19-5.65-7.13-7.75-5m94.21,1c-4.61,6.29-4.4,6.92,2.93,7.34,6.49.42,7.75-1.68,5-8.6-1.67-4.61-4.19-4.19-8,1.26m-129-1.47c0,1.68,1,3.15,2.09,3.15,1.26,0,2.09-1.47,2.09-3.15s-.84-3.14-2.09-3.14c-1,0-2.09,1.47-2.09,3.14m157.85-2.31c-2,5.57,1.75,7.78,5.8,1.09-3.43-4.28-4.44-4.64-5.8-1.09m162.46-.63c0,3.77.42,4,3.14,1.89,3.14-2.52,2.51-6.29-1.26-6.29-1,0-1.88,2.1-1.88,4.4m-60.71-1.26c0,1.89,1,3.14,2.3,2.73a2.76,2.76,0,0,0,0-5.45c-1.26-.42-2.3.84-2.3,2.73m-26.17-1c-.63,1.26-.63,4,0,6.5,2.09,6.08,8.16,4.19,9-2.94.63-4.4-.21-5.66-3.56-5.66-2.3,0-4.81,1-5.44,2.1m-389-.84c-2.72,2.73-1.67,7.13,1.47,5.87,2.3-.84,2.72,0,1.88,3.56-.84,3.15-.42,4.19,1.47,3.56a5.4,5.4,0,0,0,3.56-3.14c1-2.94-6.49-11.74-8.37-9.85m597.48.63c-2.51,2.52-4.4,5.66-4.4,7.13,0,4.19,6.28,12,9.63,12a3.11,3.11,0,0,1,2.93,3.35c0,1.68.84,2.73,1.67,2.1,3.35-2.1,2.3-16.14-1.47-22.43l-4-6.5Zm-300.63-1.89a3.86,3.86,0,0,0,.63,4.61c1.26,1.26,2.51,1.26,3.56-.42a3.86,3.86,0,0,0-.63-4.61c-1.26-1.26-2.51-1.26-3.56.42m-62.8,0c-.84,1.26-.21,3.56,1,5.45,3.14,3.77,8.79,0,6.91-4.61a4.49,4.49,0,0,0-8-.84M144,178.43c0,4,2.3,5.45,4.82,2.94,1.67-1.68-.63-7.13-2.93-7.13-1,0-1.88,1.89-1.88,4.19m537.19-4.82c-2.51,2.52-1.26,8.6,2.09,9.85,4.61,1.68,4.61,1.89,3.35-4-1-5.66-3.14-8-5.44-5.87m-340.4.63c0,1,1.47,2.1,3.14,2.1s3.14-1,3.14-2.1c0-1.26-1.47-2.1-3.14-2.1s-3.14.84-3.14,2.1m221.28-2.52c-5.86,10.27.21,22,8.79,17.19,2.51-1.26,4.4-4,4.4-5.87,0-4-11.72-14-13.19-11.32"
        />
        <path class="cls-1" 
          d="M562.71,541c-3.56,6.5-1,13.63,4.61,13.63,4.61,0,8-2.52,8-6.08,0-.84-1.47-1.47-3.35-1.47-1.67,0-2.72-.84-2.09-1.89,1.67-2.52-.63-8.6-3.14-8.6-.84,0-2.72,1.89-4,4.4M416,538.06c-.21,1-.42,5.66-.63,10.69-.21,9.23,2.93,12.37,9.84,9.85a4,4,0,0,1,4.61.84c1.67,3.14,5.23.84,5.23-3.14,0-2.31-1.26-2.73-4-1.89-3.35,1-4.81-.63-8.37-8.39-4-8.81-6.07-11.53-6.7-8m-359.86.84c0,1,1,1.47,2.09.84,1.26-.63,2.09-1.68,2.09-2.31,0-.42-.84-.84-2.09-.84a2.29,2.29,0,0,0-2.09,2.31M640.16,541c0,4.19.84,6.08,2.72,5.66,3.77-1.47,4.19-9.44.63-10.69-2.51-1-3.35.21-3.35,5m-352.32-7.13c-.84.63-1.47,4-1.47,7.34,0,4.4,1.26,6.5,4.81,7.76,3.35,1.26,4.81,1,5.23-1,.42-1.68,1.67-2.94,2.72-2.94,2.3,0-1.88-8.6-5.23-10.9-2.93-2.1-4.4-2.1-6.07-.21m-187.78.63a2.25,2.25,0,0,0,2.09,2.1,2.1,2.1,0,0,0,2.09-2.1,2,2,0,0,0-2.09-2.1,2.1,2.1,0,0,0-2.09,2.1m508.7-4.19c0,1,1.47,2.1,3.14,2.1s3.14-1,3.14-2.1c0-1.26-1.47-2.1-3.14-2.1s-3.14.84-3.14,2.1m-76.2-.63a10.65,10.65,0,0,0-1.26,5.24c0,4.4,7.33,5.24,9,1,1-2.94-5.65-8.39-7.75-6.29m-475.41.84c-.84,1.26-1,2.73-.42,3.35,1.47,1.47,5.65-1.26,5.65-3.77s-3.56-2.52-5.23.42M665.49,529c-2.51,2.94-1,5.45,3.35,5.45,3.14,0,3.77-5.45.84-7.13-1-.63-2.93,0-4.19,1.68m-40.82-1.47c-2.3,2.31-1.26,4.82,1.88,4.82,1.67,0,3.14-.84,3.14-1.89,0-2.73-3.35-4.61-5-2.94m-483,2.1c-2.72,7.13-2.51,8.6,2.09,11.11,9.21,4.82,13.61.84,11.51-10.27-1.67-8-10.68-8.6-13.61-.84M21.35,526.52a2.2,2.2,0,0,0,.84,3.35,3.86,3.86,0,0,1,2.51,3.56c0,3.14,5.65,5.87,8.58,4C36,536,29.31,524,25.75,524a5.69,5.69,0,0,0-4.4,2.52m370.53-2.31c-2.09,3.56,2.72,7.55,5.65,4.61,2.51-2.52.84-6.92-2.3-6.92a5,5,0,0,0-3.35,2.31m-109.28.21c1.52,4.56,7.93,4.53,5.19-2-3.46-1.35-5.78-.11-5.19,2m-118.07-1c1.47.63,3.35.42,4-.21.84-.63-.42-1.26-2.72-1-2.3,0-2.93.63-1.26,1.26m554.76,2.31c-3.14,5.45-3.14,6.08.42,10.69l3.77,5,2.3-4.61c1.47-2.52,1.88-5.45,1-6.71a2.94,2.94,0,0,1,1.26-4c2.93-1.89,1-6.29-2.72-6.29-1.47,0-4.19,2.52-6.07,5.87M644.35,523a3.14,3.14,0,1,0,3.14-3.14,3.22,3.22,0,0,0-3.14,3.14m-206.83.42c-1,2.1-1.88,6.92-2.09,10.69-.42,6.5,0,6.92,5.23,6.29,5-.63,5.86-1.68,6.07-8,.63-10.9-5.44-16.77-9.21-9m-224.83,1c-5.65,8.81-6.07,14.26-1,16.14,7.75,2.94,11.3-.63,11.1-10.69-.21-10.48-5-13.21-10-5.45M615.46,520a2.81,2.81,0,0,0,5.44,0c.42-1.26-.84-2.31-2.72-2.31s-3.14,1-2.72,2.31m-71.59,1.68c0,2.31.84,4.4,1.88,4.4,3.77,0,4.4-3.77,1.26-6.29-2.72-2.1-3.14-1.89-3.14,1.89m-31.61,1.47c-5.65,6.08-3.14,10.48,5.23,8.39,4-1,5.44-2.73,5.44-6.29,0-7.13-5-8.18-10.68-2.1m-151.77-.42a15.33,15.33,0,0,0,1,9.23c1.67,3.14,1.67,4.61-.42,5.24-1.47.63-1,1.26,1.26,1.26,1.88.21,3.56-.84,3.56-1.89,0-1.26,1.26-2.1,2.93-2.1,4.81,0,5.65-3.15,2.72-9.64-3.35-8-9.21-9-11.1-2.1m-180.87-2.31a4.92,4.92,0,0,1-2.51,4.19c-5,1.68-.21,3.77,5.44,2.31,3.77-.84,5.44-2.52,5-4.82-.84-4.19-8-5.87-8-1.68m-63.64.21c1.47,4,8,4.61,6.7.63a7.12,7.12,0,0,0-4.4-3.14c-2.51-.42-3.14.21-2.3,2.52m-95.46-.84a2.25,2.25,0,0,0,2.09,2.1,2.1,2.1,0,0,0,2.09-2.1,2,2,0,0,0-2.09-2.1,2.1,2.1,0,0,0-2.09,2.1m393.35-1.89c-2.93,5.45-1.26,7.13,4.19,4,5.23-2.73,5.65-5.45,1.26-7.13-1.88-.63-4,.63-5.44,3.14m-92.11-5c-5,1.26-6.7,11.53-2.3,14.68,4.61,3.77,14.86,3.35,16.33-.21,1.67-4.19-3.77-14.68-7.54-15.1a17.53,17.53,0,0,0-6.49.63m-111.58.21a2.69,2.69,0,0,0,1,3.56c3.14,2.1,5.23-.63,2.51-3.35-1.47-1.47-2.72-1.47-3.56-.21m489.23-4.4a4.61,4.61,0,0,0-2.72,3.77c0,3.77,5.65,5.66,6.91,2.31,1.47-3.56-1-7.13-4.19-6.08M341,509.33c-2.93,1.68-1.47,6.29,1.88,6.29,2.3,0,4.4-5.87,2.51-7.13-1-.63-2.93-.21-4.4.84m-98.6,1.47c0,4,9.63,9.64,12.77,7.76,4-2.31,1.67-7.13-3.35-7.13-2.93,0-5.23-1-5.23-2.1a2,2,0,0,0-2.09-2.1c-1,0-2.09,1.68-2.09,3.56m400.89-3.56c-1.67,5.45,1.47,9.44,6.28,7.55,4.4-1.68,3.35-10.48-1.47-11.32-2.09-.42-4,1-4.81,3.77m-552-2.73c-6.49,1.68-7.12,11.11-.63,11.11,1.67,0,2.51,1.26,1.88,2.94a8.39,8.39,0,0,0,.63,6.29c2.72,5,8.79-1,9.21-9.44.84-11.11-1.47-13.42-11.1-10.9m374.3,2.1c.21,6.71,5,8.81,9.21,4,3.56-4.61,1-9.64-4.81-9.64-3.77,0-4.61,1-4.4,5.66m210.6-4.4c-5.86,4-5.86,6.71.42,15.1,4.61,6.29,5,6.5,8,2.94,4.4-5,5.86-18.87,2.09-20.34-4.19-1.68-5.23-1.26-10.47,2.31m-451.34.21a4.06,4.06,0,0,0,1.26,5c3.35,2.1,9-3.14,7.12-6.29-2.3-3.35-6.91-2.73-8.37,1.26M201,502.2c.84,4.4,4.61,4.82,5.44.21.42-2.1-.63-3.56-2.72-3.56s-3.14,1.26-2.72,3.35m-69.08.42c-6.7,5.87-4,13,5,13,7.75,0,8.58-2.1,5-11.32-2.3-6.5-4.19-6.71-10-1.68M501,498.85c.63,1,1.67,2.1,2.3,2.1.42,0,.84-1,.84-2.1a2.15,2.15,0,0,0-2.3-2.1c-1,0-1.47.84-.84,2.1m-165.38,0a3.43,3.43,0,0,0,1.26,4.4c3.56,2.1,5.44-1.68,2.3-4.82-1.26-1.26-2.51-1.26-3.56.42m315.06-3.14c0,1.68,1,3.14,2.09,3.14,1.26,0,2.09-1.47,2.09-3.14s-.84-3.14-2.09-3.14c-1,0-2.09,1.47-2.09,3.14m-51.29-1c-.63,1,.21,2.1,2.09,2.1s2.72-1,2.09-2.1c-.63-1.26-1.67-2.1-2.09-2.1s-1.47.84-2.09,2.1m-240.11.42c-2.51,6.29-.21,13.21,4.19,13.84,2.51.42,4.61,2.1,4.61,3.77s1,2.94,2.09,2.94c2.93,0,2.72-5.66-.21-6.71-1.26-.42-2.51-4-2.72-8-.42-7.34-5.86-11.53-8-5.87m-114.3.84c.63,3.56,4.4,4.4,5.44,1.26.21-1-.84-2.52-2.72-3.36-2.3-.84-3.14-.21-2.72,2.1M722.23,493c-1.47,1.47-2.51,5-2.51,8.39,0,4.82,1,5.87,7.12,7.13,4,.63,8.16.63,9.42-.21,2.51-1.47,2.93-9.23,1-14.47-1.47-4-11.51-4.4-15.07-.84m-108.65.21c-2.09,3.35-.84,12.58,2.09,14.47,3.77,2.31,9.84-2.1,8.37-6.29-2.3-6.29-8.58-11.32-10.47-8.18m-496.56,0c-1.26,1.26-2.3,3.14-2.3,4.19,0,2.52,9,.84,9.84-1.89,1-3.35-4.61-5.24-7.54-2.31M6.7,493.82A28.64,28.64,0,0,1,8,501.57V506l4.61-4.4c3.77-3.77,4-5,1.67-7.76-3.56-4.4-9.21-4.4-7.54,0m455.53-2.52a5.23,5.23,0,0,1-2.51,4.19c-1.47.63-.42.63,2.51,0,6.49-1.68,7.12-2.1,5.23-4.82-1.88-3.35-5.23-2.73-5.23.63m-163.08-.21c-3.56,4.4-.63,10.27,4.82,9.43,3.14-.42,4.4-2.1,4.4-5.87,0-5.87-5.44-8-9.21-3.56m-91.06-2.94c-1.88,2.94.84,8.6,4.4,8.6,1.88,0,2.72-1.68,2.3-4.61-.63-4.82-4.82-7.34-6.7-4m-68.25-1.89c0,1,1.47,2.1,3.14,2.1s3.14-1,3.14-2.1c0-1.26-1.47-2.1-3.14-2.1s-3.14.84-3.14,2.1m538-.84c0,1.68,1,2.52,2.09,1.89A4,4,0,0,0,682,484a1.93,1.93,0,0,0-2.09-1.89c-1,0-2.09,1.47-2.09,3.35m-185.06-1.89c-2.3,2.31-1.26,4.82,1.88,4.82,1.67,0,3.14-.84,3.14-1.89,0-2.73-3.35-4.61-5-2.94M407,483.12c-4.81,4.82-4.4,13,.84,14.68,2.3.63,4.82.84,5.65.42,3.14-1.89,11.1,2.52,11.1,5.87,0,2.1,1.47,3.14,3.77,2.73,2.72-.42,3.35-2.31,2.93-6.92-1-7.76-1.88-8.81-5-5.66-4.19,4.19-5.86,2.94-5.86-4.82,0-4-.84-7.34-1.88-7.34a19.39,19.39,0,0,1-5-1.26c-1.67-.63-4.61.42-6.49,2.31M510.37,480a2.25,2.25,0,0,0,2.09,2.1,2.1,2.1,0,0,0,2.09-2.1,2,2,0,0,0-2.09-2.1,2.1,2.1,0,0,0-2.09,2.1m-76.2-2.73c-3.18,3.19-.32,9.4,4.76,5.86,1.26-4.55-2.32-8.06-4.76-5.86m-193.22,0c-4.59,1.79-3,6.38,3.35,4.29.43-2.28.11-5.87-.21-5.55a13.34,13.34,0,0,0-3.14,1.26m-202.85.21c-3.77,2.52-5.23,9.23-2.72,12.16,1.26,1.68,5,2.94,8.37,2.94,7.12,0,8.16-4.61,2.72-12.16-3.35-5-4.81-5.45-8.37-2.94m-33.29.42c.63,1,1.67,2.1,2.3,2.1.42,0,.84-1,.84-2.1a2.15,2.15,0,0,0-2.3-2.1m596.83,0a2.29,2.29,0,0,0,2.3,2.1c1,0,1.47-1,.84-2.1-.63-1.26-1.67-2.1-2.3-2.1-.42,0-.84.84-.84,2.1M254.35,478.3c-3.14,4-3.14,5-.63,7.55,3.35,3.56,9.63,1.89,9.63-2.31,0-1.47-1.26-4.4-2.51-6.29-2.51-3.15-2.93-3.15-6.49,1M167.89,476c-3.35,5.66-2.72,14.26,1.26,17.19,2.3,1.68,3.56,3.56,2.72,4.19-.63.84.63,1.47,3.14,1.47,2.93,0,4.81,1.47,5,3.56,0,2.1.84-.42,1.47-5.66.84-6.71.21-11.32-2.09-15.73-3.56-6.71-9-9.23-11.51-5m55.68-2.73c0,.84,1.26,2.94,2.51,4.19,2.09,2.1,2.09,3.56-.21,6.92-3.14,5.24-.21,9.43,5,7.55,5-2.1,6.49-8,2.51-10.9a8.53,8.53,0,0,1-3.56-6.08,3.27,3.27,0,0,0-3.14-3.35c-1.67,0-3.14.84-3.14,1.68m59.45-.84a19.32,19.32,0,0,0-.42,8c.42,4,1.88,4.82,8,4.82,6.91,0,7.33-.42,7.12-6.29-.21-3.56-.42-6.92-.63-8-.42-2.73-13-1.47-14,1.47m-96.3-1.89c-1.67,4.4.63,9.43,4.19,9.43,4.19,0,5.44-2.52,4-8-1.26-5.24-6.49-6.08-8.16-1.47m394,.21c-1.67,6.5,1.67,11.32,5.23,7.76,2.72-2.73,1.67-11.53-1.47-12.58-1.47-.42-3.14,1.68-3.77,4.82m-328.46-4.19c-1.67,1.68.21,5,2.93,5,1,0,1.88-1.47,1.88-3.14,0-3.15-2.51-4.19-4.81-1.89m413,1.41c4.29-3.66,5.27-4.77,0-4.77s-4.29,1.1,0,4.77m-216-1.83c-4.4,3.35-4.61,7.13-.63,12.37,1.88,2.73,4.19,3.56,7.12,2.52,3.56-1,4.4-3.14,4.4-9.64,0-8.81-3.77-10.69-10.89-5.24M326.78,468c-8.79,9-1.47,21,8.37,13.42,2.93-2.1,2.93-3.56.84-10.48-1.47-4.19-2.93-7.76-3.56-7.55-.63,0-3.14,2.1-5.65,4.61m278-3.56c0,2.31.63,2.94,1.26,1.26.63-1.47.42-3.35-.21-4-.63-.84-1.26.42-1,2.73m-229.65,3.35c.21,4.82,1.26,7.13,4,7.55,2.93.63,3.56-.84,3.56-6.71s-.84-7.55-3.77-7.55c-3.14,0-4,1.47-3.77,6.71m-227.34-5.87c-2.09,1.47-3.77,3.77-3.77,5.24a2.15,2.15,0,0,1-2.09,2.31c-2.72,0-2.51,2.31.63,6.71,1.67,2.1,4.61,2.94,8.16,2.31,4.4-.84,5.65-2.52,6.28-8.18.42-3.77.42-6.5-.21-6.08-.42.63-1.88-.42-3.14-2.1-1.88-2.52-2.93-2.52-5.86-.21m-47.73-.84c0,1,1.47,2.1,3.14,2.1s3.14-1,3.14-2.1c0-1.26-1.47-2.1-3.14-2.1s-3.14.84-3.14,2.1m517.7-1.89c-2.93,2.94-1,10.27,2.72,10.27,4.4,0,6.07-6.08,2.51-9.64-2.09-2.1-3.56-2.31-5.23-.63m-65.31,2.1c-2.3,4-2.09,5.24,1.67,10.48,2.51,3.14,4.4,7.34,4.4,8.81,0,3.36,6.28,9.44,6.49,6.5,0-1,.42-5.45.84-10.06.84-6.5.21-8.18-3.14-9-2.72-.63-4.19-2.94-4.19-6.08,0-6.29-2.3-6.5-6.07-.63m-347.72-1.47a7.94,7.94,0,0,0,2.93,5.24c2.09,1.68,2.72,4.82,1.88,9.85-1,5.87-.63,6.92,1.88,6.08,5.23-2.1,7.54-9.85,4.61-15.52-4-7.76-11.3-11.32-11.3-5.66m-154.91.21c0,1.68,1,3.14,2.09,3.14,1.26,0,2.09-1.47,2.09-3.14s-.84-3.14-2.09-3.14c-1,0-2.09,1.47-2.09,3.14m455.32-3.14a2.67,2.67,0,0,1-3.56.84c-1.26-.84-3.14,0-4.19,1.47-1.67,2.31-2.3,2.31-3.14.21s-1.67-2.1-4-.21c-4.4,3.56-3.56,5.24,4.61,9.23,9,4.19,17.58,1.89,17-4.82-.21-5-5-9.64-6.7-6.71m-268.59.42c1.52,4.56,7.93,4.53,5.19-2-3.46-1.35-5.78-.11-5.19,2m179-5.45c-2.3,2.31-1.67,4.4,1.88,8,5.23,5.45,9.63,4.19,8.79-2.52-.63-5.45-7.12-9-10.68-5.45m-328,1.89c-2.09,2.52-1.88,3.35.84,4.4,5,1.89,9.84-.63,8.37-4.4-1.67-4-5.86-4-9.21,0m215-3.77c-3.09,2.84-1.11,6,4.38,4.39,1.6-5.5-1.55-7.48-4.38-4.39M17.37,451.25C12.56,454,8,458.17,8,460.06c0,.63.84.84,1.88,0,1-.63,2.51.84,3.35,3.14,1.88,5.87,6.7,5.24,10.26-1.68,4-7.55.21-13.84-6.07-10.27m629.07-2.73a2.29,2.29,0,0,0,2.3,2.1c1,0,1.47-1,.84-2.1-.63-1.26-1.67-2.1-2.3-2.1-.42,0-.84.84-.84,2.1m-29.31-2.1a2.25,2.25,0,0,0,2.09,2.1,2.1,2.1,0,0,0,2.09-2.1,2,2,0,0,0-2.09-2.1,2.1,2.1,0,0,0-2.09,2.1M606,452.3c6.59-1.27,6.12-11.14-3.26-6.93-.82,5.49,0,7.48,3.26,6.93m-196.78-.21c4.47-4.48,1-9.25-7.3-7.32-1.93,8.3,2.83,11.79,7.3,7.32m-184.64-5.66c-.63,1-.21,2.1.84,2.1a2.29,2.29,0,0,0,2.3-2.1c0-1.26-.42-2.1-.84-2.1-.63,0-1.67.84-2.3,2.1m-41.87,0a3.83,3.83,0,0,0,.63,4.61c2.93,2.94,9.42.42,8.37-3.14-1.26-3.35-7.12-4.4-9-1.47m94.41-2.31c-.84,1.47-1,3.14-.42,3.77,1.88,1.89,4-.84,2.93-3.77-.84-2.31-1.26-2.31-2.51,0M110.95,445.8a6,6,0,0,0,4.19,4.4c2.51.42,3.14-.42,2.3-3.56-1.47-5.24-7.54-5.87-6.49-.84m-51.71-1.47c-2.3,3.56,1,6.71,4.4,4,1.47-1.26,2.3-3.14,1.67-4.19-1.47-2.52-4.4-2.31-6.07.21m660.47-1.26a3.93,3.93,0,0,0,2.51,3.77c1.26.42,2.72,6.29,3.35,12.79.84,10.9,1.47,12,5.86,12,4,0,5-1,5-5.24,0-2.94.84-5.24,1.88-5.24s2.3-2.73,2.72-6.08c1-6.92-3.77-11.11-10.26-9.44-2.72.84-4.81,0-5.44-2.1-1.67-4.19-5.65-4.4-5.65-.42m-341.23,3.35c0,4.4.84,6.29,2.72,5.66,1.26-.42,2.51-2.94,2.51-5.66s-1.26-5.24-2.51-5.87c-1.88-.42-2.72,1.47-2.72,5.87m-58-3.14c-.63,1.89-.63,3.77,0,4.61,2.09,2.1,7.75-1.26,7.75-4.61,0-4.19-6.07-4.19-7.75,0m-181.29-.63c-2.3,1.89-3.35,4.19-2.3,6.5,2.51,6.92,8.37,2.1,6.7-5.87-.63-2.94-1.26-2.94-4.4-.63m-65.52.21a13.72,13.72,0,0,0,0,7.13c1.26,3.14,1.67,3.14,5,0,3.14-3.35,3.14-3.77,0-7.13-3.35-3.14-3.77-3.14-5,0m610.44.21c0,4,1,5.45,4.19,5.45,2.3,0,4.19,1.47,4.19,3.35a23.26,23.26,0,0,0,2.09,7.34c3.56,6.5,10.47.84,10.47-9,0-9-.63-9.43-12.14-11.32-8.37-1.26-8.79-1-8.79,4.19m-481.9-3.56c-5.44,1.47-5,11.11.42,11.11,3.35,0,4.19-1.47,4.19-6.29,0-3.56-.21-6.08-.42-6.08-.42.21-2.3.63-4.19,1.26m246-2.1c-4.4,1.68-3.14,8.39,1.88,9.64,5,1.47,8.37-1.68,7.33-6.92-.42-3.35-5-4.61-9.21-2.73m-103.83,4.19C340,452.93,342.48,458,352.53,458c7.54,0,8.16-.42,8.58-6.29.42-8.81-1.26-13.63-4.81-13.63-1.67,0-2.51-1-1.88-2.1.63-1.26-.63-2.1-2.72-2.1-2.93,0-5.23,2.52-7.33,7.76m-58-5.66c0,1,1.47,2.1,3.14,2.1s3.14-1,3.14-2.1c0-1.26-1.47-2.1-3.14-2.1s-3.14.84-3.14,2.1m198.87-1a3.14,3.14,0,1,0,3.14-3.14,3.22,3.22,0,0,0-3.14,3.14m-58.82,1.26c-1.26,2.52-1.47,5.24-.42,6.08,2.51,2.73,9.63-3.56,8.37-7.34-1.88-4.4-5-4-8,1.26M264.81,433c-1.67,1.68.21,5,2.93,5,1,0,1.88-1.47,1.88-3.14,0-3.14-2.51-4.19-4.82-1.89m391.47-1.89c-3.14,2.94-1.47,9,2.51,9,5.44,0,7.54-3.56,4.4-7.34-2.93-3.35-4.81-4-6.91-1.68m-16.12.63a2.25,2.25,0,0,0,2.09,2.1,2.1,2.1,0,0,0,2.09-2.1,2,2,0,0,0-2.09-2.1,2.1,2.1,0,0,0-2.09,2.1M457,431.55c-1.26,2.31,1.88,4.82,4,2.94,1.88-1.89,1.47-4.82-.63-4.82a4.61,4.61,0,0,0-3.35,1.89m-224.62.63c1.52,4.56,7.93,4.53,5.19-2-3.46-1.35-5.78-.11-5.19,2M123.93,433a23,23,0,0,1,1.26,5.24,2.07,2.07,0,0,0,2.09,1.89c1.26,0,2.09-2.31,2.09-5.24,0-3.35-1.26-5.24-3.35-5.24-2.3,0-2.93,1-2.09,3.35m490.28-3.56c-.84,1.47-1,3.14-.42,3.77,1.88,1.89,4-.84,2.93-3.77-.84-2.31-1.26-2.31-2.51,0m-324.69.21a2.54,2.54,0,0,0,3.35,1c2.93-1.89,2.3-3.14-1.47-3.14-1.67,0-2.51,1-1.88,2.1m-179.82-2.52a2.69,2.69,0,0,0,1,3.56c3.14,2.1,5.23-.63,2.51-3.35-1.47-1.47-2.72-1.47-3.56-.21m163.5-2.52c-1.67,1.68.21,5,2.93,5,1,0,1.88-1.47,1.88-3.15,0-3.14-2.51-4.19-4.82-1.89m207.88-.21a3.14,3.14,0,1,0,3.14-3.14,3.22,3.22,0,0,0-3.14,3.14m-235.3-1.26c-.84,1.26-1.88,5.87-2.3,10.27-.21,4.19-.21,6.71.42,5.24.42-1.47,2.3-1.89,4-1.26s2.93.21,2.93-1a16.63,16.63,0,0,1,1-5c1.47-4-4.19-11.53-6.07-8.18m-50.87-2.52c-3.14,1.26-3.56,6.92-.63,6.92,1.26,0,2.09,1.89,2.09,4.4s1,4,2.72,3.36c2.72-.84,2.72-11.53,0-14-.84-.84-2.93-1-4.19-.63m392.31,1c-1.26,4.4,1.26,7.76,5.44,8,2.51,0,.84-11.11-1.88-12-1.26-.42-2.93,1.26-3.56,4m-283.66-2.1c-3.56,3.56-3.14,11.32.84,15.1,4,4.19,7.12,4.19,7.12.42a19.28,19.28,0,0,1,1-5.87c.42-1.47-.63-4.82-2.72-7.55-2.93-3.77-4.19-4.19-6.28-2.1m232.16-.84c-4.61,8.6-1,15.93,5,10.9,4-3.15,4-6.5.21-11.53-2.72-3.77-2.93-3.77-5.23.63m-314.22-.84c0,1.89-.84,3.15-1.88,2.52s-2.93,1.47-4,4.82c-2.09,5.87-1.47,8.6,1.67,8.6,1.88,0,6.91-17,5.44-18.45-.63-.63-1.26.42-1.26,2.52m-14.65-.84a2.25,2.25,0,0,0,2.09,2.1,2.1,2.1,0,0,0,2.09-2.1,2,2,0,0,0-2.09-2.1,2.1,2.1,0,0,0-2.09,2.1m300.41,0c4.19,4.61,6.49,4.19,4.61-1a6,6,0,0,0-4.81-3.14c-3.35,0-3.35.42.21,4.19m-470-2.1c0,1,1.47,2.1,3.14,2.1s3.14-1,3.14-2.1c0-1.26-1.47-2.1-3.14-2.1s-3.14.84-3.14,2.1m-10.47,2.1c-3.35,6.08-1.88,13.42,2.93,14.26C37.47,432.8,40.4,419,33.07,415c-3.14-1.68-4.4-1.26-6.28,2.1m656.7-4.4a10.18,10.18,0,0,0,1.88,8c2.51,3.35,3.14,3.35,5,.63,1.26-1.68,1.88-5,1.67-7.34-.84-5.66-7.12-6.5-8.58-1.26m-44-2.52c-2.09,1.89-1.67,9.44.42,12.79,1,1.68,3.56,2.31,7.12,1.47,5.86-1.47,5.65-5-.21-12.16-3.35-3.77-5.23-4.4-7.33-2.1m-249.33,1.68c-1.67,4.4,5.86,8.18,9.21,4.19,1.88-2.31,1.47-3.35-1.88-5-5.44-2.94-5.86-2.94-7.33.84M201,411a2.81,2.81,0,0,0,5.44,0c.42-1.26-.84-2.31-2.72-2.31s-3.14,1-2.72,2.31m-31.4-.84c-6.49,1.26-8.37,6.71-3.56,10.27,3.14,2.31,4.4,2.31,8.16-.21,5.44-4,7.54-4,7.54,0,0,1.68,1,3.14,2.09,3.14,1.26,0,2.09-1.26,2.09-2.73-.21-3.14-7.33-12-9.84-11.74-.84.21-3.77.84-6.49,1.26m532.77-2.1c-.42,1-.21,3.77.42,6.5,1,4.4,1.67,4.61,5.44,1.89,3.35-2.73,3.56-3.56,1.26-6.5-2.93-3.56-5.65-4.4-7.12-1.89m-213.53-.21c-1.67,1.68.21,5,2.93,5,1,0,1.88-1.47,1.88-3.14,0-3.14-2.51-4.19-4.81-1.89m-14.44.21c1.47.63,3.35.42,4-.21.84-.63-.42-1.26-2.72-1-2.3,0-2.93.63-1.26,1.26m68.45-1.47c-.63,1.26.21,2.73,2.09,3.35,4,1.68,6.28,0,4.19-3.14-1.67-2.94-4.61-2.94-6.28-.21m-80.18,7.76c.84,13.84,5.65,14.47,5.44.84-.21-7.55-1-10.69-3.14-10.69-2.3,0-2.72,2.52-2.3,9.85m-138.17-8c-1.67.84-2.93,5.24-3.14,9.64-.42,6.29.63,8.6,4.82,11.32,2.93,2.1,4.4,2.31,3.35.63-.84-1.47-.42-5.66.84-9.64,2.09-6.5,1.26-13.84-1.88-13.84a10.64,10.64,0,0,0-4,1.89m269.63-1.68c0,1,1,1.47,2.09.84,1.26-.63,2.09-1.68,2.09-2.31,0-.42-.84-.84-2.09-.84a2.3,2.3,0,0,0-2.09,2.31m-183.38.42c-1.67,4.61.42,13,3.56,13,1.67,0,2.93-2.94,3.56-8,.63-6.08,0-7.76-2.72-7.76a5.29,5.29,0,0,0-4.4,2.73m-143,.21c-3.77,4.4-1.88,10.69,2.93,10.69,5,0,6.7-7.55,2.51-11.11-2.3-2.1-3.56-1.89-5.44.42m-130-1c0,2.1,5.86,8.6,7.54,8.6.42,0,.84-2.31.84-5.24,0-3.77-1-5.24-4.19-5.24-2.3,0-4.19.84-4.19,1.89M121.83,403c-1.47,4.19.63,7.76,4.61,7.76,3.77,0,3.77-5-.21-8.39-2.51-2.1-3.35-1.89-4.4.63m332.85-2.52a4.39,4.39,0,0,0,1,4.61c1.67,1.68,2.3,1,2.3-2.31,0-5-1-5.87-3.35-2.31M194.27,403c0,5.66,2.72,7.55,5.44,3.35.63-1.26-.21-3.77-2.09-5.66-3.14-3.14-3.35-2.94-3.35,2.31m387.28-4.82c0,1,1.47,2.1,3.14,2.1s3.14-1,3.14-2.1c0-1.26-1.47-2.1-3.14-2.1s-3.14.84-3.14,2.1m-474.37.21a4.39,4.39,0,0,0,1,4.61c1.88,1.89,2.93,1.68,4.4-.63,1.88-3.14.84-6.29-2.09-6.29a5,5,0,0,0-3.35,2.31m234.88-2.94c-2.3,2.31-1.26,4.82,1.88,4.82,1.67,0,3.14-.84,3.14-1.89,0-2.73-3.35-4.61-5-2.94m-17.38,1.68c-.63,1.89-.63,3.77,0,4.4,1.88,1.89,5.65-1.26,5.65-4.61,0-4-4-3.77-5.65.21m-267.12.21c.63,1.89,0,4.19-1.47,5-4.19,2.73-1,8.18,4,6.92,7.75-1.89,5-15.31-3.14-15.31-.42,0-.21,1.47.63,3.35m184-3.56a2.27,2.27,0,1,0,3.14-.63,2.14,2.14,0,0,0-3.14.63m484.83,1.68c-1.67,3.77-1.88,6.29-.42,7.76s2.09.63,2.09-2.52c0-2.52,1-4.61,2.09-4.61,1.26,0,2.09-1.47,2.09-3.14,0-5-2.93-3.56-5.86,2.52m-510.79-4.19a20.4,20.4,0,0,0-5.44,9.44c-1,4.61-.63,5.87,2.3,6.08,6.49.42,10-.42,12.77-3.35,2.51-2.1,2.3-3.77-.42-9.23-4-7.55-3.77-7.55-9.21-2.94M63.43,389.82c-1.67,2.94.63,6.29,4.4,6.29,1.67,0,2.93-1.89,2.93-4.19,0-4.4-5-5.87-7.33-2.1m243.88-1.89a1.15,1.15,0,0,1-1.88,1c-1-.84-1.47.63-.84,3.15,1.47,4.82,5.44,7.13,10,5.24,2.51-.84,2.72-2.1.63-6.5-2.3-5.24-8-7.34-8-2.94m-174.38,2.31c-1.47,5.24.21,10.06,3.77,10.06,3.35,0,3.56-12,0-13.42-1.47-.42-3.14.84-3.77,3.35m536.54-3.35c0,1.68,1,2.52,2.09,1.89a4,4,0,0,0,2.09-3.35,1.93,1.93,0,0,0-2.09-1.89c-1,0-2.09,1.47-2.09,3.35M427.26,386c-4.19,5-5.44,12.58-2.51,14.47,2.3,1.26,2.09,2.52-.84,5.66-3.14,3.35-3.14,4.4-.84,6.5,3.77,3.14,8.37-1.89,6.49-6.92-.84-2.31-.42-3.35,1.26-2.94,4.4,1,7.33-5.87,5.23-12.16-2.51-6.71-5.86-8.39-8.79-4.61M224,385.84a6,6,0,0,0,3.56,3.56c1.67.63,2.51-.21,1.88-1.89a6,6,0,0,0-3.56-3.56c-1.67-.63-2.51.21-1.88,1.89m-54.43,1.89c0,2.94.42,4,1,2.52a11.08,11.08,0,0,0,0-5.24c-.63-1.26-1-.21-1,2.73m530.05-3.35c-1.67,4.61-.21,12.37,2.93,13.42,1.67.42,2.51-1.68,2.51-6.71,0-7.76-3.35-12-5.44-6.71m-342.9,3.77c-1.88,3.56-3.35,8.6-3.35,11.32a6.5,6.5,0,0,1-4,6.08c-6.07,1.89-7.54,11.32-2.51,16.35C354,429,357.13,424,356.3,406.6c-.63-11.74,0-14.26,2.3-13.42,5.23,2.1,8-1.26,4.4-5.24-1.88-2.1-2.72-4.4-1.88-5,.63-.84.84-1.47,0-1.47-.63,0-2.72,2.94-4.4,6.71m-323-3.35a5.68,5.68,0,0,0,1,5.45c3.14,3.15,9-1.68,7.33-5.87-1.47-4-6.7-3.77-8.37.42m252.68.63c0,7.34,2.72,9.85,6.28,5.45,3.35-4,1.88-10.27-2.72-11.11-2.72-.63-3.56.63-3.56,5.66M149.89,382.9c-4.19,5-1.88,14,4.19,14.89,3.35.42,4.81-.63,5.86-4.61,2.72-11.32-3.35-17.82-10-10.27m413.87-.63c-3.56,5.24-3.14,11.74.63,11.74,1,0,3.14-2.94,4.61-6.5,3.77-8.81-.21-12.79-5.23-5.24m146.54-5c.63,1,1.67,2.1,2.3,2.1.42,0,.84-1,.84-2.1a2.15,2.15,0,0,0-2.3-2.1c-1,0-1.47.84-.84,2.1m-51.08.84a6.75,6.75,0,0,0-1,6.29c.63,1.89.21,3.35-1,3.35-3.35,0-2.93,7.34.63,10.27,4.81,4,9.63.42,9.63-7.13,0-4,.84-7.55,2.09-8.39,2.93-1.89,0-7.34-4.19-7.34a8.44,8.44,0,0,0-6.07,2.94M45.84,374.94c-2.3,1.47-1.88,2.31,1.88,4.4,5,2.73,10,0,7.54-4-1.88-2.73-5.44-2.94-9.42-.42M112,372.42c-.84.63-1.47,3.14-1.47,5.24,0,5.45,5,3.56,5.86-2.1.63-4.4-1.67-6.08-4.4-3.14m479-.84c-.84,2.1-.63,4.82.63,6.08,2.93,2.94,4.4-.63,2.51-5.66-1.47-4-1.67-4-3.14-.42M554.33,371a2.25,2.25,0,0,0,2.09,2.1,2.1,2.1,0,0,0,2.09-2.1,2,2,0,0,0-2.09-2.1,2.1,2.1,0,0,0-2.09,2.1m-38.94-.21c1,1.47,0,4.4-2.09,6.71-3.56,4-3.56,4.4.42,9.64,5.44,7.34,8.58,8.18,10.26,2.94,1.47-4.61-3.35-17.61-7.54-20.13-1.67-1.26-2.09-.84-1,.84m-257.65,3.84c3.46,1.35,5.78.11,5.19-2-1.52-4.56-7.93-4.53-5.19,2m487.72,4.55c0-7.55-4-10.9-9.42-8-2.93,1.47-3.77,1.26-3.77-1.26,0-1.68-.84-3.14-1.67-3.14-1,0-1.67,4.19-1.67,9.23.21,5,.84,8.18,1.47,7.13.84-1.26,3.35-.21,6.07,2.52,5.65,5.66,9,3.14,9-6.5M627.6,369.9c2.09,2.52,2.09,3.14-.42,3.14-3.56,0-4.19,6.08-1,9.85,1,1.47,4.19,2.73,6.91,2.73,4.19,0,5-1,5-5.87-.21-6.92-4.4-13-9.42-13-2.93,0-3.14.63-1,3.14m-151.35,1.89a28,28,0,0,0-3.14,10.27c-.21,4.4.84,6.29,5,7.76,11.51,4.4,13.19,3.14,12.77-10.06-.21-11.53-.42-12-6.07-12.16a9,9,0,0,0-8.58,4.19M370.11,371c0,3.14,1,4.19,3.77,3.77,1.88-.42,3.56-2.1,3.56-3.77s-1.67-3.35-3.56-3.77c-2.72-.42-3.77.63-3.77,3.77m-153.87-2.1a3.87,3.87,0,0,0,.63,4.61c1.26,1.26,2.51,1.26,3.56-.42a3.86,3.86,0,0,0-.63-4.61c-1.26-1.26-2.51-1.26-3.56.42m217.92-2.94c-4.61,4.61-4.19,8.6,1.67,14.47,9.63,9.64,15.7.84,8.16-11.74-4.19-6.92-5.44-7.34-9.84-2.73m-88.76,2.52c4.56-1.52,4.52-7.94-1.95-5.19-1.35,3.47-.11,5.78,1.95,5.19m-42.29-3.77c-2.3,1.47-2.51,2.52-.63,4.4,2.72,2.73,6.91.84,6.91-3.56,0-3.35-1.88-3.77-6.28-.84m-67,0a2.25,2.25,0,0,0,2.09,2.1,2.1,2.1,0,0,0,2.09-2.1,2,2,0,0,0-2.09-2.1,2.1,2.1,0,0,0-2.09,2.1m-158.68.42c-4.19,4.19-2.93,13.63,2.09,17.19,4.19,2.94,5,2.94,8.37-.21,2.72-2.31,3.56-5.66,3.14-10.9-.63-6.08-1.88-7.76-5.86-8.18-2.72-.42-6.28.63-7.75,2.1m586.78-.21c-1.67,5.24-.21,7.13,4.19,5.45,4-1.68,4.19-9.85.21-9.85-1.67,0-3.77,1.89-4.4,4.4m-371.37-1c0,2.31.63,2.94,1.26,1.26.63-1.47.42-3.35-.21-4-.63-.84-1.26.42-1,2.73m-97.76.84c-2.51,5.66-2.93,10.48-.84,10.48a2.1,2.1,0,0,1,2.09,2.1c0,2.52-11.1.21-12.14-2.52a3.52,3.52,0,0,0-2.93-1.68c-1.26,0-1.26,1.26.42,3.14,1.26,1.68,1.88,4,1,5.24s-.84,4.61-.21,7.34c1.67,6.71,11.72,6.5,11.72-.42,0-5.66,6.91-9.85,13-7.76,3.35,1,4.19.63,3.14-1.89-.63-1.89-.21-3.56,1-4,1.47-.63,1.26-2.94-.84-6.92-3.56-6.71-13.19-8.81-15.49-3.14m266.28-4.82c-3.18,3.19-.32,9.4,4.76,5.86,1.27-4.55-2.32-8.06-4.76-5.86m-191.76,4.4c0,7.13,5.23,12.79,8.58,9.43s1.47-9.23-3.77-12.79c-4.61-2.94-4.81-2.73-4.81,3.35m479.75-3.94c-3.43-4.28-4.44-4.64-5.8-1.09-2,5.57,1.75,7.78,5.8,1.09m-525.6-1.09c-1.88,2.31-1.88,3.35,0,4.61,1.47.84,3.14.42,3.56-.84a3.92,3.92,0,0,1,3.77-2.52c1.67,0,2.93-1,2.93-2.1,0-3.14-7.54-2.52-10.26.84m-92.95,0c-.63,1.68-.63,3.56,0,4.19,1.88,1.89,7.12-3.14,5.65-5.24-1.67-2.73-4.4-2.31-5.65,1M511,359.9c3.46,1.35,5.78.11,5.19-2-1.52-4.56-7.93-4.53-5.19,2m-15.33-2.37c0,1.68,1,2.52,2.09,1.89a2.55,2.55,0,0,0,1-3.35c-1.88-2.94-3.14-2.31-3.14,1.47m-60.71-1c0,1,1,1.47,2.09.84,1.26-.63,2.09-1.68,2.09-2.31,0-.42-.84-.84-2.09-.84a2.3,2.3,0,0,0-2.09,2.31m-38.52-.84c-1.67,5.87.21,21.6,3.14,25,4.61,5.66,13.19,1.26,15.49-7.76,1-4.19-.21-6.92-5.86-13-7.75-8.6-11.09-9.64-12.77-4.19M189,354.18c.63,1,1.67,2.1,2.3,2.1.42,0,.84-1,.84-2.1a2.15,2.15,0,0,0-2.3-2.1c-1,0-1.47.84-.84,2.1m297.26,0c-4.61,5-3.56,6.5,2.72,4.82,2.72-.63,4.61-2.73,4.61-5,0-5.24-2.51-5-7.33.21"
        />
    </g>
  </g>
</svg>