<?xml version="1.0" encoding="utf-8"?>
<!-- Generator: Adobe Illustrator 21.0.2, SVG Export Plug-In . SVG Version: 6.00 Build 0)  -->
<svg version="1.1" id="Layer_1" xmlns="http://www.w3.org/2000/svg" xmlns:xlink="http://www.w3.org/1999/xlink" x="0px" y="0px"
	 viewBox="0 0 749.4 560.9" style="enable-background:new 0 0 749.4 560.9;" xml:space="preserve">
<style type="text/css">
	.st0{fill:#FFF877;stroke:#2F2F7F;stroke-width:0.5;}
</style>
<g id="Layer_2">
	<g id="BlobsOnly">
		<path class="st0" d="M95.8,176.7c-3.3,8-1.5,12.6,4.8,12.6c9,0,10.5-4.6,3.8-12.2l-6.1-6.5L95.8,176.7z M352.7,169.8
			c-0.8,0.6-1.5,4.4-1.5,8.2s-1,7.1-2.1,7.6c-1.3,0.4-2.7,3.8-3.1,7.6c-0.6,5.7-0.2,6.7,3.4,6.7c7.5,0,12.8-4,11.3-8.6
			c-0.8-2.8-0.1-5.8,1.9-8C368.8,176,359.2,163,352.7,169.8 M376.3,167.5c-2.9,7.6-2.5,11.3,1.3,12.8c5.2,1.9,7.7-2.5,6.3-10.7
			C382.2,160.8,379.1,160,376.3,167.5 M495.9,156.5c-2.5,2.9-1,5.4,3.4,5.4c3.1,0,3.8-5.4,0.8-7.1
			C499,154.2,497.1,154.8,495.9,156.5 M74.7,154.3c-5.9,4.6-6.1,11.3-0.6,15.1c10.5,6.7,15.3,1.9,10-10.5
			C80.7,150.9,79.7,150.3,74.7,154.3 M279,151.6c0.8,1.3,0.2,3.6-1,5.2c-3.8,4.6-0.8,9.4,5.9,9.4c5.4,0,5.9-0.4,5-7.3
			c-0.4-4-1.7-6.7-2.7-6.1c-0.5,0.4-1.2,0.3-1.6-0.1c-0.2-0.2-0.3-0.5-0.3-0.9c0-1.3-1.5-2.3-3.4-2.3
			C279.2,149.5,278.4,150.5,279,151.6 M16.3,146.1c-3.4,4.2-1.9,12.6,2.5,13.4c5,1,8.8-6.7,5.9-12.2
			C21.9,142.4,19.9,142.1,16.3,146.1 M450.4,146.1c-2.3,9.6-0.2,14.9,6.3,15.5c9.6,1.3,13.4-10.1,5.9-17
			C457.1,139.6,451.8,140.2,450.4,146.1 M565.1,139.4c-3.1,3.1-3.1,5.9,0,5.9c1.3,0,1.7-0.6,1-1.5c-0.8-0.6-0.4-2.5,0.8-4.2
			C569.9,136.3,568.4,136.1,565.1,139.4 M534.7,141.3c-3.6,4-3.1,9.4,0.6,7.1c0.8-0.6,2.7,0.4,4.2,2.1s3.3,2.5,4.4,1.9
			c3.1-1.9,2.1-8.4-1.9-11.9C538.5,137.3,538,137.3,534.7,141.3 M482,122.8c-4,5-7.3,11.9-7.3,14.7c0,3.1,8.6,7.8,14.6,7.8
			c2.1,0,4.6,0.8,5.2,2.1c2.3,3.6,5.2,2.3,5.2-2.3c0-3.1-1-4-3.1-3.1c-2.5,0.8-3.1-0.6-3.1-6.1c0-4-1.7-9.2-3.6-11.5
			C485.8,119.5,484.9,119.3,482,122.8 M463,119.5c0.5,8.7,9.4,7.9,7.2-2.8C465.3,114.8,462.7,116.5,463,119.5 M541.4,111.1
			c-1.5,10.5,2.9,15.3,13.6,14.7c6.7-0.4,8.8-1.5,9.2-4.6c0.2-2.4-0.3-4.8-1.5-6.9C560.8,111.1,541.8,108.3,541.4,111.1 M14.6,105.9
			c-4.2,4.2-2.9,9.4,2.3,10.5c6.1,1.3,9.8-2.7,8.4-8.6C24,102.9,18.6,101.9,14.6,105.9 M495.6,104.8c0,5.4,3.4,9.8,6.1,8.2
			c3.6-2.3,2.7-7.1-1.9-9.6C496.2,101.4,495.6,101.7,495.6,104.8 M48,76.5c-1.3,2.8-2.6,10.1-3,16.4c-0.4,11.5-0.4,11.5,5.9,11.5
			c5.9,0,6.3-0.6,7.7-10.5c2.3-15.7-5-27.9-10.5-17.4 M83.3,70.8c0,1.7,1,3.1,2.1,3.1c1.3,0,2.1-1.5,2.1-3.1s-0.8-3.1-2.1-3.1
			C84.4,67.7,83.3,69.2,83.3,70.8 M59.2,54.9c-1.5,2.5,2.5,5,5.2,3.3c2.3-1.5,0.8-5.2-2.1-5.2C61.1,53.2,60,53.9,59.2,54.9
			 M95.8,41.9c0.1,1.1-0.6,2-1.7,2.2c-0.3,0-0.5,0-0.8-0.1c-2.9-0.4-6.1,14.9-3.6,16.6c2.5,1.5,9.6-2.5,10.9-6.3
			c0.8-1.9,0-5.9-1.7-9S95.8,40.7,95.8,41.9 M464.4,39.6c-2.3,2.7-5.2,5-6.3,5c-3.4,0-4.8,8.4-2.3,11.5c3.6,4.4,8,4,9.4-1
			c1-3.3,2.5-4,8.8-2.9c6.9,1,7.1,0.8,5.9-3.6c-0.8-2.5-3.8-6.7-6.3-9.4l-4.8-4.8L464.4,39.6z M583.5,28.9c-1.5,1.9-2.1,3.8-1.5,4.4
			c1.9,1.9,10-3.4,8.8-5.7C588.9,24.9,586.4,25.3,583.5,28.9 M554.1,27.3c-5.7,4-6.3,10.1-1.3,16.4c4.6,5.7,11.7,5.7,11.7-0.2
			c0-1.7,0.8-2.9,1.9-2.9c2.7,0,4-6.9,2.1-12S560.4,22.9,554.1,27.3 M498.1,28.9c-5.2,11.3-2.1,17.6,8,16.1c6.3-0.8,7.5-3.3,6.3-14
			C511.5,22.5,501.7,21,498.1,28.9 M78,25.6c-0.8,1.5-3.3,2.1-5.7,1.7c-2.3-0.6-3.6-0.6-2.9,0c0.6,0.8,0.2,2.5-1,4
			c-2.7,3.3-0.8,7.1,3.6,7.1c1.7,0,2.9-2.1,2.9-4.8c0.2-4.2,0.4-4.2,2.3-1c2.5,4.4,8.2,5,8.2,1c0-1.5-1.3-4.4-2.7-6.7
			C80.3,24.1,79.3,23.7,78,25.6 M490.7,22.5c-1.3,3.1,0.2,5.4,3.1,5.4c2.3,0,2.1-5.7-0.2-7.1C492.7,20.2,491.4,20.8,490.7,22.5
			 M300.3,21.1c-2.1,0.6-3.4,2.1-2.9,3.4c0.4,1.5-1,5.2-3.1,8.4c-3.4,4.6-3.6,6.5-1.7,8.8c3.4,4.2,7.7,4,10.3-0.4
			c1.3-2.3,4.6-3.6,9.4-3.6c7.3,0,9.6-1.9,5.4-4.4c-1.3-0.8-1.7-3.1-1-5c0.8-2.5-0.6-4.4-4.2-6.1C306.8,19.6,306.4,19.4,300.3,21.1
			 M106.5,16.1c-3.3,4-2.1,10.7,1.7,10.7c1.7,0,4-1.7,5.2-3.6c1.7-2.9,1.5-4.4-1-6.9C109.5,13.4,108.8,13.4,106.5,16.1 M64.5,16.1
			c0,1.6,0.6,3.1,1.7,4.2c2.7,1.7,7.3-2.3,5.9-4.8C69.9,12.2,64.5,12.6,64.5,16.1 M39.8,15.7C37,17.2,35.3,19.3,36,21
			c0.6,1.5,0,2.7-1.3,2.7c-1.5,0-1.7,2.9-0.8,8.4c0.8,5.2,0.4,8.4-0.8,8.4c-1,0-2.1,1.9-2.1,4.4c0,5.5,4.6,4.2,7.3-2.1
			c1.3-2.9,3.3-4.2,5.9-3.6s3.6-0.4,3.6-3.3c0-2.1,0.8-3.6,1.9-2.9c1,0.8,2.3,0,2.9-1.3c1-3.8-0.6-10.1-2.9-10.1
			c-1,0-1.9-1.9-1.9-4.2C47.7,12.8,46.7,12.6,39.8,15.7 M132.2,11.3c-1.9,3.4,2.5,6.9,6.5,5.2c2.9-1,3.1-1.9,1-4.4
			C136.6,8.4,134.3,8.2,132.2,11.3 M577.6,9.4c-3.3,3.4-3.1,5.9,0.6,5.9c1.7,0,3.1-1.9,3.1-4.2C581.4,6.3,581,6.1,577.6,9.4
			 M53.3,8.2c-2.7,2.7-1.5,5,2.9,5c2.3,0,4-1,3.6-2.5C58.8,7.7,55.2,6.2,53.3,8.2 M36.2,9C33.7,6.9,33,6.9,33,9.6
			c0.2,1.9,1.4,3.5,3.2,4.4c1.7,0.6,3.1,0.4,3.1-0.6S37.8,10.5,36.2,9 M543.3,6.7c-4.8-3.1-5.9-2.1-5.9,5.7c0,5.9,0.6,7.3,3.8,6.7
			C545.6,18.2,547.3,9.2,543.3,6.7 M84.5,6.5c-0.7,1.3-0.2,2.8,1,3.6c3.1,2.1,5.2-0.6,2.5-3.3 M309.7,9c-1.3,3.4-1.5,6.3-0.4,6.3
			c1.8,0.2,3.5,0.7,5.2,1.3c2.9,1.3,3.4,0.2,2.7-5.4C316.4,1.9,312.5,0.8,309.7,9 M149.8,4.2c4.6,1,5.6,4.8,4.8,14.7
			c-0.2,3.1,0.8,4.8,2.9,4.8c1.7,0,3.1-1.9,3.1-4s1.5-4.6,3.4-5.2c5-1.9,2.9-10.5-2.9-11.3"/>
		<path class="st0" d="M695.4,349.7c-0.8,2.5-1.9,5-3.1,7.3c-2.5,4.8-2.5,5,1.7,9c2,2.2,3.3,5,3.8,8c0.4,5.7,5.2,7.3,5.2,1.9
			c0-2.3,1.9-5.5,4.4-6.9c3.6-2.5,4.2-4.2,2.9-10.9c-1-5.7-2.5-7.8-5.4-7.8c-2.3,0-4-1-4-2.1C700.9,344.7,696.7,346,695.4,349.7
			 M745.7,342.4c-2.1-0.6-3.1,0.2-2.5,2.1c1,3.1,5.9,3.8,6.1,0.6 M551.6,341.2c-0.8,0.6-1.5,4-1.5,7.1c0,5.5,4.6,9.4,8.6,6.9
			c3.1-1.9,2.1-12.8-1.5-14.3C553.3,339.6,553.3,339.6,551.6,341.2 M368.5,344c0,2.9,0.4,4,1,2.5c0.4-1.7,0.4-3.5,0-5.2
			C368.8,340,368.5,341,368.5,344 M663.2,331.7c0,1.5-1.7,4-3.8,5.9c-5.7,5-7.1,10.5-3.8,14c4.4,4.4,9,3.6,13-2.3
			c2.7-4.2,2.9-6.3,0.8-12.6C667.2,329.8,663.2,326.7,663.2,331.7 M596.7,327.8c-1.4,1.3-2.2,3-2.5,4.8c0,3.6,7.3,9.6,9.2,8
			c1.4-1.1,3.2-1.7,5-1.7c2.1,0,3.8-1.9,4.2-4.8c0.6-3.4-0.4-4.6-3.6-4.6c-2.3,0-4.8-1-5.4-2.1C601.9,324.6,599.8,324.6,596.7,327.8
			 M614,325.2c-0.6,1,0.2,2.1,2.1,2.1s2.7-1,2.1-2.1c-0.6-1.3-1.7-2.1-2.1-2.1S614.6,323.9,614,325.2 M375.3,330
			c-2.5,5.9-2.3,7.1,1.9,12.2c4,4.8,4.8,5,8.8,2.5c2.8-2.1,4.8-5.2,5.4-8.6c0.6-4.8-0.4-6.3-6.3-9.2l-7.1-3.4L375.3,330z
			 M407.6,321.5c-3.1,5.9,2.1,9.6,6.1,4.4c3.4-4.6,3.1-6.3-0.6-7.8C411.2,317.5,409,318.7,407.6,321.5 M691.9,308.7
			c-1.9,1.3-3.1,2.9-2.5,4.2c1.9,2.9,4,2.3,6.9-2.3C699,306,697.8,305.3,691.9,308.7 M687.5,297.6c-0.7,1.3-0.2,2.8,1,3.6
			c3.1,2.1,5.2-0.6,2.5-3.4C689.5,296.3,688.3,296.3,687.5,297.6 M634.5,284.5c-0.6,1.9-0.3,3.9,1,5.5c1.9,1.9,1.9,3.1,0,5.2
			c-1.7,2.1-1.7,4.2,0,7.5c1.5,3.2,2.8,6.5,3.8,9.9c1.7,6.3,4.2,8.2,9.4,6.9c4.8-1.3,5.2-7.5,0.8-11.1c-2.1-1.9-2.5-3.6-1.3-4.8
			c2.1-2.1,1.5-4.8-3.3-15.7C641.7,280.7,636.5,279,634.5,284.5 M560.9,282.4c0.4,2.3,2.3,4.2,4.6,4.6c2.7,0.6,3.6-0.2,2.9-2.9
			c-0.4-2.3-2.3-4.2-4.6-4.6C561.1,278.8,560.3,279.7,560.9,282.4 M108.7,280 M340.6,255.2c-4.2,5.2-4.2,10.3,0.2,13
			c8.4,5.2,17-6.9,10-13.8C347.5,251,343.9,251.2,340.6,255.2 M553.3,251.8c-0.6,1-0.2,2.1,0.8,2.1c1.2,0,2.2-0.9,2.3-2.1
			c0-1.3-0.4-2.1-0.8-2.1C554.9,249.7,553.9,250.5,553.3,251.8 M531.3,249.7c0.1,1.2,1.1,2.1,2.3,2.1c1,0,1.5-1,0.8-2.1
			c-0.6-1.3-1.7-2.1-2.3-2.1C531.7,247.6,531.3,248.4,531.3,249.7 M672.4,250.7c-2.9,4.4-3.1,6.5-1.3,10.5c1.5,2.9,3.8,5.2,5.7,5.2
			c3.8,0,4,2.5,0.8,5.7c-1.7,1.7-1.7,3.6,0.2,6.7c1.3,2.5,1.7,5.5,1,6.5c-1.5,2.5,2.5,4.8,5.4,2.9c1.7-0.8,1.5-1.9-0.4-2.9
			c-2.1-1.5-2.1-2.3,0.2-5.2c2.1-2.7,2.3-4.4,0.2-9c-1.5-3.1-2.1-5-1.3-4.2c2.7,2.5,7.1-3.8,6.3-9
			C687.6,244.5,678.8,240.9,672.4,250.7 M647.7,242.5c-1.9,5.4-1.5,7.3,1.7,7.3c4.8,0,6.3-4.2,2.9-7.8
			C649.3,239.3,648.9,239.3,647.7,242.5 M513.1,240.6c-4.2,4.4-3.1,7.1,2.3,7.1c4,0,4.8-0.8,4-4.2
			C517.9,237.9,516.2,237,513.1,240.6 M451.7,239.6c-3.4,6.1-1.7,13,3.6,15.7c2.7,1.3,4.2,3.1,3.1,4c-0.8,1,0.8,0.4,3.8-1.5
			c6.7-4.2,6.3-13.6-0.4-18.9C455.5,234.2,454.5,234.4,451.7,239.6 M623.7,228.1c-2.5,5,0.2,9.6,5.2,8.6c2.7-0.4,4-2.5,4-5.9
			C632.9,224.6,626.6,222.7,623.7,228.1 M319.3,223.9c-2.7,2.5-1.5,8.6,1.9,9.9c2.1,0.8,5.2-0.2,7.5-2.3c3.8-3.4,3.8-3.8,0.4-6.3
			C324.9,222.2,321.4,221.6,319.3,223.9 M155,223.9c-2.1,0.8-2.1,1.7-0.2,4c3.6,4.2,8.2,3.6,8.2-1.3
			C162.9,222.5,160.4,221.6,155,223.9 M691.4,222.5c-1.5,2.5,0.4,6.3,3.3,6.3c2.5,0,2.5-5.7,0-7.3
			C693.6,220.8,692.1,221.2,691.4,222.5 M532,219.7c-7.3,1.5-9.6,5.9-8,15.3c1.3,8,5.4,11.1,8.4,6.3c0.6-1,2.5-1.5,4.2-0.6
			c1.7,0.6,3.1,0,3.1-1.3c0-1.2,0.9-2.2,2.1-2.3c1.3,0,2.1,1.9,2.1,4.2s1,4.2,2.1,4.2c2.5,0,2.7-5.7,0.2-7.1c-1-0.6-1.5-3.1-0.8-5.7
			c1.3-4.8-3.1-14.7-6.5-14.3C537.6,218.7,534.5,219.3,532,219.7 M607.1,219.1c0.2,2.1,1.7,3.6,2.7,3.6c3.1-0.2,2.5-5-0.6-6.1
			C607.3,216,606.4,217,607.1,219.1 M142,219.5c0,2.3,0.6,2.9,1.3,1.3c0.6-1.5,0.4-3.4-0.2-4C142.5,216,141.8,217.2,142,219.5
			 M377.7,217.7c-5.4,5.4-5.2,9.2,1,15.9c2.5,2.7,5,3.6,8,2.5c3.1-1,4.4-0.4,4.4,1.9c0.2,2.6,1.1,5.1,2.5,7.3
			c2.1,3.6,2.7,3.6,5.9,0.4c4-3.6,3.6-17-0.4-17c-1,0-1.5,0.8-0.8,1.9s-0.2,2.3-1.7,2.9c-2.5,1-2.7-0.4-1.9-6.1
			C396.7,214.7,386.5,208.9,377.7,217.7 M546.2,211.2c0,2.3,0.6,2.9,1.3,1.3c0.6-1.5,0.4-3.4-0.2-4
			C546.6,207.6,546,208.9,546.2,211.2 M269.2,213.6 M626.8,211.1c-1,4-0.4,6.3,2.3,8.2c5.7,4.2,9.2,1.5,8.4-6.1
			C636.6,204.4,628.9,202.7,626.8,211.1 M449,207.1c-0.8,0.6-1.5,4-1.5,7.1c0,4,1.3,6.3,4.2,7.1c5.9,1.9,10.3-2.3,9.8-9.2
			c-0.4-4.4-1.5-5.9-5.9-6.1C452.8,205.9,449.7,206.3,449,207.1 M289.1,201.8c-4.4,5.9-4.6,12-0.2,13.4c4.8,1.5,8.6-2.5,6.9-7.1
			c-0.6-1.9-1-3.9-1-5.9C294.8,198.7,291.8,198.4,289.1,201.8 M577.8,199.7c1.5,4.6,7.9,4.5,5.2-2
			C579.5,196.3,577.2,197.6,577.8,199.7 M269.6,200.5 M148.9,200.9c-8,5.4-5.9,16.4,3.4,16.8c3.8,0.4,4.6-0.4,3.8-3.6
			c-0.6-2.3,0.1-4.7,1.9-6.3c2.1-1.9,2.3-3.4,0.2-6.5C155.1,196.7,154.9,196.5,148.9,200.9 M454.9,199.3 M548.1,194.5
			c0,2.7,1,4.8,2.1,4.8c2.7,0,2.7-2.3,0-6.3C548.5,190.5,548.1,190.7,548.1,194.5 M678.3,193.4c0.6,3.8,1.7,8.6,2.7,10.7
			c1,2.7,0.8,3.4-1.9,2.3c-4.2-1.7-4.2,1,0,6.5c2.5,3.4,3.3,3.6,4.8,1.3c1.1-1.8,1.4-3.9,0.8-5.9c-0.6-1.5,0.2-2.7,2.1-2.7
			c1.7,0,4.2-1.5,5.7-3.1c2.1-2.7,2.1-4-0.8-6.9c-1.9-2.1-3.3-5-3.3-6.3c0-1.5-2.5-2.5-5.4-2.5C677.9,186.7,677.5,187.3,678.3,193.4
			 M57.5,192.9c-2.1,9.9,0.4,15.3,6.7,14.5c6.5-0.8,8.4-7.8,3.6-12.8c-1.9-1.9-3.3-4.2-3.3-5.4C64.4,184.1,58.6,187.3,57.5,192.9
			 M17.7,177.6c-2.7,2.7-1.7,7.1,1.5,5.9c2.3-0.8,2.7,0,1.9,3.6c-0.8,3.1-0.4,4.2,1.5,3.6c1.6-0.4,2.9-1.6,3.6-3.1
			C27.1,184.5,19.6,175.7,17.7,177.6 M562.1,171.7c-5.9,10.3,0.2,22,8.8,17.2c2.5-1.3,4.4-4,4.4-5.9
			C575.3,179,563.6,169,562.1,171.7"/>
		<path class="st0" d="M562.7,541c-3.6,6.5-1,13.6,4.6,13.6c4.6,0,8-2.5,8-6.1c0-0.8-1.5-1.5-3.3-1.5c-1.7,0-2.7-0.8-2.1-1.9
			c1.7-2.5-0.6-8.6-3.1-8.6C565.9,536.6,564,538.5,562.7,541 M416,538.1c-0.2,1-0.4,5.7-0.6,10.7c-0.2,9.2,2.9,12.4,9.8,9.8
			c1.6-0.7,3.4-0.4,4.6,0.8c1.7,3.1,5.2,0.8,5.2-3.1c0-2.3-1.3-2.7-4-1.9c-3.4,1-4.8-0.6-8.4-8.4C418.7,537.2,416.6,534.5,416,538.1
			 M287.8,533.8c-0.8,0.6-1.5,4-1.5,7.3c0,4.4,1.3,6.5,4.8,7.8c3.4,1.3,4.8,1,5.2-1c0.4-1.7,1.7-2.9,2.7-2.9c2.3,0-1.9-8.6-5.2-10.9
			C291,532,289.5,532,287.8,533.8 M100,534.5c0.1,1.1,1,2,2.1,2.1c1.2,0,2.1-0.9,2.1-2.1c0.1-1.1-0.8-2-1.9-2.1c-0.1,0-0.1,0-0.2,0
			C101,532.4,100,533.4,100,534.5 M532.5,529.7c-0.9,1.6-1.3,3.4-1.3,5.2c0,4.4,7.3,5.2,9,1C541.3,533,534.6,527.5,532.5,529.7
			 M665.5,529c-2.5,2.9-1,5.5,3.3,5.5c3.1,0,3.8-5.5,0.8-7.1C668.7,526.7,666.8,527.3,665.5,529 M141.7,529.6
			c-2.7,7.1-2.5,8.6,2.1,11.1c9.2,4.8,13.6,0.8,11.5-10.3C153.6,522.5,144.6,521.9,141.7,529.6 M21.4,526.5c-0.7,1-0.6,2.3,0.4,3.1
			c0.1,0.1,0.3,0.2,0.4,0.3c1.5,0.6,2.5,2,2.5,3.6c0,3.1,5.6,5.9,8.6,4c2.7-1.4-4-13.4-7.5-13.4C24,524.1,22.3,525,21.4,526.5
			 M391.9,524.2c-2.1,3.6,2.7,7.5,5.6,4.6c2.5-2.5,0.8-6.9-2.3-6.9C393.8,522.2,392.6,523,391.9,524.2 M282.6,524.4
			c1.5,4.6,7.9,4.5,5.2-2C284.3,521.1,282,522.3,282.6,524.4 M164.5,523.4c1.5,0.6,3.4,0.4,4-0.2c0.8-0.6-0.4-1.3-2.7-1
			C163.5,522.2,162.9,522.8,164.5,523.4 M719.3,525.8c-3.1,5.5-3.1,6.1,0.4,10.7l3.8,5l2.3-4.6c1.5-2.5,1.9-5.5,1-6.7
			c-0.8-1.4-0.2-3.2,1.2-4c0,0,0,0,0,0c2.9-1.9,1-6.3-2.7-6.3C723.9,519.9,721.2,522.4,719.3,525.8 M437.5,523.4
			c-1,2.1-1.9,6.9-2.1,10.7c-0.4,6.5,0,6.9,5.2,6.3c5-0.6,5.9-1.7,6.1-8C447.4,521.5,441.3,515.6,437.5,523.4 M212.7,524.4
			c-5.6,8.8-6.1,14.3-1,16.1c7.8,2.9,11.3-0.6,11.1-10.7c-0.2-10.5-5-13.2-10-5.5 M543.9,521.7c0,2.3,0.8,4.4,1.9,4.4
			c3.8,0,4.4-3.8,1.3-6.3C544.3,517.7,543.9,517.9,543.9,521.7 M512.3,523.2c-5.6,6.1-3.1,10.5,5.2,8.4c4-1,5.4-2.7,5.4-6.3
			C522.9,518.1,517.9,517.1,512.3,523.2 M360.5,522.7c-0.6,3.1-0.3,6.3,1,9.2c1.7,3.1,1.7,4.6-0.4,5.2c-1.5,0.6-1,1.3,1.3,1.3
			c1.9,0.2,3.6-0.8,3.6-1.9c0-1.3,1.3-2.1,2.9-2.1c4.8,0,5.6-3.2,2.7-9.6C368.2,516.8,362.3,515.8,360.5,522.7 M179.6,520.4
			c0,1.7-1,3.3-2.5,4.2c-5,1.7-0.2,3.8,5.4,2.3c3.8-0.8,5.4-2.5,5-4.8C186.7,517.9,179.5,516.2,179.6,520.4 M115.9,520.6
			c1.5,4,8,4.6,6.7,0.6c-1-1.6-2.6-2.7-4.4-3.1C115.6,517.7,115,518.3,115.9,520.6 M20.4,519.8c0.1,1.1,1,2,2.1,2.1
			c1.2,0,2.1-0.9,2.1-2.1c0.1-1.1-0.8-2-1.9-2.1c-0.1,0-0.1,0-0.2,0C21.3,517.7,20.4,518.6,20.4,519.8 M413.7,517.9
			c-2.9,5.5-1.3,7.1,4.2,4c5.2-2.7,5.6-5.5,1.3-7.1C417.3,514.2,415.2,515.4,413.7,517.9 M321.6,512.9c-5,1.3-6.7,11.5-2.3,14.7
			c4.6,3.8,14.9,3.3,16.3-0.2c1.7-4.2-3.8-14.7-7.5-15.1C325.9,512.1,323.7,512.3,321.6,512.9 M211.1,516.7 M699.2,508.7
			c-1.5,0.7-2.6,2.1-2.7,3.8c0,3.8,5.7,5.7,6.9,2.3C704.9,511.3,702.4,507.7,699.2,508.7 M341,509.3c-2.9,1.7-1.5,6.3,1.9,6.3
			c2.3,0,4.4-5.9,2.5-7.1C344.4,507.9,342.5,508.3,341,509.3 M91.3,504.5c-6.5,1.7-7.1,11.1-0.6,11.1c1.7,0,2.5,1.3,1.9,2.9
			c-0.6,2.1-0.4,4.4,0.6,6.3c2.7,5,8.8-1,9.2-9.4C103.2,504.3,100.9,502,91.3,504.5 M465.6,506.6c0.2,6.7,5,8.8,9.2,4
			c3.6-4.6,1-9.6-4.8-9.6C466.2,501,465.4,502,465.6,506.6 M676.2,502.2c-5.9,4-5.9,6.7,0.4,15.1c4.6,6.3,5,6.5,8,2.9
			c4.4-5,5.9-18.9,2.1-20.3C682.5,498.2,681.5,498.7,676.2,502.2 M131.9,502.6c-6.7,5.9-4,13,5,13c7.8,0,8.6-2.1,5-11.3
			C139.6,497.8,137.7,497.6,131.9,502.6 M335.6,498.9c-0.8,1.6-0.2,3.5,1.3,4.4c3.6,2.1,5.4-1.7,2.3-4.8
			C337.9,497.2,336.7,497.2,335.6,498.9 M359.3,495.1c-2.5,6.3-0.2,13.2,4.2,13.8c2.5,0.4,4.6,2.1,4.6,3.8s1,2.9,2.1,2.9
			c2.9,0,2.7-5.7-0.2-6.7c-1.3-0.4-2.5-4-2.7-8C366.8,493.6,361.4,489.4,359.3,495.1 M117,493.2c-1.3,1.3-2.3,3.1-2.3,4.2
			c0,2.5,9,0.8,9.8-1.9C125.5,492.2,119.9,490.3,117,493.2 M462.3,491.3c-0.1,1.7-1,3.3-2.5,4.2c-1.5,0.6-0.4,0.6,2.5,0
			c6.5-1.7,7.1-2.1,5.2-4.8C465.6,487.3,462.3,488,462.3,491.3 M299.2,491.1c-3.6,4.4-0.6,10.3,4.8,9.4c3.1-0.4,4.4-2.1,4.4-5.9
			C308.4,488.8,303,486.7,299.2,491.1 M139.9,486.3c0,1,1.5,2.1,3.1,2.1s3.1-1,3.1-2.1c0-1.3-1.5-2.1-3.1-2.1S139.9,485,139.9,486.3
			 M407,483.1c-4.8,4.8-4.4,13,0.8,14.7c2.3,0.6,4.8,0.8,5.6,0.4c3.1-1.9,11.1,2.5,11.1,5.9c0,2.1,1.5,3.1,3.8,2.7
			c2.7-0.4,3.4-2.3,2.9-6.9c-1-7.8-1.9-8.8-5-5.7c-4.2,4.2-5.9,2.9-5.9-4.8c0-4-0.8-7.3-1.9-7.3c-1.7-0.2-3.4-0.6-5-1.3
			C411.9,480.2,408.9,481.2,407,483.1 M434.2,477.3c-3.2,3.2-0.3,9.4,4.8,5.9C440.2,478.6,436.6,475.1,434.2,477.3 M38.1,477.5
			c-3.8,2.5-5.2,9.2-2.7,12.2c1.3,1.7,5,2.9,8.4,2.9c7.1,0,8.2-4.6,2.7-12.2C43.1,475.4,41.7,475,38.1,477.5 M449.3,466.1
			c-4.4,3.4-4.6,7.1-0.6,12.4c1.9,2.7,4.2,3.6,7.1,2.5c3.6-1,4.4-3.1,4.4-9.6C460.2,462.5,456.4,460.7,449.3,466.1 M375.2,467.8
			c0.2,4.8,1.3,7.1,4,7.5c2.9,0.6,3.6-0.8,3.6-6.7s-0.8-7.5-3.8-7.5C375.8,461.1,375,462.5,375.2,467.8 M147.9,461.9
			c-2.1,1.5-3.8,3.8-3.8,5.2c0.1,1.2-0.8,2.2-2,2.3c0,0-0.1,0-0.1,0c-2.7,0-2.5,2.3,0.6,6.7c1.7,2.1,4.6,2.9,8.2,2.3
			c4.4-0.8,5.6-2.5,6.3-8.2c0.4-3.8,0.4-6.5-0.2-6.1c-0.4,0.6-1.9-0.4-3.1-2.1C151.8,459.6,150.8,459.6,147.9,461.9 M52,463.2
			 M17.4,451.2c-4.8,2.8-9.4,6.9-9.4,8.8c0,0.6,0.8,0.8,1.9,0c1-0.6,2.5,0.8,3.3,3.1c1.9,5.9,6.7,5.2,10.3-1.7
			C27.5,454,23.7,447.7,17.4,451.2 M719.7,443.1c0,1.7,1,3.2,2.5,3.8c1.3,0.4,2.7,6.3,3.3,12.8c0.8,10.9,1.5,12,5.9,12
			c4,0,5-1,5-5.2c0-2.9,0.8-5.2,1.9-5.2s2.3-2.7,2.7-6.1c1-6.9-3.8-11.1-10.3-9.4c-2.7,0.8-4.8,0-5.4-2.1
			C723.7,439.4,719.7,439.1,719.7,443.1 M378.4,446.5c0,4.4,0.8,6.3,2.7,5.7c1.3-0.4,2.5-2.9,2.5-5.7s-1.3-5.2-2.5-5.9
			C379.3,440.2,378.4,442.1,378.4,446.5 M684.1,443.1c0,4,1,5.5,4.2,5.5c2.3,0,4.2,1.5,4.2,3.4c0.3,2.5,1,5,2.1,7.3
			c3.6,6.5,10.5,0.8,10.5-9c0-9-0.6-9.4-12.1-11.3C684.5,437.7,684.1,437.9,684.1,443.1 M344.4,441.7c-4.4,11.3-1.9,16.3,8.2,16.3
			c7.5,0,8.2-0.4,8.6-6.3c0.4-8.8-1.3-13.6-4.8-13.6c-1.7,0-2.5-1-1.9-2.1c0.6-1.3-0.6-2.1-2.7-2.1
			C348.8,433.9,346.5,436.4,344.4,441.7 M656.3,431.1c-3.1,2.9-1.5,9,2.5,9c5.4,0,7.5-3.6,4.4-7.3
			C660.3,429.4,658.4,428.7,656.3,431.1 M206.7,417.1c0.1,1.1,1,2,2.1,2.1c1.2,0,2.1-0.9,2.1-2.1c0.1-1.1-0.8-2-1.9-2.1
			c-0.1,0-0.1,0-0.2,0C207.6,415,206.7,415.9,206.7,417.1 M26.6,417.1c-3.4,6.1-1.9,13.4,2.9,14.3c7.9,1.4,10.9-12.4,3.5-16.4
			c-3.1-1.7-4.4-1.3-6.3,2.1 M683.5,412.7c-0.5,2.8,0.2,5.7,1.9,8c2.5,3.4,3.1,3.4,5,0.6c1.3-1.7,1.9-5,1.7-7.3
			C691.2,408.3,684.9,407.5,683.5,412.7 M390.1,411.9 M390.1,411.9 M201,411c0.4,1.5,1.9,2.4,3.4,2c1-0.3,1.8-1,2-2
			c0.4-1.3-0.8-2.3-2.7-2.3S200.6,409.7,201,411 M702.4,408.1c-0.4,1-0.2,3.8,0.4,6.5c1,4.4,1.7,4.6,5.4,1.9
			c3.3-2.7,3.6-3.6,1.3-6.5C706.5,406.4,703.8,405.5,702.4,408.1 M474.4,408c1.5,0.6,3.4,0.4,4-0.2c0.8-0.6-0.4-1.3-2.7-1
			C473.4,406.8,472.7,407.4,474.4,408 M462.7,414.4c0.8,13.8,5.6,14.5,5.4,0.8c-0.2-7.5-1-10.7-3.1-10.7
			C462.7,404.5,462.3,407,462.7,414.4 M417.9,410.1 M454.7,400.5c-0.6,1.6-0.2,3.4,1,4.6c1.7,1.7,2.3,1,2.3-2.3
			C458,397.8,457,396.9,454.7,400.5 M581.5,398.2c0,1,1.5,2.1,3.1,2.1s3.1-1,3.1-2.1c0-1.3-1.5-2.1-3.1-2.1S581.5,396.9,581.5,398.2
			 M342,395.4c-2.3,2.3-1.3,4.8,1.9,4.8c1.7,0,3.1-0.8,3.1-1.9C347,395.6,343.7,393.8,342,395.4 M726.4,395.4
			c-1.7,3.8-1.9,6.3-0.4,7.8s2.1,0.6,2.1-2.5c0-2.5,1-4.6,2.1-4.6c1.3,0,2.1-1.5,2.1-3.1C732.2,387.9,729.3,389.3,726.4,395.4
			 M669.4,386.8c0,1.7,1,2.5,2.1,1.9c1.2-0.7,2-1.9,2.1-3.4c0-1.1-0.9-1.9-2-1.9c0,0-0.1,0-0.1,0
			C670.5,383.5,669.4,384.9,669.4,386.8 M427.3,386c-4.2,5-5.4,12.6-2.5,14.5c2.3,1.3,2.1,2.5-0.8,5.7c-3.1,3.4-3.1,4.4-0.8,6.5
			c3.8,3.1,8.4-1.9,6.5-6.9c-0.8-2.3-0.4-3.4,1.3-2.9c4.4,1,7.3-5.9,5.2-12.2C433.5,383.9,430.2,382.2,427.3,386 M699.6,384.4
			c-1.7,4.6-0.2,12.4,2.9,13.4c1.7,0.4,2.5-1.7,2.5-6.7C705.1,383.3,701.7,379.1,699.6,384.4 M356.7,388.2
			c-1.9,3.6-3.4,8.6-3.4,11.3c0,2.7-1.6,5.1-4,6.1c-6.1,1.9-7.5,11.3-2.5,16.4c7.1,7.1,10.3,2.1,9.4-15.3c-0.6-11.7,0-14.3,2.3-13.4
			c5.2,2.1,8-1.3,4.4-5.2c-1.9-2.1-2.7-4.4-1.9-5c0.6-0.8,0.8-1.5,0-1.5C360.5,381.5,358.4,384.4,356.7,388.2 M149.9,382.9
			c-4.2,5-1.9,14,4.2,14.9c3.4,0.4,4.8-0.6,5.9-4.6C162.7,381.9,156.6,375.4,149.9,382.9 M563.8,382.3c-3.6,5.2-3.1,11.7,0.6,11.7
			c1,0,3.1-2.9,4.6-6.5C572.8,378.7,568.8,374.7,563.8,382.3 M710.4,377.3c0.6,1,1.7,2.1,2.3,2.1c0.4,0,0.8-1,0.8-2.1
			c0-1.2-1-2.1-2.2-2.1c0,0-0.1,0-0.1,0C710.2,375.2,709.7,376,710.4,377.3 M659.3,378.1c-1.4,1.8-1.7,4.2-1,6.3
			c0.6,1.9,0.2,3.4-1,3.4c-3.3,0-2.9,7.3,0.6,10.3c4.8,4,9.6,0.4,9.6-7.1c0-4,0.8-7.5,2.1-8.4c2.9-1.9,0-7.3-4.2-7.3
			C663.1,375.3,660.9,376.3,659.3,378.1 M591,371.6c-0.8,2.1-0.6,4.8,0.6,6.1c2.9,2.9,4.4-0.6,2.5-5.7
			C592.7,368,592.5,368,591,371.6 M554.3,371c0.1,1.1,1,2,2.1,2.1c1.2,0,2.1-0.9,2.1-2.1c0.1-1.1-0.8-2-1.9-2.1c-0.1,0-0.1,0-0.2,0
			C555.3,368.9,554.3,369.8,554.3,371 M515.4,370.8c1,1.5,0,4.4-2.1,6.7c-3.6,4-3.6,4.4,0.4,9.6c5.4,7.3,8.6,8.2,10.3,2.9
			c1.5-4.6-3.3-17.6-7.5-20.1C514.8,368.7,514.3,369.1,515.4,370.8 M745.5,379.2c0-7.5-4-10.9-9.4-8c-2.9,1.5-3.8,1.3-3.8-1.3
			c0-1.7-0.8-3.1-1.7-3.1c-1,0-1.7,4.2-1.7,9.2c0.2,5,0.8,8.2,1.5,7.1c0.8-1.3,3.3-0.2,6.1,2.5C742.2,391.3,745.5,388.8,745.5,379.2
			 M627.6,369.9c2.1,2.5,2.1,3.1-0.4,3.1c-3.6,0-4.2,6.1-1,9.9c1,1.5,4.2,2.7,6.9,2.7c4.2,0,5-1,5-5.9c-0.2-6.9-4.4-13-9.4-13
			C625.7,366.8,625.5,367.4,627.6,369.9 M476.3,371.8c-1.7,3.2-2.8,6.7-3.1,10.3c-0.2,4.4,0.8,6.3,5,7.8
			c11.5,4.4,13.2,3.1,12.8-10.1c-0.2-11.5-0.4-12-6.1-12.2C481.5,367.2,478.1,368.9,476.3,371.8 M370.1,371c0,3.1,1,4.2,3.8,3.8
			c1.9-0.4,3.6-2.1,3.6-3.8s-1.7-3.4-3.6-3.8C371.2,366.8,370.1,367.9,370.1,371 M77.4,365.1c-4.2,4.2-2.9,13.6,2.1,17.2
			c4.2,2.9,5,2.9,8.4-0.2c2.7-2.3,3.6-5.7,3.1-10.9c-0.6-6.1-1.9-7.8-5.9-8.2C82.4,362.6,78.9,363.7,77.4,365.1 M664.2,364.9
			c-1.7,5.2-0.2,7.1,4.2,5.5c4-1.7,4.2-9.9,0.2-9.9C666.9,360.5,664.8,362.4,664.2,364.9 M269.5,364.3c0,7.1,5.2,12.8,8.6,9.4
			s1.5-9.2-3.8-12.8C269.8,358,269.5,358.2,269.5,364.3 M749.3,360.4c-3.4-4.3-4.4-4.6-5.8-1.1C741.5,364.8,745.2,367,749.3,360.4
			 M511,359.9c3.5,1.4,5.8,0.1,5.2-2C514.7,353.3,508.3,353.4,511,359.9 M495.7,357.5c0,1.7,1,2.5,2.1,1.9c1.2-0.7,1.6-2.1,1-3.4
			C496.9,353.1,495.6,353.8,495.7,357.5 M396.4,355.7c-1.7,5.9,0.2,21.6,3.1,25c4.6,5.7,13.2,1.3,15.5-7.8c1-4.2-0.2-6.9-5.9-13
			C401.4,351.3,398.1,350.3,396.4,355.7 M486.3,354.2c-4.6,5-3.6,6.5,2.7,4.8c2.7-0.6,4.6-2.7,4.6-5
			C493.6,348.8,491.1,349,486.3,354.2"/>
	</g>
</g>
</svg>
