<svg xmlns="http://www.w3.org/2000/svg" viewBox="0 0 162.75 152.47"><defs><style>.cls-1{fill:#2d30de;}</style></defs><g id="Layer_2" data-name="Layer 2"><g id="Logo"><path class="cls-1" d="M139.44,118.84a2.36,2.36,0,0,0-1.16.25,1.69,1.69,0,0,1-.59.25l-.57.14a6.1,6.1,0,0,1-1.26.27,3.45,3.45,0,0,0-1.35.41,1.53,1.53,0,0,1-.8.28l-.46-.07-1.46.39a9.68,9.68,0,0,0-2.06.66,1.62,1.62,0,0,1-.68.27h-.14l-.39-.14h-.07l-1.46.57q-6.05.57-6.05,4.09a2.87,2.87,0,0,0,.48,1.44q.48.8.84.8l.28-.07a9.06,9.06,0,0,1,1.92-1.46l3.63-1,.43.07a4.2,4.2,0,0,0,1.67-.6l.82.07a1.89,1.89,0,0,1,.85-.36h.32l1.46-.43a7.16,7.16,0,0,1,3.17-.85l1.57-.18.5.07q.14,0,.39-.32a2.81,2.81,0,0,1,.78-.64q.71.21.71.32l1.53-.75a1.15,1.15,0,0,1,.21.28,4.65,4.65,0,0,1-.73,2,12,12,0,0,0-.91,1.72,15.86,15.86,0,0,1-2.28,2.93,19.18,19.18,0,0,1-2.8,2.79,1.75,1.75,0,0,0-.84,1.39l-.18.14h-.29l-.21.14-.07.28-.36.21q-.61,0-.68.89l-.14.14q-.29,0-.71.55a8.49,8.49,0,0,1-1.35,1.3q-.93.75-.93,1t-.53.46a1.09,1.09,0,0,0-.71.6,1.9,1.9,0,0,1-.86.82q-.57.29-.57,1.39c.24.24.36.38.36.43a1.08,1.08,0,0,1-.23.48,1.13,1.13,0,0,0-.23.62q0,1,.46,1a.49.49,0,0,0,.32-.18,2.52,2.52,0,0,1,.59-.39,1.41,1.41,0,0,0,.62-.64,2.33,2.33,0,0,0,1.75-1.46q.57,0,1.11-1.17l.14-.07q.86,0,1-1l.14-.07a1.31,1.31,0,0,0,1.18-.75,1.58,1.58,0,0,1,1.18-.85,8.24,8.24,0,0,1,1.18-1.67.78.78,0,0,1,.29.14l.29-.5a5,5,0,0,0,.89-.82q.36-.43.57-.43c.09,0,.14,0,.14.07a2.51,2.51,0,0,0-.5.57v1.1l-.82,3.06.14.75-.21,3.13.21.71-.07,1.39a15.24,15.24,0,0,0,.93,3.52q.93,2.74,2.82,2.74a1.91,1.91,0,0,0,1.43-1.4,4.91,4.91,0,0,1,.14-.89,2.7,2.7,0,0,0,.11-.62,5.51,5.51,0,0,0-1.05-3.72,3.46,3.46,0,0,1-1.05-2.19s0-.12.14-.21a5.85,5.85,0,0,1-.21-1.17l.21-1.6-.07-.57a4.71,4.71,0,0,0,.57-2v-.21a2.67,2.67,0,0,1-.07-.39q0-.11.5-1.81l-.14-.57a1.32,1.32,0,0,1,.43-1l.11-.28a.55.55,0,0,1,.11-.39,2.37,2.37,0,0,0,.29-.76,4.22,4.22,0,0,1,.57-1.24q.39-.59.78-1.08l.64-1a3.92,3.92,0,0,0,.61-.59,1.23,1.23,0,0,1,.71-.44l.14-.21a1.41,1.41,0,0,1,1-.92l1.6-2.92q.36-.25.36-.32a3.21,3.21,0,0,1,1.46-1.74l1.82-.36a3.75,3.75,0,0,1,.68-.14l.85-.14q1.78-.53,1.89-.53a2,2,0,0,0,.64-.14,2.2,2.2,0,0,1,.75-.14c.09,0,.14,0,.14.07q.75,1,.89,1a2.21,2.21,0,0,0,1.64-1.07l1.64-2.06a5.13,5.13,0,0,1,.55-1.21,1.81,1.81,0,0,0,.34-.75q0-1-1.17-1h-.14l-.5.21a3.65,3.65,0,0,0-1.69.37,1.54,1.54,0,0,1-.59.3l-.28-.11h-.43a4.3,4.3,0,0,1-.85.28,8.19,8.19,0,0,0-1.19.39,10,10,0,0,1-1,.36,1.24,1.24,0,0,1-.6-.21l-.21.07a2.23,2.23,0,0,1-.78.28q-.61,0-.6-.28a1.18,1.18,0,0,1,.05-.37,2.19,2.19,0,0,0,0-.64,2.46,2.46,0,0,1,.16-1,5.22,5.22,0,0,0,.18-.52l-.36-1.35q-.36-1.71-1.25-1.71-.68,0-1.74,1.24-.32.68-.85.68-.11,0-.29.37a3,3,0,0,1-.32.55,4.76,4.76,0,0,1-1.21,1.74,3.94,3.94,0,0,0-1.08,1.48q-.48,1-.76,1l-.58-.07a.35.35,0,0,0-.18.07,2.9,2.9,0,0,1-.56.21,7.62,7.62,0,0,0-1.11.48,3.3,3.3,0,0,1-1.52.34h-.07l-.32-.14h-.07l-.36.36-.5.14a2.54,2.54,0,0,0-.53-.14m-29.67,15.5a3.77,3.77,0,0,0-1.58,1.08,4,4,0,0,1-1.28,1,1.18,1.18,0,0,0-.69.59.79.79,0,0,1-.71.43,4.46,4.46,0,0,0-1.8,1.1,3.44,3.44,0,0,0-1.23,2.77q0,.85.53.85a1.48,1.48,0,0,0,1.26-.46,3.22,3.22,0,0,1,.62-.68l.71-.18a2.83,2.83,0,0,1,.75-.28,9.37,9.37,0,0,1,.86-1,1,1,0,0,0,.82-.39,2.1,2.1,0,0,1,.36-.43l1.32-.36q.21-.07.5-.75l.6-.28a2.62,2.62,0,0,1,1-.84,2.9,2.9,0,0,0,.77-.44,4.07,4.07,0,0,1,.94-.53,2.14,2.14,0,0,0,1-.73q.21-.37.39-.37.93,0,.93,1a1.93,1.93,0,0,1-.28.64q-.21.07-.36.55a1.91,1.91,0,0,1-.21.55l-.46.64a3.26,3.26,0,0,1-.61,1.14,16.82,16.82,0,0,0-1.42,2.52,3.3,3.3,0,0,1-.55,1.33,1.8,1.8,0,0,0-.41.76,7.35,7.35,0,0,1-.36,1.08,7.35,7.35,0,0,0-.29,2.44,2.71,2.71,0,0,0,.39,1,10.15,10.15,0,0,1,.64,1.44,3.09,3.09,0,0,0,1.51,1.42q1.26.71,1.3.71l1-.07.57-.18a1.73,1.73,0,0,1,.53.25l.85-.46,1-.21a7.68,7.68,0,0,1,2.28-1.32q.57,0,.57-.5v-.07l-.21-.36q0-.32.43-.32H122l.21.07a2.31,2.31,0,0,0,.53-.28l.14-.36q.07-.5.28-.5a.74.74,0,0,1,.29.14.73.73,0,0,0,.28.14q.14,0,.55-.44a11.88,11.88,0,0,1,1.51-1.26,15.72,15.72,0,0,0,1.71-1.42,2.85,2.85,0,0,1,.94-.71q.34-.11.55-.89a.81.81,0,0,0,.68-.59,1.59,1.59,0,0,1,.37-.73q.27-.28.27-.43a.58.58,0,0,0-.07-.32l-.07-.57v-.21a1.05,1.05,0,0,0,.36-.75q0-.71-.75-.71t-1.26.94a4.26,4.26,0,0,1-.62.94,4,4,0,0,0-1.17.75,14.39,14.39,0,0,1-1.92,1.71,8,8,0,0,0-1.09.84,3.24,3.24,0,0,1-1,.66,4,4,0,0,0-1.12.69,3.72,3.72,0,0,1-1.19.69,5,5,0,0,0-1.07.5,3.35,3.35,0,0,1-1,.43,2.23,2.23,0,0,0-.87.37,1,1,0,0,1-.36.23l-.5-.14a2.67,2.67,0,0,1-.53.21q-1.39,0-1.39-.53a1.08,1.08,0,0,1,.27-.57,2.68,2.68,0,0,0,.41-.8,1.55,1.55,0,0,1,.28-.59l.28-.43a5.35,5.35,0,0,1,.45-.82.7.7,0,0,0,.16-.28v-.64q0-.28.71-.53a7.22,7.22,0,0,0,.75-1.28l.36-.25a13.67,13.67,0,0,1,2.38-2.67,3.58,3.58,0,0,0,.61-1.92,9.15,9.15,0,0,0-.52-1.88,13.76,13.76,0,0,0-.8-2l-.21-.53q-.14-2.6-2.28-2.6a4.28,4.28,0,0,0-3.13,1.32,2,2,0,0,1-.53.5.78.78,0,0,0-.32.28,9.34,9.34,0,0,1-2.49,2l-.21.46-.53.14Zm-16.91,0a2.56,2.56,0,0,1,.78-.43h.82a1.9,1.9,0,0,1,.85-.36q.68,0,.68.43,0,.21-.62.43a2.63,2.63,0,0,0-1.23,1.17l-.36.14a3.57,3.57,0,0,1-.87.73,2.31,2.31,0,0,0-.66.52l-.29.28a16.82,16.82,0,0,0-1.69,1.21,5.75,5.75,0,0,1-1.26.82l-1.21.53a.19.19,0,0,1-.21-.21,8.07,8.07,0,0,1,.69-1.64,3.83,3.83,0,0,1,1.35-1.76,8.26,8.26,0,0,0,1.35-.89,8.6,8.6,0,0,1,.84-.62l.43-.21Zm-8.77,3.52-.82,1.49a1.84,1.84,0,0,1-.36.71l-.5,1.85q-.07.28-.77.84A2.65,2.65,0,0,0,81,144.9a.63.63,0,0,0,.46.69,1.2,1.2,0,0,1,.68.41,10.57,10.57,0,0,0,1,2.52l.43-.07q.43,1.6,1.46,1.6a6.89,6.89,0,0,1,.68.36,1.58,1.58,0,0,0,.78.25,4.72,4.72,0,0,0,1.35-.21l.64-.21s.14.1.29.28a.57.57,0,0,0,.43.28l1-.14a1.47,1.47,0,0,0,.46-.18l3-1.07a5,5,0,0,1,1-.57.81.81,0,0,0,.32-.14,2.21,2.21,0,0,1,1.19-.43,1.07,1.07,0,0,0,1-.8q.18-.69.64-.69h.64l.21-.07a3.81,3.81,0,0,1,1.39-.92,1.59,1.59,0,0,0,.37-.75q.09-.43.45-.43c.09,0,.14,0,.14.07l.28.28q.14,0,.39-.28t.61-.64l1.21-1.39a1.11,1.11,0,0,1,.59-.44,3,3,0,0,0,1-.8h.21q.29-.07.46-.84a2.54,2.54,0,0,1,.52-1.14,1,1,0,0,0,.34-.59l-.18-1,.18-.92q0-.53-.46-.53a.57.57,0,0,0-.39.16,1.6,1.6,0,0,1-.52.28q-.34.13-.41.87l-1.6,1a.71.71,0,0,0-.57.71v.25a1.17,1.17,0,0,1,.07.36.13.13,0,0,1-.14.14c-.1,0-.14-.11-.14-.32s-.07-.32-.21-.32a.55.55,0,0,0-.34.18,8.27,8.27,0,0,1-.69.53,4.38,4.38,0,0,0-.84.76,1.29,1.29,0,0,1-.84.48.87.87,0,0,0-.69.43,1.36,1.36,0,0,1-1,.52,1.73,1.73,0,0,0-1.19,1.08l-.14.07H96a.8.8,0,0,0-.53.28l-.29.25a.91.91,0,0,0-.43.57l-.36.21a2.24,2.24,0,0,0-1.07.43,2.36,2.36,0,0,0-.93,1l-.36-.14a2.26,2.26,0,0,1-.64.14,2.4,2.4,0,0,0-1.26.36,2.4,2.4,0,0,1-1.26.36l-1.71.25q-1.89,0-1.89-1s0-.29.14-.73.17-.8.21-1.08a2.08,2.08,0,0,1,1.1-.36l.71-.75.36.07.46-.43q.57-.07.57-.5a1.18,1.18,0,0,1,.28-.75,2.91,2.91,0,0,0,.5.14q.46,0,1.78-1.32a.72.72,0,0,0,.75-.46,1.88,1.88,0,0,1,.78-.85l.64.07Q94.23,138,94.8,138a.26.26,0,0,1,.21.09.26.26,0,0,0,.21.09.92.92,0,0,0,.55-.34,2.59,2.59,0,0,1,.66-.5,4.27,4.27,0,0,0,.92-.76,4.36,4.36,0,0,0,1.81-1.28,3.25,3.25,0,0,0,1.14-2.24,2,2,0,0,0-.66-1.32,1.94,1.94,0,0,0-1.44-.71,2.49,2.49,0,0,1-1.09-.21,1.86,1.86,0,0,0-.59-.21l-1.49.07a4.35,4.35,0,0,0-1.41.25,3.88,3.88,0,0,1-1.19.25l-.57-.14a.2.2,0,0,0-.14.07,2.84,2.84,0,0,1-.82.64A9.58,9.58,0,0,0,88,133.1l-.43.6a1.91,1.91,0,0,0-1.17,1.42.9.9,0,0,1-.92.89l-.75.6q-.5,1-.64,1.24M64.54,135.8a21.08,21.08,0,0,1-1.75,1.56l-1.5,1.07a1.46,1.46,0,0,1-.71.78,11.44,11.44,0,0,0-1.71,1H58.8l-.21-.14s.07,0,.07,0,0,.06-.13.11l-.37.21a5.19,5.19,0,0,0-.53,1.67q0,1.46,1.32,1.46s.17-.11.36-.32l2.6-1.92,2.39-1.92a.93.93,0,0,0,.61-.53,2.22,2.22,0,0,1,.94-.84,2,2,0,0,0,.91-.84,7.13,7.13,0,0,1,1.35-1.56q1.14-1.1,1.35-1.1t.3.64q.2.64.2.68l-.14.89a4.2,4.2,0,0,0,.14.57l-.14.28.07.75-.36.71a1.2,1.2,0,0,0,.28.6l.07.28q0,.36-.43.44c-.29.06-.43.2-.43.41v.53a3,3,0,0,0-.21.64v.36l-1.24,1.6-.6,1.24q-.25.6-.36.6h-.28l-.14.07a2.82,2.82,0,0,1-1.81.85,1.26,1.26,0,0,1-.53-.28l-.57.07c-.1,0-.14,0-.14-.07q-.53-.64-.89-.64a1.78,1.78,0,0,0-.73.21,2.45,2.45,0,0,1-.52.21q-1.6.21-2,1a2.94,2.94,0,0,1-.73,1,.67.67,0,0,0-.34.5,1.31,1.31,0,0,0,.41.75,10.53,10.53,0,0,1,.91,1.23A4.47,4.47,0,0,0,60.51,152a5.44,5.44,0,0,0,2.83.52,3.38,3.38,0,0,0,1.71-.73,3.4,3.4,0,0,1,1.56-.73h.5a3.57,3.57,0,0,1,1.39-.78l.6-.46a3.24,3.24,0,0,1,1.3-.71q.87-.28.87-.46l.29-.43.82-.21a3.7,3.7,0,0,0,1.6-.78l.14-.11a1.34,1.34,0,0,0,.36-.14q.11-.5,1-.71a2.49,2.49,0,0,0,.36-.82l.75-.14a9.34,9.34,0,0,1,1.32-1.32q.64-.14.76-.5t.16-.36q.89-.14,1-.28l.36-.46.71-.43q1.1-1.42,1.17-1.46a2.32,2.32,0,0,0,1.14-.5,9.85,9.85,0,0,1,.94-.87,1.62,1.62,0,0,0,.69-1.19,3.45,3.45,0,0,0-.27-1.3q-.27-.66-.52-.66a5.5,5.5,0,0,0-.8.36,4,4,0,0,0-1.26,1l-.36.43a9.51,9.51,0,0,0-1.35.82,3.8,3.8,0,0,1-.8.5,1.41,1.41,0,0,0-.59.48q-.25.34-.6.76l-.68.36a3.71,3.71,0,0,1-1.12.92,1.55,1.55,0,0,0-.69.55,6.05,6.05,0,0,1-2,1.16.76.76,0,0,1-.14-.43,2.83,2.83,0,0,1,.43-.89v-.85l.43-1.17-.07-1.46a4.06,4.06,0,0,1,.29-.68,7.12,7.12,0,0,0-.32-1,3.2,3.2,0,0,1-.25-1.08,14.17,14.17,0,0,0-.84-3.66q-.84-2.6-1.71-3.11a3,3,0,0,0-1.41-.52,1.8,1.8,0,0,0-1.41.53,5.05,5.05,0,0,0-.87,1.94,4.61,4.61,0,0,1-.73,1.74,4.38,4.38,0,0,0-.55.66l-.5.89a10.26,10.26,0,0,1-1.5,1.67m-14.78-1.46a2.56,2.56,0,0,1,.78-.43h.82a1.9,1.9,0,0,1,.85-.36q.68,0,.68.43,0,.21-.62.43A2.63,2.63,0,0,0,51,135.58l-.36.14a3.57,3.57,0,0,1-.87.73,2.31,2.31,0,0,0-.66.52l-.29.28a16.82,16.82,0,0,0-1.69,1.21,5.75,5.75,0,0,1-1.26.82l-1.21.53a.19.19,0,0,1-.21-.21,8.07,8.07,0,0,1,.69-1.64,3.83,3.83,0,0,1,1.35-1.76,8.26,8.26,0,0,0,1.35-.89,8.6,8.6,0,0,1,.84-.62l.43-.21ZM41,137.86l-.82,1.49a1.84,1.84,0,0,1-.36.71l-.5,1.85q-.07.28-.77.84a2.65,2.65,0,0,0-.69,2.15.63.63,0,0,0,.46.69A1.2,1.2,0,0,1,39,146a10.57,10.57,0,0,0,1,2.52l.43-.07q.43,1.6,1.46,1.6a6.84,6.84,0,0,1,.68.36,1.58,1.58,0,0,0,.78.25,4.72,4.72,0,0,0,1.35-.21l.64-.21s.14.1.29.28a.57.57,0,0,0,.43.28l1-.14a1.47,1.47,0,0,0,.46-.18l3-1.07a5,5,0,0,1,1-.57.81.81,0,0,0,.32-.14,2.21,2.21,0,0,1,1.19-.43,1.07,1.07,0,0,0,1-.8q.18-.69.64-.69h.64l.21-.07a3.81,3.81,0,0,1,1.39-.92,1.59,1.59,0,0,0,.37-.75q.09-.43.45-.43c.09,0,.14,0,.14.07l.28.28q.14,0,.39-.28t.61-.64l1.21-1.39a1.11,1.11,0,0,1,.59-.44,3,3,0,0,0,1-.8h.21q.29-.07.46-.84a2.54,2.54,0,0,1,.52-1.14,1,1,0,0,0,.34-.59l-.18-1,.18-.92q0-.53-.46-.53a.57.57,0,0,0-.39.16,1.6,1.6,0,0,1-.52.28q-.34.13-.41.87l-1.6,1a.71.71,0,0,0-.57.71v.25a1.17,1.17,0,0,1,.07.36.13.13,0,0,1-.14.14q-.14,0-.14-.32t-.21-.32a.55.55,0,0,0-.34.18,8.27,8.27,0,0,1-.69.53,4.37,4.37,0,0,0-.84.76,1.29,1.29,0,0,1-.84.48.87.87,0,0,0-.69.43,1.36,1.36,0,0,1-1,.52,1.73,1.73,0,0,0-1.19,1.08l-.14.07h-.5a.8.8,0,0,0-.53.28l-.28.25a.91.91,0,0,0-.43.57l-.36.21a2.23,2.23,0,0,0-1.07.43,2.36,2.36,0,0,0-.93,1l-.36-.14a2.26,2.26,0,0,1-.64.14,2.4,2.4,0,0,0-1.26.36,2.4,2.4,0,0,1-1.26.36l-1.71.25q-1.89,0-1.89-1s0-.29.14-.73.17-.8.21-1.08a2.08,2.08,0,0,1,1.1-.36l.71-.75.36.07.46-.43q.57-.07.57-.5a1.18,1.18,0,0,1,.28-.75,2.92,2.92,0,0,0,.5.14q.46,0,1.78-1.32a.72.72,0,0,0,.75-.46,1.88,1.88,0,0,1,.78-.85l.64.07q.67-1.39,1.24-1.39a.26.26,0,0,1,.21.09.26.26,0,0,0,.21.09.92.92,0,0,0,.55-.34,2.59,2.59,0,0,1,.66-.5,4.28,4.28,0,0,0,.92-.76,4.36,4.36,0,0,0,1.81-1.28A3.25,3.25,0,0,0,57.2,133a2,2,0,0,0-.66-1.32A1.94,1.94,0,0,0,55.1,131a2.49,2.49,0,0,1-1.09-.21,1.86,1.86,0,0,0-.59-.21l-1.49.07a4.35,4.35,0,0,0-1.41.25,3.88,3.88,0,0,1-1.19.25l-.57-.14a.21.21,0,0,0-.14.07,2.84,2.84,0,0,1-.82.64,9.58,9.58,0,0,0-2.92,1.39l-.43.6a1.91,1.91,0,0,0-1.17,1.42.9.9,0,0,1-.92.89l-.75.6q-.5,1-.64,1.24M19.16,140l-.07.43a.49.49,0,0,1-.25.39,1.17,1.17,0,0,0-.36.37.7.7,0,0,1-.37.3,2.62,2.62,0,0,0-.77.66,3.94,3.94,0,0,1-.8.73q-.3.18-.3.32l-.29.28s-.19.12-.43.36a9,9,0,0,0-1.05,1A8.84,8.84,0,0,1,13,146a5.43,5.43,0,0,0-.61.39,3.46,3.46,0,0,1-2.28,1.24q-.64,0-.71-.73a7.12,7.12,0,0,0-.21-1.23,6.38,6.38,0,0,0,.55-1.39,3.41,3.41,0,0,1,1-1.53,3.13,3.13,0,0,1,1-1.67v-.46a1.64,1.64,0,0,1,.75-.87,4.12,4.12,0,0,0,1.14-1.08q.18-.89.68-.89h.21l1.82-1.46q.5-.92.71-.92l.82.14a4.64,4.64,0,0,1,1.75-1l.89.14a3.13,3.13,0,0,1,.8-.28,3.93,3.93,0,0,0,.73-.21,2,2,0,0,1,.43-.14,1.13,1.13,0,0,1,.82.36,9.86,9.86,0,0,1-1.18,1.81,13.34,13.34,0,0,1-1.46,1.85,1.29,1.29,0,0,1-.78,1.07l-.25.46Zm13.24-15.57q0-.11.53-.48a1,1,0,0,0,.53-.84v-.68l.32-.28a4.9,4.9,0,0,1,.28-1l.5-.5a2.1,2.1,0,0,1,.73-.69q.3-.12.53-.84a10.55,10.55,0,0,1,.94-1.92l1.21-2a4.21,4.21,0,0,0,.69-1q.16-.41.48-.41.14,0,.14,1a1.22,1.22,0,0,1-.32,1,3.78,3.78,0,0,0-.77,1.46,4.81,4.81,0,0,1-.94,1.71,3.82,3.82,0,0,0-.66.8,9.27,9.27,0,0,1-.69,1,2.31,2.31,0,0,0-.53,1,3.26,3.26,0,0,0-.84,1.16q-.23.59-.69.59a14.27,14.27,0,0,0-1.46,1.88q-.36.89-.82,1l.36-1ZM5.87,149.11a4.9,4.9,0,0,1,.53,1,2.47,2.47,0,0,0,.89.94,3.35,3.35,0,0,0,2,.55,4,4,0,0,0,2.92-1.07,2.15,2.15,0,0,1,.57-.28q.32-.57.5-.82l.61-.14a.54.54,0,0,0,.21.07q.14,0,.53-.85t.89-1a.8.8,0,0,0,.62-.6q.12-.48.27-.48.53,0,.71-.84t.46-.84h.07l.43.28q.25,0,.75-1.32a5.68,5.68,0,0,0,1.48-1.49,1.57,1.57,0,0,1,.41-.6l.21-.14a1.87,1.87,0,0,1,.46-.36q.5,0,.71-1.1l.29-.14.07-.46q.5,0,.89,2.28l.07,1.46a7.32,7.32,0,0,1,.59,2A3.1,3.1,0,0,0,25.47,147a4.63,4.63,0,0,0,2.88,1l1.1-.21a2,2,0,0,0,1.32-.36,4.35,4.35,0,0,1,.57-.46h.82c.09,0,.25-.2.46-.6a.94.94,0,0,1,.82-.6.54.54,0,0,1,.32.14,5.49,5.49,0,0,0,.64-1.17l.68.14a2.09,2.09,0,0,0,.5-.57V144q0-.28.5-.55a3.63,3.63,0,0,0,1.1-1.12,1.38,1.38,0,0,0,1.16-.75,3.48,3.48,0,0,1,.73-1.07,1.4,1.4,0,0,0,1.1-1.53,6.58,6.58,0,0,0-.36-1.1l.28-1q0-.36-.6-.36a1.24,1.24,0,0,0-.71.36l-.28.28a2.66,2.66,0,0,0-1.31,1.28A9.19,9.19,0,0,1,34.39,141a3.1,3.1,0,0,0-.28.36,1.16,1.16,0,0,1-.55.39A1.53,1.53,0,0,0,33,142a6.13,6.13,0,0,1-2.77,2.2l-.5.21q-.75.64-1,.64-.43,0-.43-.57l.07-.82L28,142.2l.14-.5-.07-1,.43-2.45q.43-3.41,1.1-3.66l.28-.92A7.09,7.09,0,0,0,31.23,132l-.28-.89a.84.84,0,0,1,.43-.5q1.25-.07,1.39-1t.68-.92q.57,0,.71-.71,0-1.32.5-1.39a.93.93,0,0,0,.73-.69,4.29,4.29,0,0,1,.73-1.23,4.92,4.92,0,0,0,.82-2l.14-.07q.5-.18.5-.57v-.71q.53-.18,1.46-2.2a1.66,1.66,0,0,1,.43-.21l2-4.87a4.73,4.73,0,0,1,.46-1.21,3.13,3.13,0,0,0,.39-1.35l.07-.43a5.31,5.31,0,0,0,.39-1.32,2.38,2.38,0,0,0-.85-1.65,2.43,2.43,0,0,0-1.64-.84,1.84,1.84,0,0,0-1.6.82l-.82.85a8.79,8.79,0,0,0-1.41,1.76q-1,1.44-1.39,2.13a12.35,12.35,0,0,1-1.35,1.76q-.94,1.07-.94,1.49l.14.5-.07.25a2.79,2.79,0,0,1-.84.39q-.41.11-.69.94a3.51,3.51,0,0,1-.43,1,2.81,2.81,0,0,0-.37.55q-.23.41-.41.69a1.45,1.45,0,0,0-.21.62.9.9,0,0,1-.47.62l-.43.64a10,10,0,0,1-1.47,3.06,12.32,12.32,0,0,0-.75,1.76,2,2,0,0,1-.21.59,7.11,7.11,0,0,1-1.33,2.92l-.43.57q-.46,1.32-.75,1.32a2.33,2.33,0,0,0-.29-.36,2.81,2.81,0,0,1-.36-1,2.5,2.5,0,0,0-1-1.39,2.54,2.54,0,0,0-1.51-.57,1.56,1.56,0,0,0-.93.57,2.85,2.85,0,0,0-.75-.28.77.77,0,0,0-.43.14.77.77,0,0,1-.43.14H18a3.44,3.44,0,0,0-1,.57,2.83,2.83,0,0,0-1.78,1l-.14.07a1.46,1.46,0,0,0-.75.28q-.25.21-1,.71a4.47,4.47,0,0,0-1.21,1.28,8.44,8.44,0,0,0-2.32,2.38l-.28.07-.21.46a12.8,12.8,0,0,0-1.41,2.26,15.2,15.2,0,0,0-1,2.08,4.44,4.44,0,0,1-.77,1.23,3.43,3.43,0,0,0-.69,2.15l.21.64a.48.48,0,0,1-.36.14,1.88,1.88,0,0,0-.21.68l.29,1.81a3.29,3.29,0,0,0,.5,1.44"/><path class="cls-1" d="M142.73,80.68a2.56,2.56,0,0,1,.78-.43h.82a1.9,1.9,0,0,1,.85-.36q.68,0,.68.43,0,.21-.62.43A2.63,2.63,0,0,0,144,81.93l-.36.14a3.56,3.56,0,0,1-.87.73,2.32,2.32,0,0,0-.66.52l-.28.28a16.83,16.83,0,0,0-1.69,1.21,5.76,5.76,0,0,1-1.26.82l-1.21.53a.19.19,0,0,1-.21-.21,8.08,8.08,0,0,1,.69-1.64,3.83,3.83,0,0,1,1.35-1.76,8.22,8.22,0,0,0,1.35-.89,8.62,8.62,0,0,1,.84-.62l.43-.21ZM134,84.2l-.82,1.49a1.83,1.83,0,0,1-.36.71l-.5,1.85q-.07.29-.77.84a2.65,2.65,0,0,0-.69,2.15.63.63,0,0,0,.46.69,1.21,1.21,0,0,1,.68.41,10.57,10.57,0,0,0,1,2.52l.43-.07q.43,1.6,1.46,1.6a6.84,6.84,0,0,1,.68.36,1.58,1.58,0,0,0,.78.25,4.73,4.73,0,0,0,1.35-.21l.64-.21s.14.1.28.28a.57.57,0,0,0,.43.28l1-.14a1.47,1.47,0,0,0,.46-.18l3-1.07a5,5,0,0,1,1-.57.82.82,0,0,0,.32-.14,2.21,2.21,0,0,1,1.19-.43,1.07,1.07,0,0,0,1-.8q.18-.69.64-.69h.64l.21-.07a3.81,3.81,0,0,1,1.39-.92,1.6,1.6,0,0,0,.37-.75q.09-.43.45-.43c.09,0,.14,0,.14.07l.29.28c.09,0,.23-.09.39-.28s.37-.4.61-.64L153.3,89a1.11,1.11,0,0,1,.59-.44,3,3,0,0,0,1-.8h.21q.29-.07.46-.84a2.54,2.54,0,0,1,.52-1.14,1,1,0,0,0,.34-.59l-.18-1,.18-.92q0-.53-.46-.53a.57.57,0,0,0-.39.16,1.6,1.6,0,0,1-.52.28q-.34.13-.41.87l-1.6,1a.71.71,0,0,0-.57.71v.25a1.18,1.18,0,0,1,.07.36.13.13,0,0,1-.14.14q-.14,0-.14-.32t-.21-.32a.55.55,0,0,0-.34.18,8.3,8.3,0,0,1-.69.53,4.38,4.38,0,0,0-.84.76,1.29,1.29,0,0,1-.84.48.88.88,0,0,0-.69.43,1.36,1.36,0,0,1-1,.52,1.73,1.73,0,0,0-1.19,1.08l-.14.07h-.5a.8.8,0,0,0-.53.28l-.28.25a.91.91,0,0,0-.43.57l-.36.21a2.24,2.24,0,0,0-1.07.43,2.36,2.36,0,0,0-.93,1l-.36-.14a2.26,2.26,0,0,1-.64.14,2.4,2.4,0,0,0-1.26.36,2.4,2.4,0,0,1-1.26.36l-1.71.25q-1.89,0-1.89-1s0-.29.14-.73.17-.8.21-1.08a2.08,2.08,0,0,1,1.1-.36l.71-.75.36.07.46-.43q.57-.07.57-.5a1.18,1.18,0,0,1,.28-.75,2.91,2.91,0,0,0,.5.14q.46,0,1.78-1.32a.72.72,0,0,0,.75-.46,1.88,1.88,0,0,1,.78-.85l.64.07q.67-1.39,1.24-1.39a.26.26,0,0,1,.21.09.26.26,0,0,0,.21.09.92.92,0,0,0,.55-.34,2.59,2.59,0,0,1,.66-.5,4.27,4.27,0,0,0,.92-.76A4.36,4.36,0,0,0,149,81.61a3.25,3.25,0,0,0,1.14-2.24,2,2,0,0,0-.66-1.32,1.94,1.94,0,0,0-1.44-.71,2.49,2.49,0,0,1-1.09-.21,1.86,1.86,0,0,0-.59-.21l-1.49.07a4.35,4.35,0,0,0-1.41.25,3.88,3.88,0,0,1-1.19.25l-.57-.14a.2.2,0,0,0-.14.07,2.85,2.85,0,0,1-.82.64,9.58,9.58,0,0,0-2.92,1.39l-.43.6a1.91,1.91,0,0,0-1.17,1.42.9.9,0,0,1-.92.89l-.75.6q-.5,1-.64,1.24M97.59,87.54q0,.93.71.92a6.75,6.75,0,0,0,1.92-1.07A6.68,6.68,0,0,1,99.34,90a8,8,0,0,0-1,2.2q-.45,1.41-.45,1.44l.07.64-.21.75s.15.39.46,1.1.71,1.07,1.21,1.07a.79.79,0,0,0,.41-.21,9.56,9.56,0,0,1,.8-.55,2.23,2.23,0,0,0,.84-1q.3-.69.41-.73a19.36,19.36,0,0,0,1.57-1.56,10.52,10.52,0,0,0,1.46-1.67q.07-1.17.85-1.17a.63.63,0,0,1,.3.09.57.57,0,0,0,.23.09q.14,0,.43-.69a1.16,1.16,0,0,1,1-.76l.36-.68a1.48,1.48,0,0,0,1.18-.92l.57-.18.29-.57A4.45,4.45,0,0,0,111,86a2.13,2.13,0,0,1,1-.55,3,3,0,0,1,1.53-.92q1-.82,1-1.1v-.07l.89.14a2.9,2.9,0,0,0,.57-.8c.14-.3.31-.44.5-.44a2.7,2.7,0,0,1,.53.21q.07.14.43.18t.36.57l-.07.5.07.89a.74.74,0,0,1-.07.43,23.21,23.21,0,0,0-.64,3.06l-.36,2.17a2.19,2.19,0,0,0,.21.68l-.32.5.18.75-.07.71a1.19,1.19,0,0,0,.25.59,4.28,4.28,0,0,1,.46,1,1.19,1.19,0,0,0,.76.84,2.39,2.39,0,0,1,.84.43.81.81,0,0,0,.43.25,2.9,2.9,0,0,0,1.67-.32,8,8,0,0,1,1.12-.73q.73-.41.73-.48,0-.78.28-.78l.71.07a8.6,8.6,0,0,1,1.1-1,1.66,1.66,0,0,1,.75-1.24l.64.28q.32,0,.89-1.07a3.92,3.92,0,0,0,1.69-.91,1.76,1.76,0,0,1,.76-.59q.36-.11.6-.71l.14-.36a5.58,5.58,0,0,0,.71-1.8,3.42,3.42,0,0,1,.25-1,1.81,1.81,0,0,0,.18-.75q0-.53-.5-.53a1.67,1.67,0,0,0-1.1.6l-.21.28a12.28,12.28,0,0,0-2.38,1.62A6.63,6.63,0,0,0,126.12,88a3.8,3.8,0,0,1-1.28.84q-.46.13-.46.27a6.26,6.26,0,0,0-1,1q-.36.5-.74.43-.64.64-.78.64a.31.31,0,0,1-.35-.36l.07-.75-.14-.92.14-.68a10.62,10.62,0,0,1,.5-1.67,16.3,16.3,0,0,0,.57-1.88l.39-1.74.28-2.2a2,2,0,0,0-1.07-2.15,5.09,5.09,0,0,0-2.49-.69l-.54.07-.29-.07h-.21a6.42,6.42,0,0,0-1.68.44,6.72,6.72,0,0,0-1.66.76,7.37,7.37,0,0,1-1.25.73,3.35,3.35,0,0,0-1.3,1.07q-.46.66-.75.66t-.55.57a1.27,1.27,0,0,1-1.16.68.9.9,0,0,0-.21.43.9.9,0,0,1-.36.5l-.36-.07a5.25,5.25,0,0,1-.61.43l-.36.25a2.89,2.89,0,0,1-.87,1A6.66,6.66,0,0,0,106.34,87q-.8,1.07-1,1.07a.19.19,0,0,1-.21-.21s.24-.6.71-1.67a4.6,4.6,0,0,0,.8-1.58,7,7,0,0,1,1.05-2l.5-1.07a7.78,7.78,0,0,1,.5-1.39q2.63-3.7,2.63-3.73v-.07a1.63,1.63,0,0,1-.14-.57q0-.6,1-.6l.57.18a2,2,0,0,1,.5-.6l.28-.28,3.31-4.73a4.3,4.3,0,0,1,1-1.67,2,2,0,0,0,.62-1.28,2,2,0,0,1,.23-.92,6.74,6.74,0,0,0,1.46-3.91q0-.46.71-.82l.53-3.2q.43-1.42.43-1.53a4.29,4.29,0,0,0-.62-2,2.12,2.12,0,0,0-2-1.14,1.11,1.11,0,0,0-1.05.66,2.74,2.74,0,0,1-.66.91,1.94,1.94,0,0,0-.55.82,3.92,3.92,0,0,1-.68,1.08,10.35,10.35,0,0,0-1,1.4l-.75,1.24-.43.75a5.1,5.1,0,0,0-.89,1.44,2,2,0,0,1-.43.8,14.65,14.65,0,0,0-2,3.48,23.76,23.76,0,0,1-1,2.26,6.86,6.86,0,0,0-.43.89q-.11.3-1.49,3.18a9.1,9.1,0,0,0-1.38,3v.32l-.14.14-.32.07-.28.57c0,.19-.14.36-.43.5a14.29,14.29,0,0,1-1.38,3.09q-.18.11-1.86,1.71a14.5,14.5,0,0,0-1.79,1.85A1.63,1.63,0,0,1,99,84.1l-.29.39a4.69,4.69,0,0,0-1.11,3.06M87.32,65.18a2.36,2.36,0,0,0-1.16.25,1.69,1.69,0,0,1-.59.25l-.57.14a6.11,6.11,0,0,1-1.26.27,3.45,3.45,0,0,0-1.35.41,1.53,1.53,0,0,1-.8.28l-.46-.07-1.46.39a9.68,9.68,0,0,0-2.06.66,1.62,1.62,0,0,1-.68.27h-.14l-.39-.14h-.07l-1.46.57q-6.05.57-6.05,4.09A2.87,2.87,0,0,0,69.29,74q.48.8.84.8l.29-.07a9.05,9.05,0,0,1,1.92-1.46l3.63-1,.43.07a4.2,4.2,0,0,0,1.67-.6l.82.07a1.89,1.89,0,0,1,.85-.36h.32L81.52,71a7.16,7.16,0,0,1,3.17-.85L86.25,70l.5.07q.14,0,.39-.32a2.81,2.81,0,0,1,.78-.64q.71.21.71.32l1.53-.75a1.15,1.15,0,0,1,.21.28,4.66,4.66,0,0,1-.73,2,12,12,0,0,0-.91,1.72,15.86,15.86,0,0,1-2.28,2.93,19.2,19.2,0,0,1-2.8,2.79,1.75,1.75,0,0,0-.84,1.39l-.18.14h-.29l-.21.14-.07.28-.36.21q-.61,0-.68.89l-.14.14q-.29,0-.71.55a8.48,8.48,0,0,1-1.35,1.3q-.93.75-.93,1t-.54.46a1.09,1.09,0,0,0-.71.6,1.9,1.9,0,0,1-.86.82q-.57.28-.57,1.39c.24.24.36.38.36.43a1.08,1.08,0,0,1-.23.48,1.13,1.13,0,0,0-.23.62q0,1,.46,1a.49.49,0,0,0,.32-.18,2.5,2.5,0,0,1,.59-.39,1.42,1.42,0,0,0,.62-.64,2.33,2.33,0,0,0,1.75-1.46q.57,0,1.11-1.17l.14-.07q.86,0,1-1l.14-.07a1.31,1.31,0,0,0,1.18-.75,1.58,1.58,0,0,1,1.18-.85A8.23,8.23,0,0,1,84.79,82a.79.79,0,0,1,.29.14l.29-.5a5,5,0,0,0,.89-.82q.36-.43.57-.43c.09,0,.14,0,.14.07a2.52,2.52,0,0,0-.5.57v1.1l-.82,3.06.14.75-.21,3.13.21.71-.07,1.39a15.26,15.26,0,0,0,.93,3.52q.93,2.74,2.82,2.74a1.46,1.46,0,0,0,.87-.46,1.44,1.44,0,0,0,.55-.94,5,5,0,0,1,.14-.89,2.69,2.69,0,0,0,.11-.62,5.51,5.51,0,0,0-1.05-3.72A3.46,3.46,0,0,1,89,88.61s0-.12.14-.21A5.85,5.85,0,0,1,89,87.22l.21-1.6-.07-.57a4.71,4.71,0,0,0,.57-2v-.21a2.73,2.73,0,0,1-.07-.39q0-.11.5-1.81L90,80.11a1.32,1.32,0,0,1,.43-1l.11-.28a.55.55,0,0,1,.11-.39,2.37,2.37,0,0,0,.29-.76,4.21,4.21,0,0,1,.57-1.24q.39-.59.78-1.08l.64-1a3.92,3.92,0,0,0,.61-.59,1.23,1.23,0,0,1,.71-.44l.14-.21a1.41,1.41,0,0,1,1-.92L97,69.34c.24-.17.36-.27.36-.32a3.21,3.21,0,0,1,1.46-1.74l1.82-.36a3.73,3.73,0,0,1,.68-.14l.85-.14q1.78-.53,1.89-.53a2,2,0,0,0,.64-.14,2.2,2.2,0,0,1,.75-.14c.09,0,.14,0,.14.07q.75,1,.89,1a2.21,2.21,0,0,0,1.64-1.07l1.64-2.06a5.12,5.12,0,0,1,.55-1.21,1.8,1.8,0,0,0,.34-.75q0-1-1.17-1h-.14l-.5.21a3.66,3.66,0,0,0-1.69.37,1.54,1.54,0,0,1-.59.3l-.29-.11h-.43a4.26,4.26,0,0,1-.85.28,8.2,8.2,0,0,0-1.19.39,10,10,0,0,1-1,.36,1.24,1.24,0,0,1-.61-.21l-.21.07a2.23,2.23,0,0,1-.78.28c-.4,0-.61-.09-.61-.28a1.18,1.18,0,0,1,.05-.37,2.2,2.2,0,0,0,0-.64,2.46,2.46,0,0,1,.16-1,5.24,5.24,0,0,0,.18-.52l-.36-1.35q-.36-1.71-1.25-1.71-.68,0-1.74,1.24-.32.68-.85.68-.11,0-.28.37a3,3,0,0,1-.32.55A4.76,4.76,0,0,1,95,61.45a3.94,3.94,0,0,0-1.08,1.48q-.48,1-.76,1l-.58-.07a.35.35,0,0,0-.18.07,2.91,2.91,0,0,1-.56.21,7.65,7.65,0,0,0-1.11.48,3.3,3.3,0,0,1-1.52.34H89.1l-.32-.14h-.07l-.36.36-.5.14a2.54,2.54,0,0,0-.53-.14M53,91a5.2,5.2,0,0,1-1,.85,1.38,1.38,0,0,1-.82.75L50,92.95q-.18,0-.5-.78l-.71-1.49v-.32c0-.19.06-.31.18-.36a3,3,0,0,0,.71-2.31L49.6,87l.28-2v-.14l-.14-1,.07-.64a4.5,4.5,0,0,0-1-2.35A2.94,2.94,0,0,0,45,79.78q-.69.27-1,.37a1.28,1.28,0,0,0-.43.18l-.5.28-.53.14a3,3,0,0,1-1.21.64,1.51,1.51,0,0,0-.85.46,4,4,0,0,1-1.28.78l-.28.53-.36.28a3.54,3.54,0,0,1-1.1.53,2,2,0,0,0-1.24,1.17,1.17,1.17,0,0,1-.52.43,5,5,0,0,0-.8.55,1,1,0,0,1-.57.3c-.24,0-.36-.09-.36-.28a2.06,2.06,0,0,1,.43-1,6.39,6.39,0,0,0,.21-1.39l-.07-1a4.45,4.45,0,0,0-1-2.29,3.45,3.45,0,0,0-3-1.44q-.75,0-1.17,1a2.72,2.72,0,0,1-1.64,1.46l-.25.36a3,3,0,0,0-1.64.64,18.24,18.24,0,0,1-2,1.26,3,3,0,0,0-1.51,1.62l-.75,2q0,1.28.89,1.28h.21a3.94,3.94,0,0,1,.93-.57q.25-.07.25-.28a2,2,0,0,1,.79-.82,13.68,13.68,0,0,0,1.85-1.24l.57.11q.68-1,1.07-1A3.47,3.47,0,0,0,29.31,84l.07.14a3.41,3.41,0,0,1-.48.91,3.18,3.18,0,0,0-.52,1.1.83.83,0,0,1-.21.52.54.54,0,0,0-.18.39q0,.75-.14.75h-.46a2.78,2.78,0,0,0-.57.66,2.4,2.4,0,0,1-.84.78.68.68,0,0,0-.41.66v.28l-.07.14Q24,90.71,24,94.66a2.58,2.58,0,0,0,.48,1.3q.48.77.87.87a3.24,3.24,0,0,1,.66.25,1,1,0,0,0,.41.14q.32,0,.78-1a2.18,2.18,0,0,0,.75-.52,1.92,1.92,0,0,1,.5-.41h.36l.14-.14a1.48,1.48,0,0,1,.25-.53q.93-.11,1.14-.57.21-1.17.68-1.17a3.08,3.08,0,0,1,.64.43,4.55,4.55,0,0,1,.74-.78Q33,92.13,33,92q0-.82.48-.91A4.19,4.19,0,0,0,35,90q1.06-1,2.39-2a7.94,7.94,0,0,0,1.33-1.19,4.25,4.25,0,0,0,.57-.43l.28-.21a2,2,0,0,0,.82-.39,1.32,1.32,0,0,0,.82-.3,8.31,8.31,0,0,1,1.35-.76l.25-.07a1.19,1.19,0,0,1,.71-.39q.64,0,.64.75l-.07.85.14.89L44,88.47a1.21,1.21,0,0,0,.11.41,1.21,1.21,0,0,1,.11.41q0,.14-.28.43a2.19,2.19,0,0,1,.21.82,2.12,2.12,0,0,0,.2,1,1.68,1.68,0,0,1,.2.5v.07a4.32,4.32,0,0,0-.32.71,1.64,1.64,0,0,0,.16.41,1.37,1.37,0,0,1,.16.48,6.18,6.18,0,0,0,.84,1.51q.77,1.16,1.27,1.32a4.86,4.86,0,0,1,1,.44,1.65,1.65,0,0,0,.77.28l.68-.14,1,.14a.74.74,0,0,0,.46-.21l.5-.36a2.89,2.89,0,0,0,1.46-1.32l.29-.14h.57a.89.89,0,0,0,.32-.75l1.39-1.17a3.31,3.31,0,0,1,.64-.5l1-.5,1.82-1.92q.93-1,1.37-1.46a1.66,1.66,0,0,0,.45-1.14l-.14-1.17.32-.71q0-.39-.54-.39a1.06,1.06,0,0,0-.75.46l-.29.36-.43.21-.89.78q-1.36.82-2,1.17a1.63,1.63,0,0,0-.8,1,1.26,1.26,0,0,0-.57,1,.2.2,0,0,1-.14.07l-.36-.14h-.14q-.46,0-.68.57M.29,85.34,0,87q0,1.1,1,1.1a1.74,1.74,0,0,0,.71-.41,2,2,0,0,0,.71-.91A1,1,0,0,1,3,86.16l.78-.21a1.81,1.81,0,0,0,1-.75q.07-.78.43-.78h.14l.46.21.29-.07a1.05,1.05,0,0,1,.6-.53q.32-.07.32-.21c.21-.24.34-.36.39-.36l.64.21A3.12,3.12,0,0,1,9,83.1a.38.38,0,0,1,.43.43,2.33,2.33,0,0,1-.32.64,2.53,2.53,0,0,0-.37,1,1.24,1.24,0,0,1-.34.76l-.36.5-.14.64q-.21.68-.28,1a1.07,1.07,0,0,0-.36.57l-.18.89q-.07.29-.14.73a2.1,2.1,0,0,1-.21.69,3.06,3.06,0,0,0-.14,1.21l.07.21-.07.5a4.56,4.56,0,0,0,.21.66,3.27,3.27,0,0,1,.21.73l-.07.5v.21a2,2,0,0,0,.87,1.55,2.53,2.53,0,0,0,1.48.73L10,97l.53.07q.21,0,.57-.37a1.26,1.26,0,0,1,.84-.41,1.49,1.49,0,0,0,.69-.18l.64-.36a4.31,4.31,0,0,1,1.05-.59,3.24,3.24,0,0,0,.66-.3l.21-.36,1.53-1.1a7.75,7.75,0,0,0,1.09-.94,11,11,0,0,1,1.6-1.3,4.52,4.52,0,0,0,1.16-1,2.71,2.71,0,0,1,.55-.62,2.28,2.28,0,0,0,.59-1,6.8,6.8,0,0,1,.55-1.24,2.53,2.53,0,0,0,.3-1.3q0-.68-.53-.68t-1.46,1l-4.66,3.56a11.66,11.66,0,0,0-1.51.69,3.23,3.23,0,0,1-.69.34l-.78.78-.57-.07a1.45,1.45,0,0,0-1,.21.8.8,0,0,1-.21-.14q.5-.25.5-.64V89.57c0-.14,0-.21.07-.21q.39-.35.39-.53L11.9,88q0-.21.5-.57l.14-.75q.75-.14,1.35-3.2l.61-2.77a2.9,2.9,0,0,0-1.12-2,3.25,3.25,0,0,0-2.15-1,1.57,1.57,0,0,0-1.16.44,3.87,3.87,0,0,1-1,.73L8.59,79a3.55,3.55,0,0,1-1,1,2.3,2.3,0,0,0-.86.84,1.87,1.87,0,0,0-.57-.07,1.61,1.61,0,0,0-.94.59,3.35,3.35,0,0,1-.86.69,1.22,1.22,0,0,0-.41.25l-.57.43A3,3,0,0,0,2.1,84l-.36.14q-.5.53-.75.53H.78l-.57.5ZM16.43,68.57a2.15,2.15,0,0,0,1.26.69,2.24,2.24,0,0,0,1.41-.52,1.62,1.62,0,0,0,.69-1.21,3.16,3.16,0,0,1,.14-.94,1.15,1.15,0,0,0,.11-.32,3.12,3.12,0,0,0-.69-1.72A2.52,2.52,0,0,0,18,63.44a13.59,13.59,0,0,1-1.5.46q-1.14.18-1.14,1.85V66l.21,1.39a2.27,2.27,0,0,0,.84,1.23"/><path class="cls-1" d="M131.79,27a2.56,2.56,0,0,1,.78-.43h.82a1.9,1.9,0,0,1,.85-.36q.68,0,.68.43,0,.21-.62.43a2.63,2.63,0,0,0-1.23,1.17l-.36.14a3.57,3.57,0,0,1-.87.73,2.32,2.32,0,0,0-.66.52l-.28.28a16.89,16.89,0,0,0-1.69,1.21,5.74,5.74,0,0,1-1.26.82l-1.21.53a.19.19,0,0,1-.21-.21,8.08,8.08,0,0,1,.69-1.64,3.83,3.83,0,0,1,1.35-1.76,8.24,8.24,0,0,0,1.35-.89,8.63,8.63,0,0,1,.84-.62l.43-.21ZM123,30.54,122.2,32a1.83,1.83,0,0,1-.36.71l-.5,1.85q-.07.28-.77.84a2.65,2.65,0,0,0-.69,2.15.63.63,0,0,0,.46.69,1.21,1.21,0,0,1,.68.41,10.57,10.57,0,0,0,1,2.52l.43-.07q.43,1.6,1.46,1.6a6.84,6.84,0,0,1,.68.36,1.58,1.58,0,0,0,.78.25,4.73,4.73,0,0,0,1.35-.21l.64-.21s.14.1.28.28a.57.57,0,0,0,.43.28l1-.14a1.47,1.47,0,0,0,.46-.18l3-1.07a4.94,4.94,0,0,1,1-.57.82.82,0,0,0,.32-.14A2.21,2.21,0,0,1,135,41a1.07,1.07,0,0,0,1-.8q.18-.69.64-.69h.64l.21-.07a3.81,3.81,0,0,1,1.39-.92,1.6,1.6,0,0,0,.37-.75q.09-.43.45-.43c.09,0,.14,0,.14.07l.28.28q.14,0,.39-.28t.61-.64l1.21-1.39a1.11,1.11,0,0,1,.59-.44,3,3,0,0,0,1-.8h.21q.29-.07.46-.84a2.55,2.55,0,0,1,.52-1.14,1,1,0,0,0,.34-.59l-.18-1,.18-.92q0-.53-.46-.53a.57.57,0,0,0-.39.16,1.6,1.6,0,0,1-.52.28q-.34.13-.41.87l-1.6,1a.7.7,0,0,0-.57.71v.25a1.18,1.18,0,0,1,.07.36.13.13,0,0,1-.14.14q-.14,0-.14-.32t-.21-.32a.55.55,0,0,0-.34.18,8.3,8.3,0,0,1-.69.53,4.38,4.38,0,0,0-.84.76,1.29,1.29,0,0,1-.84.48.87.87,0,0,0-.69.43,1.36,1.36,0,0,1-1,.52,1.73,1.73,0,0,0-1.19,1.08l-.14.07h-.5a.8.8,0,0,0-.53.28l-.28.25a.91.91,0,0,0-.43.57l-.36.21a2.23,2.23,0,0,0-1.07.43,2.36,2.36,0,0,0-.93,1L131,38.9a2.25,2.25,0,0,1-.64.14,2.4,2.4,0,0,0-1.26.36,2.4,2.4,0,0,1-1.26.36l-1.71.25q-1.89,0-1.89-1s0-.29.14-.73.17-.8.21-1.08a2.08,2.08,0,0,1,1.1-.36l.71-.75.36.07.46-.43q.57-.07.57-.5a1.18,1.18,0,0,1,.28-.75,2.92,2.92,0,0,0,.5.14q.46,0,1.78-1.32a.72.72,0,0,0,.75-.46,1.88,1.88,0,0,1,.78-.85l.64.07q.67-1.39,1.24-1.39a.26.26,0,0,1,.21.09.26.26,0,0,0,.21.09.92.92,0,0,0,.55-.34,2.59,2.59,0,0,1,.66-.5,4.27,4.27,0,0,0,.92-.76,4.36,4.36,0,0,0,1.81-1.28,3.25,3.25,0,0,0,1.14-2.24,2,2,0,0,0-.66-1.32,1.94,1.94,0,0,0-1.44-.71,2.49,2.49,0,0,1-1.09-.21,1.86,1.86,0,0,0-.59-.21l-1.49.07a4.35,4.35,0,0,0-1.41.25,3.87,3.87,0,0,1-1.19.25l-.57-.14a.2.2,0,0,0-.14.07,2.85,2.85,0,0,1-.82.64,9.58,9.58,0,0,0-2.92,1.39l-.43.6a1.91,1.91,0,0,0-1.17,1.42.9.9,0,0,1-.92.89l-.75.6q-.5,1-.64,1.24m-28.1-1.32q-.89.07-1,.32a1.17,1.17,0,0,1-.43.53q-1.6,1.28-1.6,2.1a.62.62,0,0,0,.36.53,1.66,1.66,0,0,1,.59.62q.23.41.44.41t.71-.82a1.46,1.46,0,0,1,.43-.14l.18-.14q.68-1,1.25-1.14a.86.86,0,0,0,.71-.46q.21-1.1.46-1.1l.93.21.14-.14a1,1,0,0,1,.85-.64q.39,0,.39.64l-.18.57a2.44,2.44,0,0,1-.43,1l-.28.5-.21,1.1a7,7,0,0,0-.39,1.76A6.37,6.37,0,0,1,97.21,37a7.16,7.16,0,0,0-.55,3.11,7.39,7.39,0,0,0,1.42,2.56q1.42,2,2.67,2,.36,0,.85-.55a3.38,3.38,0,0,1,1-.8,2.3,2.3,0,0,0,.94-1.12l.46-.94a2.8,2.8,0,0,1,.55-.41,1.92,1.92,0,0,0,.69-.69l.43-.75a2.26,2.26,0,0,0,.93-1.32,1.89,1.89,0,0,0,.82-.69,1.62,1.62,0,0,1,.43-.52q1-.25,1.17-.92a2.16,2.16,0,0,1,.43-1h.32q.21,0,.57-.46a2.27,2.27,0,0,1,.69-.64q.34-.18.34-.28a5.59,5.59,0,0,1,.78-1,2.4,2.4,0,0,0,1.53-1.32l.57-.28a1.75,1.75,0,0,1,.71-.34.92.92,0,0,0,.59-.44.89.89,0,0,1,.66-.43,2.46,2.46,0,0,0,1-.46l.68.14a2,2,0,0,0,1.39-.68l.64.21q.36,0,.76-.64l.59-.91a1.37,1.37,0,0,0,.18-.76A3.17,3.17,0,0,0,118.73,24a3.28,3.28,0,0,0-2.37.69,8.34,8.34,0,0,1-1.46,1.17,3.21,3.21,0,0,0-1.05.94,2.71,2.71,0,0,1-.5.64,10,10,0,0,0-1.73,1.71,3,3,0,0,1-.8.85,2.12,2.12,0,0,0-.61.55,3.14,3.14,0,0,1-.55.59,1.13,1.13,0,0,0-.41.6,1.15,1.15,0,0,1-.46.62,3.75,3.75,0,0,0-.73.76q-.34.46-1.9,2.08A8.56,8.56,0,0,0,104.59,37q0,.57-.28.57h-.43a1.06,1.06,0,0,0-.25.57l-.36.25a.92.92,0,0,0-.57.43h-.14a.2.2,0,0,1-.14-.07,9,9,0,0,0,.21-1.46.62.62,0,0,0-.3-.55q-.3-.2-.3-.34t.61-.5l1-2.17-.07-1v-.28a1.19,1.19,0,0,1,.6-1l.07-.28v-1.1a4.31,4.31,0,0,0,.71-2.38,2.57,2.57,0,0,0-1.09-2.42,4.84,4.84,0,0,0-1.3-.64s-.55.15-1.51.46a5.1,5.1,0,0,0-2,1,4.72,4.72,0,0,1-1.83,1l-.14.14a1.46,1.46,0,0,1-1.53,1l-.14.28a2.27,2.27,0,0,1-.5.75M70.28,31.68,70,33.35q0,1.1,1,1.1A1.75,1.75,0,0,0,71.7,34a2,2,0,0,0,.71-.91A1,1,0,0,1,73,32.5l.78-.21a1.81,1.81,0,0,0,1-.75q.07-.78.43-.78h.14l.46.21.29-.07a1.05,1.05,0,0,1,.61-.53q.32-.07.32-.21.32-.36.39-.36l.64.21a3.13,3.13,0,0,1,.89-.57.38.38,0,0,1,.43.43,2.33,2.33,0,0,1-.32.64,2.53,2.53,0,0,0-.37,1,1.23,1.23,0,0,1-.34.76l-.36.5-.14.64q-.21.68-.29,1a1.07,1.07,0,0,0-.36.57l-.18.89c0,.19-.1.43-.14.73a2.08,2.08,0,0,1-.21.69,3.07,3.07,0,0,0-.14,1.21l.07.21-.07.5a4.58,4.58,0,0,0,.21.66,3.25,3.25,0,0,1,.21.73l-.07.5v.21a2,2,0,0,0,.87,1.55,2.53,2.53,0,0,0,1.48.73l.71-.21.53.07q.21,0,.57-.37a1.26,1.26,0,0,1,.84-.41,1.49,1.49,0,0,0,.69-.18l.64-.36a4.29,4.29,0,0,1,1.05-.59,3.23,3.23,0,0,0,.66-.3l.21-.36,1.53-1.1a7.73,7.73,0,0,0,1.09-.94,11,11,0,0,1,1.6-1.3,4.51,4.51,0,0,0,1.16-1,2.72,2.72,0,0,1,.55-.62,2.28,2.28,0,0,0,.59-1,6.8,6.8,0,0,1,.55-1.24,2.54,2.54,0,0,0,.3-1.3q0-.67-.53-.68t-1.46,1L85.88,36.2a11.7,11.7,0,0,0-1.51.69,3.22,3.22,0,0,1-.69.34l-.78.78-.57-.07a1.45,1.45,0,0,0-1,.21.82.82,0,0,1-.21-.14q.5-.25.5-.64V35.91c0-.14,0-.21.07-.21q.39-.35.39-.53l-.21-.85q0-.21.5-.57l.14-.75q.75-.14,1.35-3.2L84.5,27a2.9,2.9,0,0,0-1.12-2,3.25,3.25,0,0,0-2.15-1,1.57,1.57,0,0,0-1.16.44,3.87,3.87,0,0,1-1,.73l-.46.21a3.55,3.55,0,0,1-1,1,2.3,2.3,0,0,0-.86.84,1.85,1.85,0,0,0-.57-.07,1.61,1.61,0,0,0-.94.59,3.34,3.34,0,0,1-.86.69,1.21,1.21,0,0,0-.41.25l-.57.43a3,3,0,0,0-1.25,1.24l-.36.14q-.5.53-.75.53h-.21l-.57.5ZM86.42,14.92a2.15,2.15,0,0,0,1.26.69,2.24,2.24,0,0,0,1.41-.52,1.62,1.62,0,0,0,.69-1.21,3.16,3.16,0,0,1,.14-.94,1.15,1.15,0,0,0,.11-.32,3.12,3.12,0,0,0-.69-1.72A2.52,2.52,0,0,0,88,9.78a13.59,13.59,0,0,1-1.49.46q-1.14.18-1.14,1.85v.21l.21,1.39a2.27,2.27,0,0,0,.84,1.23M50.52,27a3.77,3.77,0,0,0-1.58,1.08,4,4,0,0,1-1.28,1,1.18,1.18,0,0,0-.69.59.79.79,0,0,1-.71.43,4.46,4.46,0,0,0-1.8,1.1A3.44,3.44,0,0,0,43.22,34q0,.85.53.85A1.48,1.48,0,0,0,45,34.42a3.22,3.22,0,0,1,.62-.68l.71-.18a2.83,2.83,0,0,1,.75-.28,9.33,9.33,0,0,1,.85-1,1,1,0,0,0,.82-.39,2.1,2.1,0,0,1,.36-.43l1.32-.36q.21-.07.5-.75l.6-.28a2.62,2.62,0,0,1,1-.84,2.9,2.9,0,0,0,.77-.44,4.06,4.06,0,0,1,.94-.53,2.14,2.14,0,0,0,1-.73q.21-.37.39-.37.93,0,.93,1a1.93,1.93,0,0,1-.28.64q-.21.07-.36.55a1.91,1.91,0,0,1-.21.55l-.46.64a3.26,3.26,0,0,1-.61,1.14,16.82,16.82,0,0,0-1.42,2.52,3.3,3.3,0,0,1-.55,1.33,1.8,1.8,0,0,0-.41.76,7.35,7.35,0,0,1-.36,1.08,7.35,7.35,0,0,0-.28,2.44,2.71,2.71,0,0,0,.39,1,10.19,10.19,0,0,1,.64,1.44,3.09,3.09,0,0,0,1.51,1.42q1.26.71,1.3.71l1-.07.57-.18a1.73,1.73,0,0,1,.53.25l.85-.46,1-.21a7.68,7.68,0,0,1,2.28-1.32q.57,0,.57-.5v-.07l-.21-.36q0-.32.43-.32h.14l.21.07a2.31,2.31,0,0,0,.53-.28l.14-.36q.07-.5.28-.5a.74.74,0,0,1,.29.14.73.73,0,0,0,.28.14q.14,0,.55-.44a11.91,11.91,0,0,1,1.51-1.26,15.72,15.72,0,0,0,1.71-1.42,2.85,2.85,0,0,1,.94-.71q.34-.11.55-.89a.81.81,0,0,0,.68-.59,1.59,1.59,0,0,1,.37-.73Q71,34.1,71,34a.58.58,0,0,0-.07-.32l-.07-.57v-.21a1.05,1.05,0,0,0,.36-.75q0-.71-.75-.71t-1.26.94a4.26,4.26,0,0,1-.62.94,4,4,0,0,0-1.17.75,14.39,14.39,0,0,1-1.92,1.71,8,8,0,0,0-1.09.84,3.24,3.24,0,0,1-1,.66,4,4,0,0,0-1.12.69,3.72,3.72,0,0,1-1.19.69,5,5,0,0,0-1.07.5,3.35,3.35,0,0,1-1,.43,2.23,2.23,0,0,0-.87.37,1,1,0,0,1-.36.23l-.5-.14a2.67,2.67,0,0,1-.53.21q-1.39,0-1.39-.53a1.08,1.08,0,0,1,.27-.57,2.68,2.68,0,0,0,.41-.8,1.55,1.55,0,0,1,.28-.59l.28-.43a5.35,5.35,0,0,1,.45-.82.7.7,0,0,0,.16-.28v-.64q0-.28.71-.53a7.22,7.22,0,0,0,.75-1.28L59,33.5a13.65,13.65,0,0,1,2.39-2.67,3.58,3.58,0,0,0,.6-1.92A9.15,9.15,0,0,0,61.47,27a13.76,13.76,0,0,0-.8-2l-.21-.53q-.14-2.6-2.28-2.6A4.28,4.28,0,0,0,55,23.18a2,2,0,0,1-.53.5.78.78,0,0,0-.32.28,9.34,9.34,0,0,1-2.49,2l-.21.46-.53.14ZM26.58,32.64l-.07.43a.49.49,0,0,1-.25.39,1.17,1.17,0,0,0-.36.37.7.7,0,0,1-.37.3,2.62,2.62,0,0,0-.77.66,3.94,3.94,0,0,1-.8.73q-.3.18-.3.32l-.29.28s-.19.12-.43.36a9,9,0,0,0-1.05,1,8.84,8.84,0,0,1-1.48,1.26,5.43,5.43,0,0,0-.61.39,3.46,3.46,0,0,1-2.28,1.24q-.64,0-.71-.73a7.12,7.12,0,0,0-.21-1.23A6.38,6.38,0,0,0,17.16,37a3.41,3.41,0,0,1,1-1.53,3.13,3.13,0,0,1,1-1.67v-.46a1.64,1.64,0,0,1,.75-.87A4.12,4.12,0,0,0,21,31.4q.18-.89.68-.89h.21l1.82-1.46q.5-.92.71-.92l.82.14a4.64,4.64,0,0,1,1.75-1l.89.14a3.13,3.13,0,0,1,.8-.28,3.93,3.93,0,0,0,.73-.21,2,2,0,0,1,.43-.14,1.13,1.13,0,0,1,.82.36,9.86,9.86,0,0,1-1.18,1.81A13.34,13.34,0,0,1,28,30.76a1.29,1.29,0,0,1-.78,1.07l-.25.46ZM39.83,17.07q0-.11.53-.48a1,1,0,0,0,.53-.84v-.68l.32-.28a4.9,4.9,0,0,1,.28-1l.5-.5a2.1,2.1,0,0,1,.73-.69q.3-.12.53-.84a10.55,10.55,0,0,1,.94-1.92l1.21-2a4.21,4.21,0,0,0,.69-1q.16-.41.48-.41.14,0,.14,1a1.22,1.22,0,0,1-.32,1,3.78,3.78,0,0,0-.77,1.46,4.81,4.81,0,0,1-.94,1.71,3.82,3.82,0,0,0-.66.8,9.27,9.27,0,0,1-.69,1,2.31,2.31,0,0,0-.53,1A3.27,3.27,0,0,0,42,15.45q-.23.59-.69.59a14.27,14.27,0,0,0-1.46,1.88q-.36.89-.82,1l.36-1ZM13.29,41.8a4.9,4.9,0,0,1,.53,1,2.47,2.47,0,0,0,.89.94,3.35,3.35,0,0,0,2,.55,4,4,0,0,0,2.92-1.07,2.15,2.15,0,0,1,.57-.28q.32-.57.5-.82l.61-.14a.54.54,0,0,0,.21.07q.14,0,.53-.85t.89-1a.8.8,0,0,0,.62-.6q.12-.48.27-.48.53,0,.71-.84t.46-.84h.07l.43.28q.25,0,.75-1.32a5.68,5.68,0,0,0,1.48-1.49,1.57,1.57,0,0,1,.41-.6l.21-.14a1.87,1.87,0,0,1,.46-.36q.5,0,.71-1.1l.29-.14.07-.46q.5,0,.89,2.28l.07,1.46a7.32,7.32,0,0,1,.59,2,3.1,3.1,0,0,0,1.41,1.85,4.63,4.63,0,0,0,2.88,1l1.1-.21a2,2,0,0,0,1.32-.36,4.35,4.35,0,0,1,.57-.46h.82c.09,0,.25-.2.46-.6a.94.94,0,0,1,.82-.6.54.54,0,0,1,.32.14,5.49,5.49,0,0,0,.64-1.17l.68.14A2.09,2.09,0,0,0,43,37V36.7q0-.28.5-.55A3.63,3.63,0,0,0,44.61,35a1.38,1.38,0,0,0,1.16-.75,3.48,3.48,0,0,1,.73-1.07,1.4,1.4,0,0,0,1.1-1.53,6.58,6.58,0,0,0-.36-1.1l.28-1q0-.36-.6-.36a1.24,1.24,0,0,0-.71.36l-.28.28a2.66,2.66,0,0,0-1.31,1.28,9.19,9.19,0,0,1-2.81,2.49,3.1,3.1,0,0,0-.28.36,1.16,1.16,0,0,1-.55.39,1.53,1.53,0,0,0-.52.28,6.13,6.13,0,0,1-2.77,2.2l-.5.21q-.75.64-1,.64-.43,0-.43-.57l.07-.82-.43-1.46.14-.5-.07-1L35.95,31q.43-3.41,1.1-3.66l.28-.92a7.09,7.09,0,0,0,1.32-1.67l-.28-.89a.84.84,0,0,1,.43-.5q1.25-.07,1.39-1t.68-.92q.57,0,.71-.71,0-1.32.5-1.39a.93.93,0,0,0,.73-.69,4.29,4.29,0,0,1,.73-1.23,4.92,4.92,0,0,0,.82-2l.14-.07q.5-.18.5-.57v-.71q.53-.18,1.46-2.2a1.65,1.65,0,0,1,.43-.21l2-4.87a4.73,4.73,0,0,1,.46-1.21,3.13,3.13,0,0,0,.39-1.35l.07-.43a5.31,5.31,0,0,0,.39-1.32A2.38,2.38,0,0,0,49.33.84,2.43,2.43,0,0,0,47.7,0a1.84,1.84,0,0,0-1.6.82l-.82.85a8.79,8.79,0,0,0-1.41,1.76q-1,1.44-1.39,2.13a12.35,12.35,0,0,1-1.35,1.76q-.94,1.07-.94,1.49l.14.5-.07.25a2.79,2.79,0,0,1-.84.39q-.41.11-.69.94a3.5,3.5,0,0,1-.43,1,2.81,2.81,0,0,0-.37.55q-.23.41-.41.69a1.45,1.45,0,0,0-.21.62.9.9,0,0,1-.47.62l-.43.64a10,10,0,0,1-1.47,3.06,12.31,12.31,0,0,0-.75,1.76,2,2,0,0,1-.21.59,7.11,7.11,0,0,1-1.33,2.92l-.43.57q-.46,1.32-.75,1.32a2.33,2.33,0,0,0-.29-.36,2.81,2.81,0,0,1-.36-1,2.5,2.5,0,0,0-1-1.39,2.54,2.54,0,0,0-1.51-.57,1.56,1.56,0,0,0-.93.57,2.85,2.85,0,0,0-.75-.28.77.77,0,0,0-.43.14.77.77,0,0,1-.43.14h-.39a3.44,3.44,0,0,0-1,.57,2.83,2.83,0,0,0-1.78,1l-.14.07a1.46,1.46,0,0,0-.75.28q-.25.21-1,.71a4.47,4.47,0,0,0-1.21,1.28,8.44,8.44,0,0,0-2.32,2.38l-.28.07-.21.46a12.8,12.8,0,0,0-1.41,2.26,15.2,15.2,0,0,0-1,2.08,4.44,4.44,0,0,1-.77,1.23,3.43,3.43,0,0,0-.69,2.15l.21.64a.48.48,0,0,1-.36.14,1.88,1.88,0,0,0-.21.68l.29,1.81a3.29,3.29,0,0,0,.5,1.44"/></g></g></svg>