<svg xmlns="http://www.w3.org/2000/svg" xmlns:xlink="http://www.w3.org/1999/xlink" viewBox="0 0 827.09 513.98"><defs><style>.cls-1{fill:none;}.cls-2{clip-path:url(#clip-path);}.cls-3{fill:#fff877;}</style><clipPath id="clip-path" transform="translate(0)"><rect class="cls-1" width="827.09" height="513.98"/></clipPath></defs><title>web_yellow_blob_2</title><g id="Layer_2" data-name="Layer 2"><g id="Layer_1-2" data-name="Layer 1"><g class="cls-2"><path class="cls-3" d="M84.84,108.79c.7-17.65,1.24-23.51,16-37.12,19-17.44,22.91-12.28,35.68,5.58,19.31-4,18-42.3,34.37-45.05a14.4,14.4,0,0,1,13,4.61c12.78,4.35,8,5.16,22.07-1.73,17.92-8.74,25.54-15,42.89-5.25,11,6.21,4.74,10.67,22.45.18,13.39-7.92,23.54-19.24,34.47-30,4.61,6.91,5,15.78,7.16,24.07,17.06,2.17,31.19-21.87,47.32-23l18.65,4.6a317.33,317.33,0,0,0,58,7.59c16.38.41,33-.34,49.38-.51,19.66-.2,55.52-8.52,71,5.07,13.7,12,7.36,23.4,29.53,27.15,16.35,2.77,33.34-3.9,49.72-3.92.81,3.5-2.34,12.82-1,15.12,6.65,11.15,27,2.86,37.47,4.15,28.68,3.57,44.79,33.54,66.16,50.61,19.25,15.38,43.39,12.37,64.94,22.3,28.14,13,24.89,23.26,18.56,48.3-2.59,10.25-1.63,10.38-1.32,21.73.7,25.77-9.48,40.27-21.15,61.76a12.31,12.31,0,0,1,11,.29c13.06,38.92,1,111.63-45.67,126.47-2.37,18.89,1.06,38.17-5.65,56.55-.54,1.48-5.12,22.43-5.91,24-17.26,34-69.15,33-92.68,2.77A161.76,161.76,0,0,1,629,504.34c-26.8,14.78-53.15,8.29-81.67,7.82-34.35-.55-68.78.13-103.14.13H257c-47.48,0-95.66,2.36-143.08.52-16.8-.65-33.18-2.79-44.9-16.38C60.33,486.31,46,451,53,437.75c4-7.72,5.68-2.52,9.48-7.66,14.67-19.87-8.3-31.9-25.1-43C18.06,374.26-7.3,370.71,2,342.65c5-15.18,14.77-22.25,27.39-29.89-3.9-33.67-26.19-70-4.19-102.9a41.43,41.43,0,0,1,19.42-16.4c5.61-7.12,6.26-13.12,11.15-24,6.67-14.88,39.76-31.84,36.58-47.66a12.72,12.72,0,0,0-7.47-.49Z" transform="translate(0)"/></g></g></g></svg>