<svg xmlns="http://www.w3.org/2000/svg" xmlns:xlink="http://www.w3.org/1999/xlink" viewBox="-20 -20 700 660"><defs><style>.cls-1{fill:none;}.cls-2{clip-path:url(#clip-path);}.cls-3{fill:#fff877;}</style><clipPath id="clip-path" transform="translate(0)"><rect class="cls-1" width="353.83" height="330.63"/></clipPath></defs><g id="Layer_2" data-name="Layer 2"><g id="Layer_1-2" data-name="Layer 1"><g class="cls-2">
<path class="cls-3" d="M71.85,15.38c11.39.78,22.17,3.92,33.41,5.68q11.45,4.29,21.31-3.26A61.59,61.59,0,0,1,137,1.94c9-5.79,26,3.31,36.38,2.11,9.15-1.06,40.73-2.37,35,18.12,14.22-1.67,29.83-4,44-.52a108.32,108.32,0,0,1,22.76,9.75,62.35,62.35,0,0,1,30.17.27c20.55,7.2,21.53,18.82,25.77,37.13a278.18,278.18,0,0,1,1.61,43.79q0,11.61-3.38,2.61c-.26,7.88,10.76,33.32,12.62,37.84a149.8,149.8,0,0,0,11.51,24.39,68,68,0,0,1-1.49,23.1c-4.4,27.06-18.14,45.53-34.13,65.63a92.72,92.72,0,0,0-16.27,20.5q-2.66,17.4-17.16,26.47c-17.1,9.91-31-3.51-48.24,3.56q-15.73,16-37.1,13.63a201,201,0,0,1-39.4-24.2,53.5,53.5,0,0,0-26.95,17.1q-15.21,10.09-30.33.11a33.84,33.84,0,0,0-18.07-7.61q-4.22,5.48-11.1,3.38l-15-6.89a44.78,44.78,0,0,1-19.18-22.73q-4-7.56-11.73-3.5Q15.12,288.08,12,273.32q-7.64-14.57-1.25-29.15,8.54-5.82,7.64-16.35-9.71-9.7-6.44-24.68,7.36-21,13.54-42.38c-3-17.17-36.49-28.62-21.69-49.45Q17.18,106,22.93,91.15a192.15,192.15,0,0,0,.87-40.59q.92-16.09,14.27-21.22A97.58,97.58,0,0,0,55.34,17.75c8.08-3.19,3.35.45,10.47-.37Z" transform="translate(0)">

<animateTransform
    attributeName="transform"
    type="rotate"
    from="0 176 165"
    to="360 176 165"
    dur="60s"
    repeatCount="indefinite" />

</path>
</g></g></g></svg>